{"glyphs":{"0":{"ha":958,"x_min":0,"x_max":0,"o":"m 86 583 l 86 389 b 144 165 86 303 106 228 b 290 28 183 102 232 57 b 479 -14 349 0 412 -14 b 668 29 547 -14 610 0 b 814 167 726 58 775 104 b 872 389 853 230 872 304 l 872 583 b 838 759 872 648 861 707 b 749 886 816 811 786 854 b 624 961 713 919 671 944 b 479 988 576 979 528 988 b 335 961 430 988 382 979 b 209 887 288 944 246 919 b 120 760 172 855 143 813 b 86 583 97 707 86 648 z m 207 389 l 207 583 b 237 725 207 636 217 683 b 315 820 257 767 283 798 b 421 867 347 842 382 858 b 538 867 460 877 499 877 b 644 819 576 856 612 841 b 722 726 676 798 702 767 b 751 585 741 684 751 638 l 751 390 b 722 248 751 338 741 290 b 644 153 702 206 676 174 b 538 106 612 131 576 116 b 421 105 499 95 460 95 b 315 152 382 115 347 130 b 237 247 283 174 257 206 b 207 389 217 289 207 336 z "},"1":{"ha":586,"x_min":0,"x_max":0,"o":"m 72 101 l 72 0 l 550 0 l 550 101 l 374 101 l 374 972 l 82 886 l 82 775 l 253 821 l 253 101 z "},"2":{"ha":936,"x_min":0,"x_max":0,"o":"m 215 703 b 295 836 216 764 243 808 b 479 878 347 864 409 878 b 661 832 551 876 612 861 b 735 692 710 803 735 756 b 709 606 735 658 726 630 b 642 551 692 581 669 563 b 558 524 614 538 586 529 b 472 515 529 518 501 515 b 333 501 422 515 376 511 b 212 458 291 492 250 478 b 121 371 173 438 143 409 b 88 235 99 333 88 288 l 88 0 l 850 0 l 850 115 l 210 115 l 210 235 b 474 403 210 345 298 401 b 613 417 524 403 570 408 b 733 465 656 427 696 443 b 822 556 770 486 800 517 b 854 693 843 594 854 640 b 822 829 854 745 843 790 b 733 920 800 868 770 898 b 615 968 696 942 657 958 b 479 983 572 978 527 983 b 344 969 431 983 386 979 b 224 925 302 960 262 945 b 132 838 186 905 155 875 b 94 703 109 800 96 755 z "},"3":{"ha":932,"x_min":0,"x_max":0,"o":"m 92 719 l 211 719 b 235 799 211 750 219 776 b 300 847 252 821 273 837 b 381 869 327 857 354 865 b 465 876 407 874 436 876 b 652 827 548 876 610 860 b 714 711 694 794 715 756 b 643 596 713 665 689 626 b 463 550 597 565 537 550 l 314 550 l 314 449 l 471 449 b 667 397 558 449 623 431 b 732 275 710 362 732 321 b 658 147 732 220 707 178 b 465 100 609 116 545 100 b 196 265 287 100 197 155 l 75 265 b 99 154 75 224 83 187 b 160 75 114 122 135 95 b 251 24 186 55 216 38 b 355 -3 285 11 320 2 b 463 -11 390 -9 425 -11 b 743 65 576 -11 670 14 b 853 279 816 115 853 187 b 797 420 853 332 834 379 b 660 503 760 461 714 489 b 785 579 711 515 752 540 b 833 713 817 618 833 663 b 728 913 832 797 797 864 b 464 988 659 963 571 988 b 333 974 418 988 374 983 b 214 932 291 966 252 951 b 123 849 176 913 146 885 b 89 721 100 813 89 770 z "},"4":{"ha":917,"x_min":0,"x_max":0,"o":"m 614 204 l 614 0 l 736 0 l 736 204 l 854 204 l 854 317 l 736 317 l 736 972 l 542 972 l 36 338 l 53 204 z m 614 317 l 164 317 l 614 881 z "},"5":{"ha":914,"x_min":0,"x_max":0,"o":"m 479 610 l 222 610 l 222 861 l 793 861 l 793 972 l 104 972 l 104 496 l 479 496 b 663 444 559 496 620 478 b 728 304 706 409 728 363 b 656 159 728 243 704 195 b 468 106 609 123 546 106 b 349 118 425 106 385 110 b 251 172 313 126 280 144 b 207 279 222 199 207 235 l 86 279 b 119 142 86 226 97 181 b 208 52 141 103 170 73 b 329 6 245 31 286 16 b 471 -8 373 -3 420 -8 b 745 78 585 -8 676 20 b 849 306 814 135 849 211 b 751 528 849 400 816 474 b 479 610 687 583 596 610 z "},"6":{"ha":961,"x_min":0,"x_max":0,"o":"m 224 486 l 224 694 b 303 833 224 753 250 799 b 489 885 356 868 418 885 b 672 842 560 885 621 871 b 750 724 722 814 748 775 l 871 724 b 757 920 867 810 829 875 b 488 988 685 965 595 988 b 217 912 383 988 293 962 b 104 696 142 861 104 789 l 104 299 b 164 121 104 229 124 170 b 310 16 204 72 253 37 b 499 -15 368 -5 431 -15 b 640 3 548 -15 595 -9 b 764 57 684 15 726 33 b 855 154 802 81 832 113 b 889 294 878 195 889 242 b 867 413 889 338 881 378 b 807 501 852 449 832 478 b 719 560 782 525 753 544 b 613 594 685 575 650 587 b 500 604 577 601 539 604 b 224 486 373 604 281 565 z m 499 96 b 308 145 425 96 362 112 b 226 294 253 178 226 228 b 309 443 226 358 254 408 b 501 496 364 478 428 496 b 690 446 575 496 638 479 b 768 294 742 413 768 362 b 726 179 768 248 754 210 b 626 115 699 149 665 127 b 499 96 588 103 545 97 z "},"7":{"ha":779,"x_min":0,"x_max":0,"o":"m 614 858 l 140 0 l 278 0 l 764 894 l 754 972 l 43 972 l 43 858 z "},"8":{"ha":976,"x_min":0,"x_max":0,"o":"m 79 275 b 115 131 79 219 91 172 b 212 39 138 91 171 60 b 341 -7 253 18 296 2 b 488 -21 386 -16 435 -21 b 635 -7 540 -21 590 -16 b 765 39 681 2 725 18 b 862 131 806 60 838 91 b 897 272 885 170 897 218 b 842 415 896 324 878 372 b 707 504 806 459 761 488 b 832 587 759 522 800 549 b 879 714 863 624 879 667 b 818 874 879 778 859 831 b 672 965 777 917 729 948 b 488 992 616 983 554 992 b 347 976 438 992 392 986 b 224 928 303 965 262 949 b 133 841 186 906 156 878 b 100 714 111 804 100 762 b 267 503 100 617 156 546 b 132 417 212 487 167 458 b 79 275 97 375 79 328 z m 757 717 b 712 622 757 680 742 648 b 608 567 682 595 647 577 b 488 551 569 556 529 551 b 305 593 421 551 360 565 b 221 717 250 621 222 662 b 261 813 221 754 234 786 b 360 872 288 841 321 860 b 486 890 400 884 442 890 b 611 873 530 890 571 884 b 714 815 651 861 685 842 b 757 717 743 787 757 755 z m 488 456 b 615 439 531 456 574 450 b 727 379 657 428 694 408 b 776 275 760 350 776 316 b 729 168 776 232 761 197 b 619 108 698 139 661 119 b 486 90 578 96 533 90 b 287 137 411 90 345 106 b 200 276 229 168 200 214 b 249 382 200 318 216 353 b 360 441 281 411 318 430 b 488 456 401 452 444 456 z "},"9":{"ha":958,"x_min":0,"x_max":0,"o":"m 739 281 b 659 144 739 223 712 178 b 474 94 606 111 544 94 b 290 136 402 94 341 108 b 211 251 239 164 213 202 l 90 251 b 204 55 94 165 132 100 b 475 -12 276 10 367 -12 b 745 63 580 -12 670 13 b 858 279 821 114 858 186 l 858 676 b 799 854 858 746 838 805 b 652 959 759 903 710 938 b 464 990 594 980 531 990 b 323 972 415 990 368 984 b 199 918 278 960 237 942 b 108 821 161 894 130 862 b 74 681 85 780 74 733 b 96 562 74 637 81 597 b 156 474 111 526 131 497 b 244 415 181 450 210 431 b 349 381 278 400 313 388 b 463 371 386 374 424 371 b 739 493 591 371 683 412 z m 464 881 b 656 831 538 881 602 864 b 736 681 709 797 736 747 b 654 532 736 617 709 567 b 463 479 600 497 536 479 b 274 530 389 479 327 496 b 196 681 222 564 196 614 b 238 797 196 727 210 766 b 338 861 266 828 300 849 b 464 881 377 873 419 880 z "},"\r":{"ha":372,"x_min":0,"x_max":0,"o":""}," ":{"ha":356,"x_min":0,"x_max":0,"o":""},"!":{"ha":367,"x_min":0,"x_max":0,"o":"m 243 972 l 122 972 l 122 222 l 243 222 z m 104 72 b 144 2 104 39 118 16 b 225 2 171 -11 198 -11 b 265 72 252 16 265 39 b 225 142 265 106 252 129 b 144 142 198 156 171 156 b 104 72 118 129 104 106 z "},"\"":{"ha":526,"x_min":0,"x_max":0,"o":"m 206 974 l 103 974 l 103 611 l 206 611 z m 424 974 l 321 974 l 321 611 l 424 611 z "},"#":{"ha":921,"x_min":0,"x_max":0,"o":"m 463 972 l 349 972 l 294 750 l 154 750 l 154 649 l 271 649 l 186 319 l 51 319 l 51 215 l 161 215 l 108 0 l 221 0 l 274 215 l 507 215 l 454 0 l 568 0 l 621 215 l 767 215 l 767 319 l 644 319 l 729 649 l 868 649 l 868 750 l 754 750 l 810 972 l 696 972 l 640 750 l 408 750 z m 385 654 l 617 654 l 531 314 l 297 314 z "},"$":{"ha":928,"x_min":0,"x_max":0,"o":"m 531 1118 l 417 1118 l 417 986 b 183 908 326 979 248 953 b 86 717 117 864 85 800 b 100 628 86 683 91 654 b 144 563 109 603 124 581 b 203 518 164 545 183 530 b 282 486 222 506 249 495 b 367 466 315 477 344 470 b 461 450 390 462 421 456 b 570 428 506 443 542 435 b 659 399 598 422 628 412 b 728 348 690 386 713 369 b 751 274 744 327 751 302 b 704 172 751 233 736 199 b 596 115 673 144 637 125 b 467 99 555 104 512 99 b 281 138 403 99 341 112 b 156 250 220 165 179 202 l 50 200 b 196 50 81 134 130 84 b 417 -10 262 16 335 -4 l 417 -144 l 529 -144 l 529 -7 b 770 72 622 -1 702 25 b 874 272 838 119 873 186 b 860 358 874 304 869 332 b 830 422 852 383 841 405 b 776 471 818 440 800 456 b 715 505 752 486 732 497 b 638 529 697 513 672 521 b 560 547 604 538 578 543 b 475 560 541 550 513 554 b 392 575 442 565 414 570 b 320 595 369 580 346 586 b 260 624 295 604 275 613 b 222 663 245 634 232 647 b 207 719 212 679 207 698 b 287 844 206 775 233 817 b 469 886 341 872 402 886 b 628 851 523 885 576 874 b 739 761 681 829 718 799 l 839 811 b 531 989 785 914 682 973 l 531 1121 z "},"%":{"ha":1033,"x_min":0,"x_max":0,"o":"m 279 985 b 172 961 239 985 204 977 b 101 901 141 945 117 925 b 66 819 86 876 74 849 b 66 728 58 789 58 759 b 101 647 74 698 86 671 b 172 586 117 622 141 602 b 279 563 204 570 239 563 b 419 606 335 563 381 577 b 490 712 457 635 481 671 b 490 835 498 753 498 794 b 419 941 481 877 457 912 b 279 985 381 970 335 985 z m 775 975 l 146 0 l 275 0 l 903 975 z m 279 894 b 357 869 310 894 336 886 b 396 810 378 853 391 833 b 396 740 400 787 400 763 b 358 679 391 716 378 696 b 281 654 337 663 311 654 b 171 715 229 654 192 674 b 170 835 150 755 149 795 b 278 894 191 875 227 894 z m 776 413 b 636 369 721 413 674 398 b 566 263 598 340 575 304 b 566 140 557 222 557 181 b 635 34 575 98 598 63 b 775 -10 673 5 719 -10 b 915 34 831 -10 877 5 b 985 140 953 63 977 98 b 985 263 994 181 994 222 b 915 369 977 304 953 340 b 775 413 877 398 831 413 z m 775 324 b 852 299 806 324 831 315 b 891 238 873 282 886 262 b 892 166 896 213 896 190 b 853 106 887 142 874 122 b 775 81 831 89 806 81 b 667 142 724 81 688 101 b 667 263 647 182 647 223 b 775 324 688 303 724 324 z "},"&":{"ha":971,"x_min":0,"x_max":0,"o":"m 672 726 l 786 726 b 758 852 786 775 777 817 b 680 931 739 887 713 913 b 576 970 647 949 612 962 b 454 982 539 978 499 982 b 199 909 350 982 265 958 b 99 708 132 860 99 794 b 142 578 99 661 113 618 b 256 497 172 539 209 512 b 131 411 206 481 165 452 b 81 275 97 370 81 325 b 178 58 81 178 113 106 b 451 -12 244 11 335 -12 b 733 119 585 -12 679 31 b 906 -1 756 32 814 -8 l 906 108 b 824 152 868 107 841 122 b 800 268 808 182 800 221 l 800 449 l 886 449 l 886 547 l 454 547 b 292 587 395 547 341 560 b 217 711 243 613 218 655 b 275 831 216 758 235 798 b 451 881 315 864 374 881 b 672 729 599 881 672 830 z m 690 450 l 690 271 b 613 139 690 212 664 168 b 449 96 561 110 506 96 b 267 144 372 96 311 112 b 200 278 222 176 200 220 b 265 397 200 322 222 362 b 446 450 309 432 369 450 z "},"'":{"ha":310,"x_min":0,"x_max":0,"o":"m 207 975 l 103 975 l 103 611 l 207 611 z "},"(":{"ha":471,"x_min":0,"x_max":0,"o":"m 436 940 l 378 1021 b 144 753 276 953 198 864 b 63 403 90 643 63 526 b 143 49 63 278 89 160 b 375 -217 197 -62 274 -151 l 436 -131 b 245 104 352 -68 288 11 b 182 408 202 198 181 299 b 249 709 183 515 205 615 b 436 940 292 803 355 880 z "},")":{"ha":471,"x_min":0,"x_max":0,"o":"m 93 1024 l 35 943 b 222 712 116 883 179 806 b 289 411 266 618 288 518 b 226 106 290 302 269 200 b 36 -129 184 12 120 -66 l 96 -214 b 328 53 197 -147 274 -58 b 408 407 381 165 408 283 b 327 758 408 530 381 647 b 93 1024 273 868 195 957 z "},"*":{"ha":524,"x_min":0,"x_max":0,"o":"m 338 633 l 410 686 l 324 789 l 449 818 l 424 903 l 299 861 l 306 983 l 215 983 l 219 863 l 101 904 l 76 818 l 194 789 l 110 686 l 183 633 l 260 743 z "},"+":{"ha":694,"x_min":0,"x_max":0,"o":"m 65 532 l 65 425 l 290 425 l 290 196 l 401 196 l 401 425 l 629 425 l 629 532 l 401 532 l 401 756 l 290 756 l 290 532 z "},",":{"ha":329,"x_min":0,"x_max":0,"o":"m 138 -4 l 103 -129 l 179 -129 b 206 -47 187 -106 196 -79 b 231 26 217 -16 225 9 b 239 57 236 43 239 53 b 201 122 239 88 226 109 b 127 124 176 135 152 136 b 90 60 103 112 90 90 b 139 -1 90 27 106 7 z "},"-":{"ha":689,"x_min":0,"x_max":0,"o":"m 96 453 l 96 344 l 593 344 l 593 453 z "},".":{"ha":331,"x_min":0,"x_max":0,"o":"m 90 63 b 128 -4 90 31 103 9 b 203 -5 153 -17 178 -17 b 240 61 228 8 240 30 b 203 128 240 93 228 115 b 128 128 178 141 153 141 b 90 63 103 116 90 94 z "},"/":{"ha":682,"x_min":0,"x_max":0,"o":"m 528 1058 l 35 -114 l 153 -114 l 647 1058 z "},":":{"ha":340,"x_min":0,"x_max":0,"o":"m 96 474 b 119 419 96 450 103 432 b 170 399 134 405 151 399 b 222 419 189 399 206 405 b 244 474 237 432 244 450 b 222 528 244 497 237 515 b 170 549 206 542 189 549 b 119 528 151 549 134 542 b 96 474 103 515 96 497 z m 96 64 b 119 9 96 41 103 22 b 170 -11 134 -4 151 -11 b 222 9 189 -11 206 -4 b 244 64 237 22 244 41 b 222 119 244 87 237 105 b 170 139 206 132 189 139 b 119 119 151 139 134 132 b 96 64 103 105 96 87 z "},";":{"ha":343,"x_min":0,"x_max":0,"o":"m 247 474 b 210 538 247 504 235 526 b 135 538 185 551 160 550 b 99 472 111 525 99 503 b 136 408 99 442 111 420 b 210 408 161 395 186 395 b 247 474 235 421 247 443 z m 144 -3 l 110 -129 l 185 -129 b 213 -47 192 -107 201 -80 b 238 26 224 -15 232 10 b 246 57 243 43 246 53 b 208 122 246 88 233 109 b 134 124 183 135 159 136 b 97 60 109 112 97 90 b 146 -3 97 26 113 6 z "},"<":{"ha":519,"x_min":0,"x_max":0,"o":"m 367 743 l 63 458 l 63 419 l 367 135 l 443 214 l 194 439 l 439 665 z "},"=":{"ha":778,"x_min":0,"x_max":0,"o":"m 101 636 l 101 529 l 676 529 l 676 636 z m 101 343 l 101 236 l 676 236 l 676 343 z "},">":{"ha":522,"x_min":0,"x_max":0,"o":"m 460 458 l 154 743 l 82 668 l 328 439 l 79 210 l 154 135 l 460 419 z "},"?":{"ha":843,"x_min":0,"x_max":0,"o":"m 165 694 b 206 801 165 737 179 772 b 299 860 232 829 264 849 b 413 876 335 871 373 876 b 501 869 444 876 473 874 b 582 844 528 864 555 855 b 646 789 609 832 630 814 b 669 699 662 764 669 734 b 657 628 669 672 665 648 b 617 578 649 609 635 592 b 569 547 598 564 582 554 b 511 522 556 541 537 532 b 367 427 444 498 395 466 b 324 235 338 388 324 324 l 444 235 b 467 364 444 297 452 340 b 561 428 481 388 513 409 b 606 447 564 429 579 435 b 660 472 632 458 650 466 b 706 503 669 477 684 487 b 751 549 727 519 742 534 b 778 610 761 565 769 585 b 790 696 786 636 790 664 b 759 831 790 748 780 793 b 674 921 738 870 710 900 b 556 968 638 942 598 958 b 418 983 513 978 467 983 b 282 967 370 983 325 978 b 165 917 239 956 200 939 b 80 827 129 896 101 866 b 49 694 59 789 49 744 z m 310 75 b 349 5 310 42 323 18 b 429 5 376 -9 402 -9 b 469 75 456 18 469 42 b 429 145 469 108 456 132 b 349 145 402 159 376 159 b 310 75 323 132 310 108 z "},"@":{"ha":1254,"x_min":0,"x_max":0,"o":"m 633 842 b 975 731 781 842 894 805 b 1096 394 1056 656 1096 544 b 1035 168 1096 285 1075 210 b 1006 148 1027 158 1018 151 b 976 153 995 145 984 147 b 963 186 967 160 963 171 l 963 685 l 871 693 l 865 596 b 765 692 844 636 811 668 b 625 728 720 716 673 728 b 374 634 524 728 440 697 b 274 381 307 572 274 487 b 376 135 274 283 308 202 b 625 36 444 69 527 36 b 769 72 672 36 720 48 b 876 169 817 95 853 128 b 910 83 875 131 887 103 b 993 57 933 63 961 54 b 1083 94 1025 60 1056 72 b 1193 393 1156 154 1193 253 b 1040 792 1193 564 1142 697 b 633 935 937 887 802 935 b 231 782 471 935 337 884 b 71 386 124 680 71 548 b 228 -6 71 221 123 91 b 628 -150 332 -102 466 -150 b 883 -81 722 -150 807 -127 l 836 1 b 629 -53 771 -35 702 -53 b 305 63 499 -53 391 -14 b 176 386 219 141 176 248 b 308 715 176 521 220 631 b 633 842 395 800 504 842 z m 626 626 b 804 556 703 626 763 603 b 867 385 846 509 867 452 b 803 210 867 316 846 258 b 625 139 761 163 702 139 b 450 204 553 139 494 161 b 383 382 406 248 383 307 b 450 561 383 458 406 518 b 626 626 494 605 553 626 z "},"A":{"ha":1056,"x_min":0,"x_max":0,"o":"m 460 972 l 24 0 l 156 0 l 250 214 l 806 214 l 901 0 l 1032 0 l 596 972 z m 758 325 l 297 325 l 528 850 z "},"B":{"ha":982,"x_min":0,"x_max":0,"o":"m 129 972 l 129 0 l 554 0 b 688 13 603 0 648 4 b 801 56 728 22 766 36 b 882 139 835 75 863 103 b 911 268 901 175 911 218 b 865 409 911 317 896 364 b 736 500 835 454 792 484 b 843 579 782 518 818 544 b 881 700 868 614 881 655 b 788 902 881 788 850 855 b 554 972 725 949 648 972 z m 250 863 l 554 863 b 704 820 616 863 666 848 b 761 699 742 792 761 751 b 706 590 761 650 743 613 b 560 554 670 566 621 554 l 250 554 z m 250 444 l 560 444 b 719 401 620 444 673 430 b 790 272 766 372 789 329 b 769 192 790 241 783 214 b 710 144 754 171 735 154 b 635 121 685 133 660 125 b 554 114 610 116 583 114 l 250 114 z "},"C":{"ha":986,"x_min":0,"x_max":0,"o":"m 939 129 l 854 213 b 578 100 779 138 687 100 b 293 210 454 100 359 137 b 192 482 227 284 194 375 b 291 758 191 590 224 682 b 578 872 358 834 454 872 b 850 764 686 872 777 836 l 933 842 b 578 988 834 939 716 988 b 296 913 469 988 375 963 b 124 726 217 864 160 801 b 71 481 88 651 70 569 b 203 128 72 342 116 224 b 578 -15 291 33 416 -15 b 939 129 721 -15 842 33 z "},"D":{"ha":1042,"x_min":0,"x_max":0,"o":"m 129 972 l 129 0 l 483 0 b 702 42 565 0 638 14 b 856 156 766 71 818 109 b 943 315 895 204 924 257 b 972 497 963 372 972 433 b 942 673 972 558 962 617 b 853 825 921 729 892 780 b 699 933 814 870 763 906 b 483 974 635 960 563 974 l 129 974 z m 483 121 l 250 121 l 250 857 l 483 857 b 756 751 601 857 692 822 b 851 499 819 681 851 597 b 758 233 851 396 820 307 b 483 121 695 158 604 121 z "},"E":{"ha":904,"x_min":0,"x_max":0,"o":"m 129 0 l 835 0 l 835 115 l 249 115 l 249 444 l 789 444 l 789 557 l 249 557 l 249 861 l 813 861 l 813 972 l 129 972 z "},"F":{"ha":869,"x_min":0,"x_max":0,"o":"m 129 972 l 129 -1 l 250 -1 l 250 406 l 781 406 l 781 518 l 250 518 l 250 857 l 804 857 l 804 972 z "},"G":{"ha":1035,"x_min":0,"x_max":0,"o":"m 935 846 b 578 992 837 943 718 992 b 208 847 423 992 300 943 b 72 478 117 750 71 627 b 103 290 72 411 83 348 b 195 132 124 231 155 178 b 355 22 235 86 289 49 b 579 -18 421 -5 496 -18 b 956 147 727 -18 853 37 l 956 532 l 543 532 l 543 425 l 846 425 l 846 194 b 581 96 770 129 681 96 b 292 207 456 96 359 133 b 192 478 225 281 192 371 b 294 763 192 591 226 686 b 578 879 363 841 457 879 b 732 849 629 879 680 869 b 865 765 784 829 828 801 z "},"H":{"ha":1056,"x_min":0,"x_max":0,"o":"m 806 0 l 926 0 l 926 972 l 806 972 l 806 551 l 250 551 l 250 972 l 129 972 l 129 0 l 250 0 l 250 439 l 806 439 z "},"I":{"ha":379,"x_min":0,"x_max":0,"o":"m 129 0 l 250 0 l 250 972 l 129 972 z "},"J":{"ha":956,"x_min":0,"x_max":0,"o":"m 838 389 l 838 972 l 378 972 l 378 861 l 718 861 l 718 389 b 642 176 718 300 693 229 b 436 96 591 122 522 96 b 230 174 350 96 281 122 b 153 383 178 225 153 295 l 33 383 b 146 91 33 261 71 164 b 436 -18 221 18 318 -18 b 730 94 558 -18 656 19 b 838 389 803 168 839 267 z "},"K":{"ha":872,"x_min":0,"x_max":0,"o":"m 129 0 l 249 0 l 249 457 l 722 0 l 872 0 l 872 8 l 364 504 l 831 965 l 831 972 l 679 972 l 249 543 l 249 972 l 129 972 z "},"L":{"ha":804,"x_min":0,"x_max":0,"o":"m 250 972 l 129 972 l 129 0 l 779 0 l 779 113 l 250 113 z "},"M":{"ha":1228,"x_min":0,"x_max":0,"o":"m 979 797 l 979 0 l 1099 0 l 1099 972 l 954 972 l 615 472 l 274 972 l 129 972 l 129 0 l 249 0 l 249 800 l 601 306 l 626 306 z "},"N":{"ha":1058,"x_min":0,"x_max":0,"o":"m 129 972 l 129 0 l 249 0 l 249 742 l 846 0 l 929 0 l 929 972 l 810 972 l 810 228 l 214 972 z "},"O":{"ha":1124,"x_min":0,"x_max":0,"o":"m 564 989 b 203 844 414 989 294 941 b 68 483 113 748 68 628 b 99 297 68 418 78 355 b 190 137 120 238 150 184 b 345 23 229 89 281 51 b 563 -19 409 -5 482 -19 b 779 23 643 -19 715 -5 b 934 137 843 51 895 89 b 1024 297 973 184 1003 238 b 1056 483 1045 356 1056 419 b 927 839 1056 621 1014 740 b 564 989 841 938 719 988 z m 935 483 b 839 210 935 378 903 287 b 564 94 775 133 683 94 b 286 208 444 94 351 132 b 189 483 221 284 189 376 b 288 765 189 595 222 689 b 564 878 353 840 445 878 b 772 818 644 877 714 857 b 897 673 829 779 871 731 b 935 483 923 615 936 552 z "},"P":{"ha":950,"x_min":0,"x_max":0,"o":"m 249 314 l 571 314 b 735 351 632 314 687 326 b 844 445 783 375 819 407 b 899 573 869 484 888 526 b 899 713 911 620 911 666 b 844 842 888 760 869 803 b 735 936 819 881 783 912 b 571 972 687 960 632 972 l 129 972 l 129 0 l 249 0 z m 571 426 l 249 426 l 249 860 l 571 860 b 690 828 616 860 656 849 b 763 747 723 806 748 780 b 785 643 777 715 785 680 b 763 539 785 606 777 571 b 690 458 748 506 723 480 b 571 426 656 437 616 426 z "},"Q":{"ha":1129,"x_min":0,"x_max":0,"o":"m 871 82 l 992 -35 l 1076 50 l 956 167 b 1060 493 1025 258 1060 367 b 1028 680 1060 559 1049 621 b 938 839 1008 739 978 792 b 783 951 899 886 847 923 b 565 992 718 978 646 992 b 291 919 459 992 367 968 b 124 737 215 871 159 810 b 69 493 88 663 70 582 b 198 135 69 352 112 233 b 565 -11 284 38 406 -11 b 871 83 688 -11 790 20 z m 565 878 b 840 767 686 878 777 841 b 936 494 902 693 934 602 b 840 217 938 387 906 295 b 564 101 775 140 682 101 b 288 215 445 101 353 139 b 190 489 223 291 190 382 b 232 680 189 558 203 622 b 362 822 261 738 304 785 b 565 878 420 858 488 877 z "},"R":{"ha":989,"x_min":0,"x_max":0,"o":"m 789 0 l 942 0 l 621 360 b 832 456 715 367 786 399 b 900 661 878 513 901 581 b 813 881 900 746 871 819 b 571 972 755 942 675 972 l 129 972 l 129 0 l 250 0 l 250 350 l 486 350 z m 565 458 l 250 458 l 250 864 l 571 864 b 725 801 637 864 688 843 b 779 658 762 760 780 712 b 724 515 779 600 761 552 b 565 458 688 477 635 458 z "},"S":{"ha":922,"x_min":0,"x_max":0,"o":"m 739 760 l 831 817 b 679 956 791 884 740 931 b 463 993 618 981 546 993 b 333 978 418 993 375 988 b 213 933 291 969 251 954 b 123 848 176 913 146 884 b 90 721 100 811 89 769 b 112 620 90 683 97 649 b 165 549 126 591 144 567 b 250 502 187 531 215 516 b 348 472 285 489 318 478 b 460 451 378 465 415 458 b 567 431 502 445 538 438 b 654 400 597 423 625 413 b 719 349 683 387 704 370 b 740 274 733 327 740 302 b 715 185 740 239 732 210 b 647 129 697 161 675 142 b 559 101 618 116 589 107 b 465 93 529 96 498 93 b 284 138 402 93 342 108 b 153 264 226 167 182 209 l 53 206 b 215 35 88 129 142 72 b 464 -19 288 -1 371 -19 b 604 -4 513 -19 560 -14 b 730 43 649 6 691 22 b 824 133 769 64 801 94 b 860 269 848 172 860 218 b 837 381 860 312 852 349 b 782 457 822 413 803 438 b 692 506 761 475 731 492 b 590 538 654 521 620 531 b 474 558 561 544 522 551 b 370 578 432 565 397 572 b 289 607 343 585 316 595 b 229 653 262 619 242 634 b 210 718 216 671 210 693 b 285 842 210 773 235 814 b 465 885 336 871 396 885 b 626 852 523 884 576 873 b 739 760 676 831 714 800 z "},"T":{"ha":831,"x_min":0,"x_max":0,"o":"m 356 864 l 356 0 l 475 0 l 475 864 l 807 864 l 807 972 l 24 972 l 24 864 z "},"U":{"ha":1029,"x_min":0,"x_max":0,"o":"m 910 972 l 792 972 l 792 389 b 713 172 792 297 766 225 b 517 93 661 119 595 93 b 318 171 438 93 372 119 b 238 388 264 223 238 295 l 238 971 l 118 971 l 118 388 b 234 88 118 258 157 158 b 517 -18 311 17 406 -18 b 798 88 629 -18 722 17 b 911 388 873 159 911 259 l 911 971 z "},"V":{"ha":992,"x_min":0,"x_max":0,"o":"m 28 972 l 431 -3 l 561 -3 l 963 972 l 829 972 l 494 142 l 163 972 z "},"W":{"ha":1500,"x_min":0,"x_max":0,"o":"m 38 972 l 376 -1 l 499 -1 l 750 726 l 1003 -1 l 1124 -1 l 1464 972 l 1326 972 l 1061 168 l 789 972 l 711 972 l 442 168 l 174 972 z "},"X":{"ha":883,"x_min":0,"x_max":0,"o":"m 711 971 l 442 578 l 175 971 l 35 971 l 35 967 l 364 496 l 15 3 l 15 0 l 154 0 l 442 408 l 729 0 l 868 0 l 868 3 l 519 496 l 849 967 l 849 971 z "},"Y":{"ha":944,"x_min":0,"x_max":0,"o":"m 408 394 l 408 0 l 533 0 l 533 394 l 917 968 l 917 972 l 769 972 l 471 511 l 179 972 l 32 972 l 32 968 z "},"Z":{"ha":843,"x_min":0,"x_max":0,"o":"m 71 972 l 71 860 l 607 860 l 42 65 l 42 0 l 789 0 l 789 117 l 213 117 l 789 919 l 789 972 z "},"[":{"ha":458,"x_min":0,"x_max":0,"o":"m 119 989 l 119 -239 l 408 -239 l 408 -133 l 236 -133 l 236 885 l 408 885 l 408 989 z "},"\\":{"ha":682,"x_min":0,"x_max":0,"o":"m 528 -114 l 647 -114 l 154 1058 l 35 1058 z "},"]":{"ha":460,"x_min":0,"x_max":0,"o":"m 340 -237 l 340 990 l 51 990 l 51 886 l 224 886 l 224 -132 l 51 -132 l 51 -237 z "},"^":{"ha":846,"x_min":0,"x_max":0,"o":"m 69 499 l 189 499 l 421 854 l 653 499 l 776 499 l 778 506 l 464 974 l 378 974 l 68 506 z "},"_":{"ha":842,"x_min":0,"x_max":0,"o":"m 94 -22 l 94 -124 l 747 -124 l 747 -22 z "},"`":{"ha":326,"x_min":0,"x_max":0,"o":"m 157 789 l 261 789 l 261 796 l 157 972 l 18 972 l 18 968 z "},"a":{"ha":885,"x_min":0,"x_max":0,"o":"m 671 0 l 781 0 l 781 686 l 669 686 l 668 561 b 563 662 644 605 609 638 b 414 697 516 685 467 697 b 162 602 313 698 229 666 b 61 343 95 538 61 451 b 161 81 61 234 94 147 b 413 -17 228 16 312 -17 b 557 19 463 -17 511 -5 b 665 122 603 42 639 77 l 668 -3 z m 419 590 b 540 563 465 590 505 581 b 621 490 575 544 602 520 b 661 392 639 461 653 428 b 661 285 669 357 669 321 b 621 188 653 250 639 217 b 540 115 602 158 575 134 b 418 88 504 97 463 88 b 243 157 349 87 290 111 b 172 339 196 203 172 264 b 243 520 172 414 196 474 b 418 589 290 566 349 589 z "},"b":{"ha":885,"x_min":0,"x_max":0,"o":"m 218 972 l 104 972 l 104 0 l 213 0 l 218 125 b 326 22 244 80 280 45 b 474 -12 372 -1 421 -12 b 724 83 575 -12 659 19 b 822 343 790 146 822 233 b 725 605 822 455 790 542 b 475 699 660 667 577 699 b 325 663 423 699 373 687 b 218 561 277 640 241 606 z m 467 592 b 640 526 536 592 594 570 b 708 343 685 482 708 421 b 640 161 708 266 685 206 b 467 94 594 117 536 94 b 293 164 397 94 339 118 b 224 344 247 210 224 270 b 294 522 224 417 247 476 b 467 592 341 569 398 592 z "},"c":{"ha":717,"x_min":0,"x_max":0,"o":"m 676 92 l 600 168 b 421 96 553 120 493 96 b 247 162 351 96 293 118 b 176 343 200 206 176 266 b 247 523 176 418 200 478 b 422 590 293 568 352 590 b 596 521 491 590 549 567 l 668 596 b 419 699 599 664 516 699 b 163 604 316 699 230 667 b 61 343 95 541 61 454 b 164 83 61 233 95 146 b 419 -12 232 19 318 -12 b 675 93 519 -12 605 23 z "},"d":{"ha":883,"x_min":0,"x_max":0,"o":"m 778 972 l 665 972 l 665 561 b 558 663 642 606 606 640 b 408 699 510 687 460 699 b 160 605 307 699 225 667 b 63 343 95 542 63 455 b 160 83 63 233 95 146 b 410 -12 226 19 309 -12 b 558 23 463 -12 512 -1 b 667 126 603 47 640 81 l 672 1 l 779 1 l 779 974 z m 417 593 b 591 524 486 593 544 570 b 661 346 638 477 661 418 b 592 165 661 272 638 212 b 418 96 545 119 488 96 b 245 163 349 96 291 118 b 176 344 199 207 176 268 b 245 527 176 422 199 483 b 418 593 291 571 349 593 z "},"e":{"ha":814,"x_min":0,"x_max":0,"o":"m 719 110 l 643 179 b 548 116 621 152 589 131 b 425 93 507 101 466 93 b 256 149 358 93 302 112 b 176 299 209 187 183 237 l 760 299 b 681 598 773 429 747 529 b 417 701 616 667 528 701 b 161 601 313 701 228 668 b 61 346 94 535 61 450 b 161 85 61 238 94 151 b 422 -12 228 20 315 -12 b 588 19 479 -12 534 -2 b 718 110 641 40 685 70 z m 651 394 l 176 394 b 258 544 186 458 213 508 b 419 599 304 581 357 599 b 585 545 488 599 543 581 b 651 393 626 509 649 459 z "},"f":{"ha":531,"x_min":0,"x_max":0,"o":"m 179 0 l 293 0 l 293 578 l 508 578 l 508 678 l 293 678 l 293 732 b 414 881 293 831 333 881 b 519 846 445 881 481 869 l 567 931 b 411 981 518 964 466 981 b 242 915 339 981 282 959 b 181 732 201 872 181 811 l 181 678 l 46 678 l 46 578 l 181 578 l 181 -1 z "},"g":{"ha":849,"x_min":0,"x_max":0,"o":"m 181 -115 l 71 -115 b 166 -330 69 -206 101 -278 b 422 -408 231 -382 317 -408 b 675 -337 520 -408 605 -385 b 781 -140 745 -290 781 -225 b 592 83 781 -28 718 46 b 735 191 655 104 703 140 b 785 363 768 242 785 300 b 696 585 785 444 755 518 l 774 676 l 693 740 l 619 651 b 425 703 570 686 506 703 b 172 613 329 703 244 673 b 63 363 99 552 63 469 b 162 114 63 257 96 174 b 425 24 228 54 316 24 b 597 -19 494 24 551 9 b 665 -142 642 -48 665 -89 b 594 -265 665 -197 642 -238 b 424 -304 547 -291 490 -304 b 251 -256 355 -303 297 -287 b 181 -115 204 -224 181 -177 z m 175 363 b 250 537 175 438 200 496 b 425 599 300 578 358 599 b 601 536 494 599 552 578 b 674 361 649 494 674 436 b 604 192 674 294 650 238 b 426 124 558 147 499 124 b 247 186 354 124 294 144 b 175 363 200 228 176 287 z "},"h":{"ha":836,"x_min":0,"x_max":0,"o":"m 217 972 l 104 972 l 104 0 l 218 0 l 218 364 b 280 523 218 427 239 480 b 435 588 321 566 373 588 b 578 533 497 588 545 569 b 629 376 612 496 629 444 l 629 0 l 742 0 l 742 378 b 668 609 742 475 717 552 b 454 694 619 666 548 694 b 217 572 348 693 269 652 l 217 971 z "},"i":{"ha":322,"x_min":0,"x_max":0,"o":"m 88 896 b 125 829 88 864 100 842 b 200 828 150 816 175 816 b 238 894 225 841 238 863 b 200 961 238 926 225 948 b 125 962 175 974 150 974 b 88 896 100 949 88 927 z m 104 689 l 218 689 l 218 0 l 104 0 z "},"j":{"ha":322,"x_min":0,"x_max":0,"o":"m 88 900 b 125 833 88 869 100 846 b 200 833 150 820 175 820 b 238 899 225 845 238 867 b 200 965 238 930 225 952 b 125 966 175 978 150 978 b 88 900 100 953 88 931 z m 106 688 l 218 688 l 218 -90 b 172 -278 219 -173 204 -235 b 15 -342 141 -320 88 -342 b -121 -303 -32 -342 -77 -329 l -83 -211 b 10 -235 -52 -227 -21 -235 b 86 -198 49 -234 74 -222 b 104 -90 98 -174 104 -138 l 104 688 z "},"k":{"ha":689,"x_min":0,"x_max":0,"o":"m 217 972 l 104 972 l 104 0 l 217 0 l 217 324 l 540 0 l 679 0 l 679 8 l 324 363 l 640 679 l 640 686 l 499 686 l 217 397 z "},"l":{"ha":339,"x_min":0,"x_max":0,"o":"m 226 972 l 113 972 l 113 0 l 226 0 z "},"m":{"ha":1278,"x_min":0,"x_max":0,"o":"m 104 686 l 104 0 l 218 0 l 218 389 b 269 533 218 446 235 494 b 404 590 304 571 349 590 b 538 533 460 590 504 571 b 589 389 572 494 589 446 l 589 0 l 703 0 l 703 389 b 755 533 703 446 720 494 b 890 590 790 571 835 590 b 1020 534 945 590 988 572 b 1068 392 1052 497 1068 449 l 1068 0 l 1182 0 l 1182 392 b 1105 615 1182 486 1156 561 b 893 697 1053 670 983 697 b 751 660 841 697 794 685 b 651 547 709 635 675 597 b 561 661 633 599 603 637 b 421 697 519 685 473 697 b 302 669 378 697 339 688 b 218 585 266 651 238 623 l 211 685 l 106 685 z "},"n":{"ha":844,"x_min":0,"x_max":0,"o":"m 104 686 l 104 0 l 217 0 l 217 368 b 276 526 217 431 236 484 b 428 592 315 569 366 591 b 581 535 493 592 544 573 b 636 378 618 497 636 444 l 636 0 l 750 0 l 750 379 b 666 612 750 477 722 555 b 449 697 610 669 538 697 b 214 578 350 697 272 657 l 208 688 l 104 688 z "},"o":{"ha":832,"x_min":0,"x_max":0,"o":"m 60 342 b 160 87 60 238 93 153 b 415 -12 228 21 313 -12 b 672 87 519 -12 604 21 b 772 342 739 153 772 238 b 672 601 772 448 739 535 b 415 701 606 668 520 701 b 160 601 313 701 228 668 b 60 342 93 534 60 447 z m 660 342 b 590 164 659 269 635 210 b 415 94 544 118 486 94 b 242 164 345 94 287 118 b 174 342 196 210 174 269 b 242 526 174 418 197 479 b 417 597 288 574 346 597 b 590 526 486 597 544 573 b 660 342 637 478 660 417 z "},"p":{"ha":885,"x_min":0,"x_max":0,"o":"m 104 -324 l 215 -324 l 215 124 b 325 19 241 77 278 43 b 475 -15 372 -4 422 -15 b 727 83 579 -15 663 17 b 824 342 791 148 824 234 b 728 596 824 446 792 531 b 482 696 664 661 582 694 b 329 658 427 696 376 683 b 218 551 282 632 245 597 l 213 683 l 104 683 z m 468 92 b 296 163 399 93 341 116 b 228 339 250 210 228 269 b 294 515 228 410 250 469 b 468 585 339 562 397 585 b 642 519 539 585 597 563 b 710 339 687 475 710 415 b 642 158 710 263 687 203 b 468 92 596 114 538 92 z "},"q":{"ha":883,"x_min":0,"x_max":0,"o":"m 667 -324 l 779 -324 l 779 686 l 671 686 l 667 554 b 556 660 640 600 603 635 b 403 699 508 686 457 699 b 157 599 303 697 221 663 b 61 344 93 534 61 449 b 158 84 61 236 93 149 b 410 -14 222 19 306 -14 b 560 21 463 -14 513 -2 b 669 124 607 44 644 78 l 669 -324 z m 419 96 b 246 163 349 96 291 118 b 178 343 200 207 178 267 b 245 523 178 419 200 479 b 419 589 290 567 348 589 b 593 519 491 589 549 566 b 660 343 638 473 660 414 b 592 167 660 273 637 214 b 421 97 546 121 489 97 z "},"r":{"ha":594,"x_min":0,"x_max":0,"o":"m 210 686 l 104 686 l 104 0 l 218 0 l 218 382 b 276 530 218 443 238 492 b 419 588 315 567 363 587 b 539 550 463 588 503 575 l 590 647 b 431 699 544 683 491 700 b 219 585 331 699 260 661 l 211 688 z "},"s":{"ha":693,"x_min":0,"x_max":0,"o":"m 546 535 l 611 610 b 350 701 544 671 456 701 b 219 683 303 702 259 696 b 115 617 178 670 144 648 b 72 500 87 585 72 546 b 95 410 72 465 80 435 b 161 353 110 386 132 367 b 246 321 190 339 218 328 b 346 303 274 313 307 307 b 484 268 406 295 452 284 b 531 193 516 252 531 227 b 477 111 530 155 512 128 b 357 86 442 94 402 86 b 113 192 251 86 170 121 l 47 113 b 354 -17 116 26 218 -17 b 558 37 436 -17 504 1 b 642 189 613 72 641 123 b 624 274 643 221 637 250 b 578 332 611 299 596 318 b 508 367 561 346 538 358 b 433 388 479 377 453 384 b 353 399 412 391 385 395 b 182 500 240 412 183 445 b 228 575 181 532 197 557 b 351 600 260 593 301 601 b 544 533 431 600 495 578 z "},"t":{"ha":551,"x_min":0,"x_max":0,"o":"m 297 886 l 183 874 l 183 685 l 46 685 l 46 588 l 183 588 l 183 225 b 400 -10 183 66 256 -12 b 533 24 443 -9 487 2 l 500 118 b 404 93 467 101 435 93 b 296 225 332 93 296 137 l 296 588 l 510 588 l 510 685 l 297 685 z "},"u":{"ha":846,"x_min":0,"x_max":0,"o":"m 636 0 l 742 0 l 742 686 l 628 686 l 628 318 b 569 160 628 255 608 202 b 417 94 529 117 479 95 b 264 151 352 94 301 113 b 208 308 227 189 208 242 l 208 686 l 94 686 l 94 307 b 177 74 94 209 122 131 b 393 -11 232 17 304 -11 b 632 110 494 -9 574 31 l 638 0 z "},"v":{"ha":779,"x_min":0,"x_max":0,"o":"m 38 686 l 328 -1 l 453 -1 l 742 686 l 617 686 l 506 417 l 390 121 l 274 418 l 163 686 z "},"w":{"ha":1165,"x_min":0,"x_max":0,"o":"m 43 686 l 286 -1 l 415 -1 l 508 254 l 583 504 l 657 254 l 750 -1 l 881 -1 l 1121 686 l 996 686 l 811 121 l 629 686 l 536 686 l 354 121 l 169 686 z "},"x":{"ha":688,"x_min":0,"x_max":0,"o":"m 22 3 l 22 0 l 149 0 l 343 278 l 536 0 l 667 0 l 667 3 l 415 351 l 649 682 l 649 686 l 518 686 l 343 426 l 165 686 l 39 686 l 39 682 l 269 351 z "},"y":{"ha":765,"x_min":0,"x_max":0,"o":"m 731 686 l 606 686 l 454 328 l 381 133 l 306 329 l 171 686 l 42 686 l 318 10 l 175 -324 l 297 -324 z "},"z":{"ha":654,"x_min":0,"x_max":0,"o":"m 67 686 l 67 582 l 432 582 l 43 44 l 43 0 l 599 0 l 599 110 l 213 110 l 599 635 l 599 686 z "},"{":{"ha":458,"x_min":0,"x_max":0,"o":"m 407 -189 l 407 -101 b 297 -87 351 -109 315 -104 b 269 22 278 -71 269 -34 l 269 218 b 268 278 269 245 269 265 b 258 327 267 291 264 307 b 228 375 253 347 243 363 b 171 403 214 387 195 396 b 227 430 194 409 213 418 b 257 477 241 441 251 457 b 267 527 263 497 266 514 b 268 588 268 541 268 561 l 268 775 b 297 889 268 832 278 870 b 406 901 317 907 353 912 l 406 986 b 213 959 317 1003 253 994 b 154 779 174 924 154 864 l 154 588 b 50 446 154 493 119 446 l 50 358 b 154 217 119 358 154 311 l 154 17 b 211 -162 154 -69 173 -128 b 406 -190 249 -196 314 -205 z "},"|":{"ha":351,"x_min":0,"x_max":0,"o":"m 232 1008 l 119 1008 l 119 -143 l 232 -143 z "},"}":{"ha":457,"x_min":0,"x_max":0,"o":"m 51 -107 l 51 -196 b 246 -167 143 -211 208 -201 b 303 11 284 -134 303 -74 l 303 211 b 407 353 303 306 338 353 l 407 439 b 303 581 338 439 303 486 l 303 771 b 244 951 303 856 283 916 b 51 979 204 987 140 996 l 51 893 b 160 881 104 903 140 899 b 189 767 179 862 189 824 l 189 581 b 190 532 189 558 189 542 b 195 490 190 522 192 508 b 210 448 198 472 203 458 b 239 418 216 438 226 428 b 288 394 252 408 268 400 b 231 367 264 388 246 379 b 201 319 217 355 207 339 b 192 269 196 299 193 282 b 190 208 191 255 190 235 l 190 13 b 163 -97 190 -44 181 -81 b 51 -110 144 -114 107 -118 z "},"~":{"ha":883,"x_min":0,"x_max":0,"o":"m 703 501 b 547 428 669 417 617 393 l 371 514 b 208 514 313 542 259 542 b 99 378 156 486 120 441 l 178 344 b 224 417 191 378 206 402 b 279 438 242 433 261 439 b 339 425 298 436 318 431 l 518 338 b 686 333 585 311 641 309 b 789 468 731 357 766 402 z "},"¡":{"ha":342,"x_min":0,"x_max":0,"o":"m 249 600 b 208 671 249 633 235 657 b 128 672 181 685 155 685 b 88 601 101 658 88 635 b 128 531 88 568 101 544 b 208 530 155 517 181 516 b 249 600 235 543 249 567 z m 232 -299 l 110 -299 l 110 450 l 232 450 z "},"¢":{"ha":763,"x_min":0,"x_max":0,"o":"m 378 -22 l 378 -122 l 485 -122 l 485 -24 b 688 75 563 -13 630 19 l 615 157 b 435 78 561 104 500 78 b 259 145 364 78 306 100 b 189 328 212 190 189 251 b 260 510 189 404 213 464 b 435 578 307 555 365 578 b 617 504 505 578 566 553 l 688 576 b 485 678 630 633 563 667 l 485 768 l 378 768 l 378 678 b 159 561 288 664 215 625 b 75 328 103 497 75 419 b 159 91 75 232 103 153 b 376 -22 215 28 288 -9 z "},"£":{"ha":906,"x_min":0,"x_max":0,"o":"m 81 113 l 81 0 l 826 0 l 826 107 l 218 107 b 321 401 305 175 339 274 l 632 401 l 632 504 l 299 504 b 271 688 280 593 271 654 b 331 826 271 746 291 792 b 497 878 372 861 427 878 b 711 714 636 878 707 823 l 819 714 b 728 919 818 807 787 876 b 497 983 670 962 593 983 b 250 906 395 983 313 957 b 156 685 187 854 156 780 b 188 501 156 646 166 585 l 82 501 l 82 399 l 210 399 b 194 244 217 341 212 290 b 83 111 177 198 140 154 z "},"¤":{"ha":840,"x_min":0,"x_max":0,"o":"m 419 254 b 281 311 361 254 315 273 b 229 446 246 349 229 394 b 281 583 229 499 246 544 b 419 640 315 621 361 640 b 558 583 478 640 524 621 b 608 446 591 544 608 499 b 558 311 608 394 591 349 b 419 254 524 273 478 254 z m 264 203 b 419 163 310 176 362 163 b 575 203 480 163 531 176 l 658 121 l 742 204 l 660 285 b 708 445 691 332 707 385 b 661 607 708 505 693 559 l 742 688 l 658 772 l 575 689 b 421 731 530 717 478 731 b 264 689 362 731 309 717 l 182 772 l 99 688 l 182 606 b 133 446 150 557 133 504 b 181 285 132 388 148 334 l 99 204 l 182 121 z "},"¥":{"ha":968,"x_min":0,"x_max":0,"o":"m 204 292 l 204 200 l 421 200 l 421 0 l 539 0 l 539 200 l 760 200 l 760 292 l 539 292 l 539 371 l 760 371 l 760 464 l 589 464 l 926 968 l 926 972 l 789 972 l 481 499 l 181 972 l 42 972 l 42 968 l 374 464 l 204 464 l 204 371 l 421 371 l 421 292 z "},"¦":{"ha":361,"x_min":0,"x_max":0,"o":"m 121 475 l 240 475 l 240 983 l 121 983 z m 240 383 l 121 383 l 121 -124 l 240 -124 z "},"§":{"ha":800,"x_min":0,"x_max":0,"o":"m 619 826 l 693 892 b 413 992 629 958 536 992 b 269 975 362 993 314 987 b 150 909 224 963 184 941 b 97 789 116 877 98 837 b 128 693 96 752 106 720 b 219 636 149 666 180 647 b 127 573 181 623 150 602 b 93 483 104 544 93 514 b 119 395 93 450 102 421 b 190 335 136 370 160 350 b 288 301 221 320 253 309 b 399 285 322 293 359 288 b 547 256 463 279 512 269 b 599 186 582 242 600 219 b 536 107 597 151 576 125 b 401 81 496 89 451 81 b 154 186 296 79 213 114 l 78 110 b 213 9 110 65 155 32 b 399 -25 270 -14 332 -25 b 501 -15 433 -25 467 -22 b 601 18 534 -8 568 3 b 683 83 635 33 662 54 b 717 182 705 111 716 144 b 684 281 719 220 708 253 b 586 340 660 308 628 328 b 679 392 624 350 655 367 b 718 486 703 418 716 449 b 702 567 720 517 715 544 b 653 624 690 591 673 610 b 578 659 634 638 608 649 b 493 679 547 669 519 675 b 406 689 467 683 438 686 b 215 790 279 702 215 736 b 271 865 214 822 233 847 b 408 890 309 883 355 891 b 617 826 494 890 564 869 z m 600 486 b 560 417 600 458 587 435 b 461 384 533 399 500 388 b 345 385 422 380 384 380 b 247 418 307 389 274 400 b 207 483 220 436 207 457 b 247 557 207 513 220 538 b 346 591 274 576 307 588 b 462 588 385 594 423 593 b 560 552 500 583 533 571 b 600 485 587 533 600 511 z "},"¨":{"ha":667,"x_min":0,"x_max":0,"o":"m 79 926 b 117 863 79 896 92 875 b 191 863 142 850 166 851 b 228 928 216 876 228 897 b 190 992 228 958 215 980 b 116 992 165 1005 141 1005 b 79 926 91 979 79 957 z m 399 926 b 435 862 399 896 411 874 b 510 862 460 849 485 849 b 547 926 535 874 547 896 b 524 981 547 950 540 968 b 473 1001 509 995 492 1001 b 422 981 454 1001 437 995 b 399 926 406 968 399 950 z "},"©":{"ha":1156,"x_min":0,"x_max":0,"o":"m 581 994 b 210 849 425 994 302 946 b 74 488 119 751 74 631 b 210 126 74 344 119 224 b 581 -19 302 29 425 -19 b 947 126 735 -19 857 29 b 1082 488 1037 224 1082 344 b 947 848 1082 631 1037 751 b 581 993 857 945 735 993 z m 179 486 b 288 782 179 605 215 703 b 581 900 360 861 457 900 b 870 783 703 900 799 861 b 976 486 941 704 976 606 b 870 190 976 367 941 268 b 581 72 799 111 703 72 b 288 190 457 72 360 112 b 179 486 215 269 179 368 z m 794 675 l 726 611 b 600 664 691 646 649 664 b 472 615 549 664 506 647 b 419 488 437 582 419 539 b 472 363 419 437 437 395 b 599 314 506 330 549 314 b 726 369 647 314 689 332 l 793 303 b 597 221 738 248 673 221 b 399 296 518 221 451 246 b 319 490 346 346 319 411 b 399 687 319 571 346 636 b 596 763 451 737 517 763 b 790 681 671 763 736 735 z "},"ª":{"ha":699,"x_min":0,"x_max":0,"o":"m 492 524 l 582 524 l 582 974 l 492 974 l 492 899 b 422 960 475 925 452 945 b 329 982 393 975 362 982 b 162 919 262 982 206 961 b 96 749 118 878 96 821 b 161 576 96 675 118 618 b 326 513 205 534 260 513 b 419 536 359 513 390 521 b 489 600 449 551 472 572 l 490 522 z m 335 892 b 426 862 371 892 401 882 b 471 790 450 842 465 818 b 471 705 476 761 476 733 b 426 633 465 677 450 653 b 336 603 401 613 371 603 b 236 643 296 603 263 616 b 196 747 209 670 196 705 b 236 851 196 790 209 824 b 338 890 263 877 297 890 z m 115 438 l 115 347 l 592 347 l 592 438 z "},"«":{"ha":621,"x_min":0,"x_max":0,"o":"m 253 718 l 61 413 l 253 106 l 375 106 l 185 413 l 375 718 z m 243 413 l 435 106 l 557 106 l 367 413 l 557 718 l 435 718 z "},"¬":{"ha":721,"x_min":0,"x_max":0,"o":"m 613 228 l 613 515 l 101 515 l 101 411 l 508 411 l 508 228 z "},"­":{"ha":672,"x_min":0,"x_max":0,"o":"m 67 453 l 67 344 l 564 344 l 564 453 z "},"®":{"ha":1150,"x_min":0,"x_max":0,"o":"m 575 992 b 208 847 420 992 298 943 b 74 485 119 750 74 629 b 208 124 74 341 119 221 b 575 -22 298 26 420 -22 b 942 124 731 -22 853 26 b 1076 485 1032 221 1076 341 b 942 847 1076 629 1032 750 b 575 992 853 943 731 992 z m 179 485 b 285 783 179 605 214 704 b 575 900 355 861 452 900 b 866 783 698 900 795 861 b 972 486 937 704 972 606 b 865 191 972 368 937 269 b 575 74 794 113 697 74 b 285 191 453 74 356 113 b 179 488 215 269 179 368 z m 671 425 l 819 251 l 819 232 l 714 232 l 569 413 l 479 413 l 479 232 l 383 232 l 383 753 l 622 753 b 752 706 676 753 719 737 b 808 601 785 675 803 640 b 778 490 812 563 802 525 b 671 424 754 454 718 432 z m 479 663 l 479 494 l 619 494 b 677 512 643 494 662 500 b 706 553 692 523 702 537 b 706 603 709 570 709 586 b 678 645 703 619 694 634 b 622 663 663 657 644 663 z "},"¯":{"ha":585,"x_min":0,"x_max":0,"o":"m 49 975 l 49 876 l 513 876 l 513 975 z "},"°":{"ha":460,"x_min":0,"x_max":0,"o":"m 239 931 b 310 890 272 931 296 917 b 311 809 325 863 325 836 b 239 768 297 782 273 768 b 164 809 203 768 178 782 b 165 890 150 836 150 863 b 239 931 180 917 205 931 z m 240 1001 b 140 970 200 1001 167 991 b 88 894 112 949 95 924 b 87 806 81 865 81 835 b 138 730 93 776 110 751 b 242 699 165 709 200 699 b 340 730 281 699 313 709 b 390 806 367 751 384 776 b 389 894 396 835 395 865 b 339 970 382 924 366 949 b 240 1001 312 991 279 1001 z "},"±":{"ha":736,"x_min":0,"x_max":0,"o":"m 99 569 l 99 464 l 313 464 l 313 244 l 424 244 l 424 464 l 638 464 l 638 569 l 424 569 l 424 788 l 313 788 l 313 569 z m 104 153 l 104 47 l 633 47 l 633 153 z "},"²":{"ha":506,"x_min":0,"x_max":0,"o":"m 61 932 l 151 932 b 254 1004 152 980 187 1004 b 358 929 324 1004 358 979 b 238 847 358 881 318 854 b 109 804 186 843 143 828 b 58 694 75 780 58 744 l 58 574 l 444 574 l 444 664 l 151 664 l 151 693 b 261 772 151 739 188 766 b 310 778 281 774 297 776 b 360 792 324 781 340 785 b 407 817 379 798 395 807 b 438 862 419 828 429 843 b 451 928 447 881 451 903 b 396 1047 451 982 433 1022 b 254 1083 359 1071 312 1083 b 119 1047 201 1083 156 1071 b 63 931 81 1022 63 983 z "},"³":{"ha":506,"x_min":0,"x_max":0,"o":"m 143 721 l 49 721 b 107 604 50 668 69 629 b 246 567 145 579 191 567 b 391 604 302 567 351 579 b 451 725 431 629 451 669 b 428 790 451 747 444 769 b 365 832 413 810 392 825 b 419 871 388 838 406 851 b 439 938 432 890 439 913 b 382 1046 439 985 420 1021 b 246 1083 344 1071 299 1083 b 113 1047 194 1083 150 1071 b 57 935 75 1022 57 985 l 139 935 b 247 1007 144 983 180 1007 b 324 985 281 1007 307 1000 b 350 939 341 971 350 956 b 246 872 349 894 314 872 l 174 872 l 174 797 l 251 797 b 331 775 288 797 314 790 b 357 725 348 760 357 744 b 247 651 357 676 320 651 b 140 721 181 651 145 675 z "},"´":{"ha":321,"x_min":0,"x_max":0,"o":"m 28 789 l 132 789 l 271 968 l 271 972 l 131 972 l 28 796 z "},"µ":{"ha":851,"x_min":0,"x_max":0,"o":"m 729 0 l 729 686 l 617 686 l 617 300 b 553 130 617 226 596 169 b 406 71 511 91 462 71 b 258 129 350 72 301 91 b 194 282 216 167 194 218 l 194 686 l 82 686 l 82 -308 l 188 -308 l 188 83 b 271 -3 203 44 231 15 b 400 -29 311 -20 354 -29 b 527 -1 443 -31 485 -22 b 619 85 569 19 600 48 l 629 0 z "},"¶":{"ha":1126,"x_min":0,"x_max":0,"o":"m 496 863 l 829 863 l 829 -299 l 940 -299 l 940 863 l 1079 863 l 1079 971 l 406 971 b 144 865 294 971 207 935 b 47 613 80 794 48 710 b 134 369 46 520 75 439 b 382 257 193 299 275 262 l 382 -300 l 496 -300 z "},"·":{"ha":347,"x_min":0,"x_max":0,"o":"m 96 393 b 135 324 96 361 109 338 b 213 324 161 311 187 311 b 251 393 238 338 251 361 b 213 462 251 425 238 448 b 135 462 187 475 161 475 b 96 393 109 448 96 425 z "},"¸":{"ha":465,"x_min":0,"x_max":0,"o":"m 124 -94 l 147 -112 b 244 -115 185 -99 217 -99 b 271 -178 270 -130 279 -151 b 193 -225 262 -209 236 -225 b 90 -176 149 -227 114 -211 l 36 -225 b 193 -307 68 -278 120 -305 b 299 -279 232 -308 267 -299 b 358 -194 330 -260 350 -231 b 338 -90 367 -156 360 -121 b 221 -46 315 -60 276 -45 l 240 31 l 156 31 l 119 -96 z "},"¹":{"ha":354,"x_min":0,"x_max":0,"o":"m 51 653 l 51 574 l 319 574 l 319 653 l 231 653 l 231 1074 l 64 1033 l 64 953 l 139 972 l 139 653 z "},"º":{"ha":669,"x_min":0,"x_max":0,"o":"m 335 511 b 502 575 401 511 457 532 b 569 749 547 618 569 675 b 503 919 569 821 547 878 b 333 981 458 960 402 981 b 164 919 265 981 208 960 b 97 747 119 878 97 820 b 165 574 97 674 120 616 b 335 511 209 532 266 511 z m 335 603 b 233 643 292 603 258 616 b 194 749 207 670 194 705 b 234 853 194 791 208 826 b 333 894 260 881 294 894 b 434 853 373 894 407 881 b 475 747 461 826 475 791 b 436 642 475 704 462 669 b 335 603 410 616 376 603 z m 111 428 l 111 338 l 563 338 l 563 428 z "},"»":{"ha":621,"x_min":0,"x_max":0,"o":"m 186 108 l 378 414 l 186 719 l 65 719 l 254 414 l 65 108 z m 560 414 l 368 719 l 247 719 l 436 414 l 247 108 l 368 108 z "},"¼":{"ha":1038,"x_min":0,"x_max":0,"o":"m 193 -3 l 299 -3 l 825 979 l 717 979 z m 67 554 l 67 475 l 335 475 l 335 554 l 246 554 l 246 975 l 79 935 l 79 854 l 154 872 l 154 554 z m 929 501 l 808 501 l 568 176 l 574 101 l 840 101 l 840 1 l 929 1 l 929 101 l 989 101 l 989 183 l 929 183 z m 840 183 l 668 183 l 840 414 z "},"½":{"ha":1106,"x_min":0,"x_max":0,"o":"m 190 -3 l 297 -3 l 824 979 l 715 979 z m 67 554 l 67 475 l 335 475 l 335 554 l 246 554 l 246 976 l 78 936 l 78 856 l 153 874 l 153 554 z m 657 356 l 747 356 b 849 428 747 404 781 428 b 954 353 919 428 954 403 b 921 292 954 324 943 304 b 825 268 899 280 867 272 b 704 226 777 264 737 250 b 656 119 672 202 656 167 l 656 -1 l 1038 -1 l 1038 83 l 749 83 l 749 119 b 856 199 749 166 784 192 b 905 206 877 201 893 204 b 953 219 916 207 933 212 b 1002 244 974 226 991 234 b 1033 287 1014 253 1024 268 b 1047 354 1043 306 1047 328 b 992 472 1047 409 1029 448 b 850 508 955 496 907 508 b 715 472 797 508 752 496 b 658 356 677 447 658 408 z "},"¾":{"ha":1085,"x_min":0,"x_max":0,"o":"m 179 710 l 256 710 b 334 688 291 710 317 703 b 360 640 351 674 360 658 b 253 568 360 592 324 568 b 149 636 188 568 153 591 l 58 636 b 115 523 59 585 78 547 b 249 486 152 498 197 486 b 390 523 304 486 351 498 b 449 642 429 547 449 587 b 426 706 449 664 441 685 b 365 746 412 726 391 739 b 418 783 388 752 405 765 b 438 849 431 802 438 824 b 381 953 437 894 418 929 b 249 990 344 978 300 990 b 117 954 198 990 154 978 b 63 846 81 930 63 894 l 143 846 b 247 917 147 893 181 917 b 323 895 281 917 306 909 b 349 850 340 881 349 866 b 247 785 349 806 315 785 l 176 785 l 176 711 z m 258 -3 l 364 -3 l 892 981 l 783 981 z m 978 503 l 857 503 l 617 178 l 622 103 l 889 103 l 889 3 l 978 3 l 978 103 l 1036 103 l 1036 185 l 978 185 z m 889 185 l 717 185 l 889 415 z "},"¿":{"ha":836,"x_min":0,"x_max":0,"o":"m 532 625 b 492 695 532 658 519 682 b 413 695 466 709 440 709 b 374 625 387 682 374 658 b 413 555 374 592 387 568 b 492 555 440 541 466 541 b 532 625 519 568 532 592 z m 794 6 l 671 6 b 629 -101 670 -37 656 -72 b 536 -159 602 -129 571 -148 b 424 -175 501 -170 463 -175 b 174 1 257 -175 174 -116 b 185 68 174 27 178 50 b 223 116 193 87 206 103 b 269 147 240 129 256 140 b 326 172 283 153 302 162 b 472 269 395 196 443 229 b 514 467 500 310 514 376 l 393 467 b 372 334 393 403 386 359 b 278 271 357 309 326 288 b 251 258 277 270 268 266 b 221 244 235 251 225 246 b 192 229 217 243 207 238 b 160 210 176 221 165 215 b 132 189 154 206 145 199 b 104 162 119 179 110 170 b 83 131 99 154 91 144 b 64 94 74 119 68 106 b 53 52 60 82 57 68 b 49 1 50 36 49 19 b 80 -134 49 -50 59 -96 b 165 -224 101 -172 129 -202 b 283 -270 201 -245 241 -260 b 422 -285 326 -280 372 -285 b 601 -258 488 -286 548 -277 b 738 -162 655 -240 700 -208 b 793 4 775 -117 793 -62 z "},"À":{"ha":1056,"x_min":0,"x_max":0,"o":"m 336 1251 l 475 1072 l 579 1072 l 579 1079 l 476 1256 l 336 1256 z m 460 972 l 24 0 l 156 0 l 250 214 l 806 214 l 901 0 l 1032 0 l 596 972 z m 758 325 l 297 325 l 528 850 z "},"Á":{"ha":1056,"x_min":0,"x_max":0,"o":"m 468 1078 l 468 1071 l 572 1071 l 711 1251 l 711 1256 l 572 1256 z m 460 972 l 24 0 l 156 0 l 250 214 l 806 214 l 901 0 l 1032 0 l 596 972 z m 758 325 l 297 325 l 528 850 z "},"Â":{"ha":1056,"x_min":0,"x_max":0,"o":"m 490 1244 l 289 1057 l 289 1047 l 407 1047 l 526 1158 l 646 1047 l 764 1047 l 764 1057 l 563 1244 z m 460 972 l 24 0 l 156 0 l 250 214 l 806 214 l 901 0 l 1032 0 l 596 972 z m 758 325 l 297 325 l 528 850 z "},"Ã":{"ha":1056,"x_min":0,"x_max":0,"o":"m 318 1111 l 393 1076 b 476 1118 410 1120 438 1134 b 514 1099 480 1117 493 1111 b 554 1079 535 1088 549 1081 b 656 1085 589 1065 623 1067 b 721 1181 688 1102 710 1134 l 644 1213 b 564 1175 630 1174 603 1161 b 526 1192 559 1176 547 1182 b 488 1211 506 1203 493 1209 b 382 1203 449 1225 413 1222 b 319 1113 350 1184 330 1154 z m 460 972 l 24 0 l 156 0 l 250 214 l 806 214 l 901 0 l 1032 0 l 596 972 z m 758 325 l 297 325 l 528 850 z "},"Ä":{"ha":1056,"x_min":0,"x_max":0,"o":"m 442 1133 b 404 1199 442 1165 429 1187 b 330 1199 379 1212 354 1212 b 293 1135 305 1187 293 1165 b 330 1070 293 1104 305 1083 b 404 1069 354 1058 379 1057 b 442 1133 429 1081 442 1103 z m 761 1133 b 738 1188 761 1156 753 1175 b 687 1208 723 1202 706 1208 b 635 1188 668 1208 651 1202 b 613 1133 620 1175 613 1156 b 649 1069 613 1103 625 1081 b 724 1069 674 1056 699 1056 b 761 1133 749 1081 761 1103 z m 460 972 l 24 0 l 156 0 l 250 214 l 806 214 l 901 0 l 1032 0 l 596 972 z m 758 325 l 297 325 l 528 850 z "},"Å":{"ha":1056,"x_min":0,"x_max":0,"o":"m 457 964 l 24 0 l 154 0 l 249 214 l 807 214 l 904 0 l 1032 0 l 599 964 b 693 1100 662 986 693 1031 b 644 1210 693 1147 677 1184 b 529 1250 611 1237 573 1250 b 414 1210 485 1250 446 1237 b 365 1100 381 1184 365 1147 b 457 964 365 1032 396 987 z m 526 1178 b 601 1139 562 1178 587 1165 b 602 1062 616 1113 616 1087 b 528 1024 588 1036 563 1024 b 457 1062 494 1024 471 1036 b 457 1139 443 1087 443 1113 b 529 1178 471 1165 495 1178 z m 760 329 l 301 329 l 531 867 z "},"Æ":{"ha":1279,"x_min":0,"x_max":0,"o":"m 579 972 l -24 0 l 118 0 l 286 278 l 615 278 l 615 0 l 1204 0 l 1204 118 l 731 118 l 731 431 l 1169 431 l 1169 544 l 731 544 l 731 857 l 1192 857 l 1192 972 z m 615 388 l 354 388 l 617 839 l 615 742 z "},"Ç":{"ha":986,"x_min":0,"x_max":0,"o":"m 576 -85 l 594 -17 b 939 129 731 -12 846 37 l 854 213 b 578 100 779 138 687 100 b 293 210 454 100 359 137 b 192 482 227 284 194 375 b 291 758 191 590 224 682 b 578 872 358 834 454 872 b 850 764 686 872 777 836 l 933 842 b 578 988 834 939 716 988 b 296 913 469 988 375 963 b 124 726 217 864 160 801 b 71 481 88 651 70 569 b 119 251 72 397 88 321 b 267 75 150 182 199 123 b 513 -11 335 27 417 -2 l 478 -133 l 500 -151 b 599 -153 539 -137 572 -138 b 626 -217 625 -169 635 -190 b 550 -264 617 -246 592 -262 b 447 -214 506 -266 471 -249 l 392 -262 b 460 -324 407 -289 430 -310 b 553 -346 489 -339 520 -346 b 658 -316 592 -346 627 -336 b 717 -231 689 -296 708 -268 b 696 -126 725 -192 718 -157 b 579 -82 674 -96 635 -81 z "},"È":{"ha":904,"x_min":0,"x_max":0,"o":"m 314 1263 l 453 1082 l 557 1082 l 557 1089 l 454 1265 l 314 1265 z m 129 0 l 835 0 l 835 115 l 249 115 l 249 444 l 789 444 l 789 557 l 249 557 l 249 861 l 813 861 l 813 972 l 129 972 z "},"É":{"ha":904,"x_min":0,"x_max":0,"o":"m 401 1075 l 401 1068 l 506 1068 l 646 1247 l 646 1251 l 506 1251 z m 129 0 l 835 0 l 835 115 l 249 115 l 249 444 l 789 444 l 789 557 l 249 557 l 249 861 l 813 861 l 813 972 l 129 972 z "},"Ê":{"ha":904,"x_min":0,"x_max":0,"o":"m 450 1265 l 250 1079 l 250 1069 l 368 1069 l 486 1179 l 606 1069 l 724 1069 l 724 1079 l 522 1265 z m 129 0 l 835 0 l 835 115 l 249 115 l 249 444 l 789 444 l 789 557 l 249 557 l 249 861 l 813 861 l 813 972 l 129 972 z "},"Ë":{"ha":904,"x_min":0,"x_max":0,"o":"m 254 1149 b 291 1085 254 1118 266 1097 b 365 1085 316 1073 340 1073 b 403 1150 390 1098 403 1119 b 365 1215 403 1181 390 1202 b 291 1214 340 1227 316 1227 b 254 1149 266 1201 254 1179 z m 574 1149 b 610 1084 574 1118 586 1097 b 685 1084 635 1072 660 1072 b 722 1149 710 1097 722 1118 b 699 1203 722 1172 715 1190 b 648 1224 684 1217 667 1224 b 597 1203 629 1224 612 1217 b 574 1149 581 1190 574 1172 z m 129 0 l 835 0 l 835 115 l 249 115 l 249 444 l 789 444 l 789 557 l 249 557 l 249 861 l 813 861 l 813 972 l 129 972 z "},"Ì":{"ha":381,"x_min":0,"x_max":0,"o":"m 251 1079 l 147 1256 l 7 1256 l 7 1251 l 146 1072 l 251 1072 z m 129 0 l 251 0 l 251 972 l 129 972 z "},"Í":{"ha":381,"x_min":0,"x_max":0,"o":"m 132 1078 l 132 1071 l 236 1071 l 376 1250 l 376 1254 l 236 1254 z m 251 0 l 129 0 l 129 972 l 251 972 z "},"Î":{"ha":381,"x_min":0,"x_max":0,"o":"m 154 1250 l -36 1064 l -36 1054 l 79 1054 l 189 1164 l 300 1054 l 414 1054 l 414 1064 l 224 1250 z m 129 972 l 129 0 l 251 0 l 251 972 z "},"Ï":{"ha":381,"x_min":0,"x_max":0,"o":"m -14 1136 b 24 1072 -14 1106 -1 1084 b 98 1072 49 1059 73 1059 b 135 1136 122 1084 135 1106 b 112 1191 135 1159 127 1178 b 60 1211 97 1204 79 1211 b 9 1191 41 1211 24 1204 b -14 1136 -6 1178 -14 1159 z m 243 1135 b 281 1071 243 1104 256 1083 b 355 1072 306 1059 330 1059 b 392 1136 379 1084 392 1106 b 354 1201 392 1167 379 1188 b 280 1200 329 1213 304 1213 b 243 1135 255 1187 243 1165 z m 251 -1 l 129 -1 l 129 971 l 251 971 z "},"Ð":{"ha":1047,"x_min":0,"x_max":0,"o":"m 42 533 l 42 425 l 138 425 l 138 0 l 479 0 b 701 42 562 0 636 14 b 859 155 767 69 820 107 b 949 315 898 203 928 256 b 978 501 969 373 979 436 b 844 835 976 633 931 744 b 479 972 757 927 636 972 l 138 972 l 138 533 z m 479 115 l 258 115 l 258 425 l 467 425 l 467 533 l 258 533 l 258 858 l 479 858 b 756 757 599 858 691 825 b 856 499 820 689 854 603 b 760 226 856 390 825 299 b 479 115 695 152 601 115 z "},"Ñ":{"ha":1058,"x_min":0,"x_max":0,"o":"m 351 1113 l 425 1079 b 507 1119 441 1122 468 1135 b 545 1101 512 1119 524 1113 b 585 1082 566 1090 579 1084 b 684 1087 619 1068 652 1070 b 747 1181 716 1104 737 1135 l 671 1214 b 592 1176 657 1175 631 1163 b 553 1194 587 1177 574 1183 b 515 1211 533 1204 520 1210 b 410 1203 476 1225 441 1222 b 347 1113 378 1184 357 1154 z m 129 972 l 129 0 l 254 0 l 254 732 l 846 0 l 929 0 l 929 972 l 807 972 l 807 236 l 214 972 z "},"Ò":{"ha":1124,"x_min":0,"x_max":0,"o":"m 390 1265 l 529 1086 l 633 1086 l 633 1093 l 531 1269 l 390 1269 z m 564 989 b 203 844 414 989 294 941 b 68 483 113 748 68 628 b 99 297 68 418 78 355 b 190 137 120 238 150 184 b 345 23 229 89 281 51 b 563 -19 409 -5 482 -19 b 779 23 643 -19 715 -5 b 934 137 843 51 895 89 b 1024 297 973 184 1003 238 b 1056 483 1045 356 1056 419 b 927 839 1056 621 1014 740 b 564 989 841 938 719 988 z m 935 482 b 839 210 935 376 903 286 b 564 96 775 134 683 96 b 289 210 444 96 353 134 b 190 483 225 286 192 377 b 288 764 188 594 221 688 b 565 878 354 840 447 878 b 773 818 646 877 715 857 b 899 673 831 779 873 731 b 936 483 925 615 937 552 z "},"Ó":{"ha":1125,"x_min":0,"x_max":0,"o":"m 506 1089 l 506 1082 l 610 1082 l 749 1263 l 749 1267 l 608 1267 z m 564 989 b 928 839 720 988 842 938 b 1057 482 1015 740 1058 621 b 1024 296 1056 417 1045 355 b 934 135 1003 237 973 183 b 779 22 895 88 843 50 b 563 -21 715 -7 643 -21 b 345 22 482 -21 409 -7 b 190 135 281 50 229 88 b 99 296 150 183 120 237 b 68 483 78 355 68 418 b 203 844 68 628 113 748 b 564 989 294 941 414 989 z m 190 482 b 288 208 191 375 224 284 b 563 94 351 132 443 94 b 838 208 682 94 774 132 b 935 482 901 284 934 375 b 840 758 936 589 904 681 b 564 875 775 835 683 874 b 286 761 445 875 353 837 b 189 481 219 685 187 592 z "},"Ô":{"ha":1124,"x_min":0,"x_max":0,"o":"m 539 1276 l 338 1089 l 338 1081 l 456 1081 l 575 1190 l 694 1081 l 813 1081 l 813 1089 l 611 1276 z m 68 483 b 99 297 68 418 78 355 b 190 137 120 238 150 184 b 345 23 229 89 281 51 b 563 -19 409 -5 482 -19 b 779 23 643 -19 715 -5 b 934 137 843 51 895 89 b 1024 297 973 184 1003 238 b 1056 483 1045 356 1056 419 b 927 839 1056 621 1014 740 b 564 989 841 938 719 988 b 203 844 414 989 294 941 b 68 483 113 748 68 628 z m 935 482 b 839 210 935 376 903 286 b 564 96 775 134 683 96 b 289 210 444 96 353 134 b 190 483 225 286 192 377 b 288 764 188 594 221 688 b 565 878 354 840 447 878 b 773 818 646 877 715 857 b 899 673 831 779 873 731 b 936 483 925 615 937 552 z "},"Õ":{"ha":1124,"x_min":0,"x_max":0,"o":"m 372 1128 l 446 1094 b 526 1136 461 1136 488 1150 b 566 1117 532 1135 545 1129 b 606 1099 587 1106 600 1100 b 705 1103 640 1085 673 1086 b 768 1197 737 1121 758 1152 l 692 1231 b 613 1192 678 1191 651 1178 b 574 1209 608 1193 595 1198 b 536 1226 553 1220 541 1225 b 431 1219 497 1240 462 1238 b 369 1128 400 1200 380 1169 z m 68 483 b 99 297 68 418 78 355 b 190 137 120 238 150 184 b 345 23 229 89 281 51 b 563 -19 409 -5 482 -19 b 779 23 643 -19 715 -5 b 934 137 843 51 895 89 b 1024 297 973 184 1003 238 b 1056 483 1045 356 1056 419 b 927 839 1056 621 1014 740 b 564 989 841 938 719 988 b 203 844 414 989 294 941 b 68 483 113 748 68 628 z m 935 482 b 839 210 935 376 903 286 b 564 96 775 134 683 96 b 289 210 444 96 353 134 b 190 483 225 286 192 377 b 288 764 188 594 221 688 b 565 878 354 840 447 878 b 773 818 646 877 715 857 b 899 673 831 779 873 731 b 936 483 925 615 937 552 z "},"Ö":{"ha":1125,"x_min":0,"x_max":0,"o":"m 343 1151 b 380 1087 343 1121 355 1099 b 454 1087 404 1074 429 1074 b 492 1151 479 1099 492 1121 b 469 1206 492 1175 484 1193 b 417 1226 453 1220 436 1226 b 366 1206 398 1226 381 1220 b 343 1151 351 1193 343 1175 z m 660 1150 b 697 1086 660 1119 672 1098 b 771 1087 721 1074 746 1074 b 808 1151 796 1099 808 1121 b 771 1216 808 1182 796 1203 b 697 1216 746 1228 721 1228 b 660 1150 672 1203 660 1181 z m 564 988 b 928 838 720 987 842 937 b 1057 481 1015 738 1058 619 b 1024 294 1056 416 1045 354 b 934 134 1003 235 973 182 b 779 20 895 86 843 48 b 563 -22 715 -8 643 -22 b 345 20 482 -22 409 -8 b 190 134 281 48 229 86 b 99 294 150 182 120 235 b 68 482 78 354 68 416 b 203 843 68 626 113 747 b 564 988 294 939 414 988 z m 190 481 b 288 207 191 374 224 283 b 563 93 351 131 443 93 b 838 207 682 93 774 131 b 935 481 901 283 934 374 b 840 757 936 588 904 680 b 564 874 775 834 683 873 b 286 760 445 874 353 836 b 189 479 219 684 187 590 z "},"×":{"ha":639,"x_min":0,"x_max":0,"o":"m 165 672 l 90 600 l 246 446 l 88 288 l 163 214 l 319 372 l 476 214 l 549 283 l 389 442 l 546 600 l 472 672 l 318 518 z "},"Ø":{"ha":1125,"x_min":0,"x_max":0,"o":"m 268 68 l 167 -106 l 286 -106 l 358 18 b 564 -19 420 -7 489 -19 b 781 23 644 -19 717 -5 b 935 137 844 51 896 89 b 1026 297 975 184 1005 238 b 1057 483 1047 356 1057 419 b 1008 716 1057 566 1041 643 b 868 894 976 789 929 848 l 967 1060 l 844 1060 l 779 946 b 564 990 714 975 643 990 b 347 948 483 990 411 976 b 192 834 283 920 231 882 b 101 673 152 786 122 733 b 69 485 80 613 69 550 b 120 248 69 400 86 322 b 268 69 154 174 203 115 z m 719 847 l 329 175 b 227 310 285 210 251 255 b 192 483 203 364 192 422 b 286 762 190 592 221 684 b 565 878 351 839 444 878 b 719 847 622 878 673 868 z m 418 121 l 808 792 b 936 483 894 718 936 615 b 840 211 936 378 904 287 b 565 97 776 135 685 97 b 418 121 512 97 463 105 z "},"Ù":{"ha":1029,"x_min":0,"x_max":0,"o":"m 353 1258 l 492 1079 l 596 1079 l 596 1086 l 493 1263 l 353 1263 z m 910 972 l 788 972 l 788 389 b 710 174 788 297 762 225 b 517 96 659 122 594 96 b 319 172 438 96 372 121 b 240 388 267 223 240 295 l 240 971 l 118 971 l 118 388 b 234 88 118 258 157 158 b 517 -18 311 17 406 -18 b 798 88 629 -18 722 17 b 911 388 873 159 911 259 l 911 971 z "},"Ú":{"ha":1031,"x_min":0,"x_max":0,"o":"m 449 1086 l 449 1079 l 553 1079 l 692 1258 l 692 1263 l 551 1263 z m 790 972 l 913 972 l 913 389 b 799 90 913 260 875 160 b 518 -17 724 19 630 -17 b 322 26 447 -17 381 -2 b 176 164 263 55 214 101 b 118 389 137 227 118 302 l 118 972 l 240 972 l 240 389 b 319 172 240 295 267 223 b 517 96 372 121 438 96 b 710 173 594 96 659 122 b 788 388 762 224 788 296 l 788 971 z "},"Û":{"ha":1028,"x_min":0,"x_max":0,"o":"m 479 1268 l 279 1082 l 279 1072 l 397 1072 l 515 1182 l 635 1072 l 753 1072 l 753 1082 l 553 1268 z m 910 389 l 910 972 l 788 972 l 788 389 b 710 174 788 297 762 225 b 517 96 659 122 594 96 b 319 172 438 96 372 121 b 240 388 267 223 240 295 l 240 971 l 118 971 l 118 388 b 234 88 118 258 157 158 b 517 -18 311 17 406 -18 b 798 88 629 -18 722 17 b 911 388 873 159 911 259 z "},"Ü":{"ha":1031,"x_min":0,"x_max":0,"o":"m 290 1147 b 327 1083 290 1117 303 1095 b 401 1083 352 1070 376 1070 b 439 1147 426 1095 439 1117 b 416 1202 439 1170 431 1189 b 365 1222 401 1216 384 1222 b 313 1202 346 1222 328 1216 b 290 1147 298 1189 290 1170 z m 608 1146 b 646 1082 608 1115 621 1094 b 720 1083 671 1070 696 1070 b 757 1147 745 1095 757 1117 b 720 1212 757 1178 745 1199 b 646 1211 696 1224 671 1224 b 608 1146 621 1198 608 1176 z m 790 969 l 913 969 l 913 388 b 799 88 913 259 875 159 b 518 -18 724 17 630 -18 b 322 25 447 -18 381 -4 b 176 163 263 54 214 100 b 118 388 137 225 118 300 l 118 969 l 240 969 l 240 388 b 319 171 240 294 267 222 b 517 94 372 120 438 94 b 710 172 594 94 659 120 b 788 386 762 223 788 294 l 788 968 z "},"Ý":{"ha":944,"x_min":0,"x_max":0,"o":"m 401 1082 l 401 1075 l 506 1075 l 644 1256 l 644 1258 l 506 1258 z m 533 0 l 408 0 l 408 394 l 32 968 l 32 972 l 179 972 l 471 511 l 769 972 l 917 972 l 917 968 l 533 394 z "},"Þ":{"ha":950,"x_min":0,"x_max":0,"o":"m 129 0 l 250 0 l 250 164 l 569 164 b 702 186 618 164 662 171 b 801 245 742 201 775 221 b 867 331 827 270 849 298 b 901 433 885 363 897 397 b 901 539 905 468 905 504 b 868 640 898 574 887 608 b 801 726 850 673 827 701 b 703 785 775 750 743 770 b 571 807 663 800 619 807 l 250 807 l 250 971 l 131 971 l 131 0 z m 571 275 l 251 275 l 251 693 l 571 693 b 675 670 610 693 644 685 b 744 610 706 655 729 635 b 779 528 760 586 772 559 b 779 439 787 498 787 469 b 744 358 772 409 760 382 b 675 298 729 333 706 313 b 571 275 644 283 610 275 z "},"ß":{"ha":849,"x_min":0,"x_max":0,"o":"m 104 717 l 104 0 l 224 0 l 222 717 b 273 838 224 769 241 809 b 414 882 305 867 352 882 b 550 847 467 882 512 870 b 606 726 588 823 606 783 b 571 641 606 691 594 663 b 495 598 548 619 522 605 b 406 588 468 591 438 588 l 317 588 l 317 482 l 411 482 b 597 432 484 482 546 465 b 672 271 647 399 672 345 b 568 108 672 193 638 139 b 314 117 499 77 414 80 l 314 13 b 449 -15 359 -2 404 -11 b 578 -4 494 -18 537 -14 b 686 45 619 6 655 22 b 761 138 718 68 743 99 b 789 276 780 178 789 224 b 735 443 789 339 771 395 b 571 540 700 491 645 524 b 681 609 617 551 654 574 b 722 729 709 644 722 684 b 633 923 722 814 693 879 b 411 989 574 967 500 989 b 194 919 326 989 253 966 b 104 718 134 872 104 805 z "},"à":{"ha":885,"x_min":0,"x_max":0,"o":"m 265 981 l 406 800 l 510 800 l 510 807 l 406 983 l 265 983 z m 671 0 l 781 0 l 781 686 l 669 686 l 668 561 b 563 662 644 605 609 638 b 414 697 516 685 467 697 b 162 602 313 698 229 666 b 61 343 95 538 61 451 b 161 81 61 234 94 147 b 413 -17 228 16 312 -17 b 557 19 463 -17 511 -5 b 665 122 603 42 639 77 l 668 -3 z m 419 590 b 540 563 465 590 505 581 b 621 490 575 544 602 520 b 661 392 639 461 653 428 b 661 285 669 357 669 321 b 621 188 653 250 639 217 b 540 115 602 158 575 134 b 418 88 504 97 463 88 b 243 157 349 87 290 111 b 172 339 196 203 172 264 b 243 520 172 414 196 474 b 418 589 290 566 349 589 z "},"á":{"ha":883,"x_min":0,"x_max":0,"o":"m 347 807 l 347 800 l 451 800 l 590 979 l 590 983 l 451 983 z m 779 0 l 669 0 l 667 125 b 558 22 641 80 605 45 b 413 -14 512 -2 463 -14 b 161 83 312 -15 228 17 b 61 344 94 148 61 235 b 162 603 61 453 95 539 b 414 700 229 668 313 700 b 562 665 467 700 516 688 b 667 564 608 641 643 607 l 668 689 l 779 689 l 779 3 z m 421 596 b 246 527 351 596 293 573 b 175 346 199 481 175 421 b 246 164 175 271 199 210 b 421 94 293 118 351 94 b 542 122 466 94 506 104 b 622 194 577 141 604 165 b 663 292 641 224 654 257 b 663 399 671 328 671 364 b 622 497 654 435 641 468 b 541 569 604 527 577 551 b 419 597 505 588 465 597 z "},"â":{"ha":885,"x_min":0,"x_max":0,"o":"m 204 796 l 204 786 l 322 786 l 442 897 l 561 786 l 679 786 l 679 796 l 478 983 l 406 983 z m 671 0 l 781 0 l 781 686 l 669 686 l 668 561 b 563 662 644 605 609 638 b 414 697 516 685 467 697 b 162 602 313 698 229 666 b 61 343 95 538 61 451 b 161 81 61 234 94 147 b 413 -17 228 16 312 -17 b 557 19 463 -17 511 -5 b 665 122 603 42 639 77 l 668 -3 z m 419 590 b 540 563 465 590 505 581 b 621 490 575 544 602 520 b 661 392 639 461 653 428 b 661 285 669 357 669 321 b 621 188 653 250 639 217 b 540 115 602 158 575 134 b 418 88 504 97 463 88 b 243 157 349 87 290 111 b 172 339 196 203 172 264 b 243 520 172 414 196 474 b 418 589 290 566 349 589 z "},"ã":{"ha":885,"x_min":0,"x_max":0,"o":"m 244 875 l 318 842 b 399 883 333 883 360 897 b 438 865 403 882 416 876 b 478 844 459 853 472 846 b 578 849 513 831 547 832 b 642 943 610 866 631 898 l 567 975 b 488 936 553 935 526 922 b 449 953 483 937 470 943 b 411 971 428 964 416 970 b 306 963 372 985 337 982 b 244 872 275 944 255 914 z m 671 -3 l 781 -3 l 781 683 l 669 683 l 668 558 b 563 659 644 602 609 635 b 414 694 516 683 467 694 b 162 599 313 695 229 664 b 61 340 95 535 61 449 b 161 78 61 231 94 144 b 413 -19 228 13 312 -19 b 557 16 463 -19 511 -8 b 665 119 603 40 639 74 l 668 -6 z m 419 588 b 540 560 465 588 505 578 b 621 488 575 541 602 517 b 661 390 639 458 653 425 b 661 283 669 354 669 318 b 621 185 653 247 639 214 b 540 113 602 155 575 131 b 418 85 504 94 463 85 b 243 154 349 85 290 108 b 172 336 196 200 172 261 b 243 517 172 411 196 472 b 418 586 290 563 349 586 z "},"ä":{"ha":883,"x_min":0,"x_max":0,"o":"m 217 919 b 254 855 217 889 229 867 b 328 855 279 842 304 842 b 365 919 353 867 365 889 b 342 974 365 943 358 961 b 291 994 327 988 310 994 b 240 974 272 994 255 988 b 217 919 224 961 217 943 z m 536 918 b 574 854 536 888 549 866 b 648 855 599 842 623 842 b 685 919 672 867 685 889 b 648 984 685 950 672 972 b 574 983 623 997 599 996 b 536 918 549 970 536 949 z m 779 -1 l 669 -1 l 667 124 b 558 20 641 78 605 44 b 413 -15 512 -3 463 -15 b 161 81 312 -16 228 16 b 61 343 94 147 61 234 b 162 601 61 450 95 536 b 414 697 229 665 313 697 b 562 662 467 697 516 685 b 667 561 608 638 643 605 l 668 685 l 779 685 l 779 0 z m 421 593 b 246 524 351 593 293 570 b 175 343 199 478 175 418 b 246 160 175 268 199 207 b 421 90 293 114 351 90 b 542 118 466 90 506 100 b 622 190 577 137 604 161 b 663 288 641 220 654 253 b 663 395 671 324 671 359 b 622 493 654 431 641 463 b 541 565 604 523 577 547 b 419 593 505 584 465 593 z "},"å":{"ha":885,"x_min":0,"x_max":0,"o":"m 278 919 b 323 813 278 874 293 839 b 436 775 353 788 391 775 b 551 813 481 775 520 788 b 599 919 583 839 599 874 b 550 1025 599 965 582 1000 b 436 1063 518 1050 480 1063 b 324 1024 393 1063 355 1050 b 276 919 292 999 276 964 z m 433 993 b 507 956 468 993 492 981 b 508 883 522 932 522 907 b 435 847 494 859 470 847 b 365 883 401 847 378 859 b 365 956 351 907 351 932 b 435 993 378 981 401 993 z m 671 0 l 781 0 l 781 686 l 669 686 l 668 561 b 563 662 644 605 609 638 b 414 697 516 685 467 697 b 162 602 313 698 229 666 b 61 343 95 538 61 451 b 161 81 61 234 94 147 b 413 -17 228 16 312 -17 b 557 19 463 -17 511 -5 b 665 122 603 42 639 77 l 668 -3 z m 419 590 b 540 563 465 590 505 581 b 621 490 575 544 602 520 b 661 392 639 461 653 428 b 661 285 669 357 669 321 b 621 188 653 250 639 217 b 540 115 602 158 575 134 b 418 88 504 97 463 88 b 243 157 349 87 290 111 b 172 339 196 203 172 264 b 243 520 172 414 196 474 b 418 589 290 566 349 589 z "},"æ":{"ha":1407,"x_min":0,"x_max":0,"o":"m 667 0 l 754 0 l 757 117 b 1014 -14 811 30 896 -14 b 1179 17 1070 -14 1125 -3 b 1310 108 1233 38 1276 69 l 1235 178 b 1140 115 1213 151 1181 130 b 1017 92 1098 99 1057 92 b 848 148 950 92 894 110 b 769 297 802 185 776 235 l 1351 297 b 1343 469 1361 360 1358 418 b 1272 597 1328 521 1305 564 b 1158 672 1240 629 1202 655 b 1021 699 1115 690 1069 699 b 760 567 907 700 820 656 l 760 685 l 671 685 l 669 560 b 563 660 645 603 610 637 b 413 696 516 684 466 696 b 162 601 313 697 229 665 b 61 342 95 536 61 450 b 161 80 61 232 94 145 b 413 -18 228 15 312 -18 b 559 17 463 -18 512 -6 b 668 121 606 41 642 75 l 668 -4 z m 1244 390 l 771 390 b 852 540 780 454 807 504 b 1013 594 897 576 950 594 b 1176 541 1080 594 1135 577 b 1243 389 1218 505 1240 455 z m 419 588 b 543 560 466 588 507 578 b 625 488 579 541 606 517 b 666 390 644 458 657 425 b 666 283 675 354 675 318 b 625 185 657 247 644 214 b 543 113 606 155 579 131 b 419 85 507 94 466 85 b 244 154 350 85 292 108 b 174 336 197 200 174 261 b 244 517 174 411 197 472 b 419 586 292 563 350 586 z "},"ç":{"ha":719,"x_min":0,"x_max":0,"o":"m 678 92 l 601 168 b 422 96 554 120 494 96 b 248 162 353 96 295 118 b 178 343 201 206 178 266 b 248 523 178 418 201 478 b 424 590 295 568 353 590 b 597 521 492 590 550 567 l 669 596 b 421 699 600 664 517 699 b 164 604 317 699 231 667 b 63 343 96 541 63 454 b 140 108 63 247 88 168 b 343 -6 192 47 260 9 l 310 -122 l 333 -140 b 430 -142 371 -126 403 -127 b 457 -206 456 -158 465 -179 b 381 -250 449 -235 423 -250 b 279 -201 336 -250 302 -234 l 225 -250 b 294 -311 241 -277 264 -297 b 389 -331 324 -325 356 -331 b 490 -301 427 -330 461 -320 b 547 -219 520 -282 539 -255 b 527 -116 556 -181 549 -146 b 411 -72 505 -86 467 -71 l 428 -12 b 678 93 526 -11 609 25 z "},"è":{"ha":814,"x_min":0,"x_max":0,"o":"m 261 978 l 400 797 l 504 797 l 504 804 l 401 981 l 261 981 z m 719 110 l 643 179 b 548 116 621 152 589 131 b 425 93 507 101 466 93 b 257 149 358 93 302 112 b 179 299 212 187 186 237 l 760 299 b 681 598 773 429 747 529 b 417 701 616 667 528 701 b 161 601 313 701 228 668 b 61 346 94 535 61 450 b 161 85 61 238 94 151 b 422 -12 228 20 315 -12 b 588 19 479 -12 534 -2 b 718 110 641 40 685 70 z m 651 394 l 179 394 b 260 544 188 458 215 508 b 419 599 304 581 357 599 b 585 545 488 599 543 581 b 651 393 626 509 649 459 z "},"é":{"ha":813,"x_min":0,"x_max":0,"o":"m 344 806 l 344 799 l 449 799 l 588 979 l 588 982 l 447 982 z m 758 299 l 178 299 b 256 148 184 236 210 185 b 424 92 301 110 357 92 b 547 115 464 92 505 99 b 642 178 588 130 619 151 l 718 108 b 588 17 685 69 641 38 b 422 -14 534 -3 479 -14 b 161 84 315 -14 228 19 b 61 344 94 149 61 236 b 161 600 61 448 94 533 b 415 700 228 667 313 700 b 680 597 526 700 615 666 b 758 296 745 528 771 427 z m 179 392 l 651 392 b 585 544 649 457 626 508 b 419 597 543 579 488 597 b 260 543 357 597 304 579 b 179 393 215 507 188 457 z "},"ê":{"ha":814,"x_min":0,"x_max":0,"o":"m 190 794 l 190 785 l 308 785 l 428 894 l 547 785 l 665 785 l 665 794 l 464 981 l 392 981 z m 719 110 l 643 179 b 548 116 621 152 589 131 b 425 93 507 101 466 93 b 257 149 358 93 302 112 b 179 299 212 187 186 237 l 760 299 b 681 598 773 429 747 529 b 417 701 616 667 528 701 b 161 601 313 701 228 668 b 61 346 94 535 61 450 b 161 85 61 238 94 151 b 422 -12 228 20 315 -12 b 588 19 479 -12 534 -2 b 718 110 641 40 685 70 z m 651 394 l 179 394 b 260 544 188 458 215 508 b 419 599 304 581 357 599 b 585 545 488 599 543 581 b 651 393 626 509 649 459 z "},"ë":{"ha":813,"x_min":0,"x_max":0,"o":"m 206 904 b 243 840 206 874 218 852 b 317 841 268 828 293 828 b 354 906 342 853 354 875 b 317 970 354 936 342 958 b 242 969 292 983 267 982 b 206 904 218 956 206 935 z m 501 904 b 538 840 501 874 514 852 b 613 840 563 827 588 827 b 650 904 638 852 650 874 b 627 959 650 927 642 946 b 576 979 612 972 595 979 b 524 959 557 979 540 972 b 501 904 509 946 501 927 z m 758 296 l 178 296 b 256 147 184 234 210 184 b 424 90 301 109 357 90 b 547 113 464 90 505 98 b 642 176 588 128 619 150 l 718 106 b 588 15 685 66 641 35 b 422 -17 534 -6 479 -17 b 161 81 315 -17 228 16 b 61 342 94 147 61 233 b 161 597 61 445 94 531 b 415 697 228 664 313 697 b 680 594 526 697 615 663 b 758 293 745 525 771 425 z m 179 390 l 651 390 b 585 541 649 455 626 505 b 419 594 543 577 488 594 b 260 540 357 594 304 576 b 179 390 215 504 188 454 z "},"ì":{"ha":325,"x_min":0,"x_max":0,"o":"m 29 968 l 126 786 l 224 786 l 224 793 l 154 972 l 29 972 z m 104 676 l 104 0 l 221 0 l 221 676 z "},"í":{"ha":326,"x_min":0,"x_max":0,"o":"m 103 793 l 103 786 l 200 786 l 296 968 l 296 972 l 172 972 z m 222 0 l 104 0 l 104 676 l 222 676 z "},"î":{"ha":326,"x_min":0,"x_max":0,"o":"m -17 793 l -17 783 l 85 783 l 169 886 l 253 783 l 353 783 l 353 793 l 200 975 l 140 975 z m 104 676 l 104 0 l 222 0 l 222 676 z "},"ï":{"ha":326,"x_min":0,"x_max":0,"o":"m -14 903 b 22 840 -14 873 -2 852 b 94 840 46 827 70 827 b 131 903 119 852 131 873 b 94 966 131 932 119 953 b 22 966 70 978 46 978 b -14 903 -2 953 -14 932 z m 207 903 b 243 840 207 873 219 852 b 315 840 267 827 291 827 b 351 903 339 852 351 873 b 315 966 351 932 339 953 b 243 966 291 978 267 978 b 207 903 219 953 207 932 z m 222 1 l 104 1 l 104 678 l 222 678 z "},"ð":{"ha":835,"x_min":0,"x_max":0,"o":"m 415 89 b 240 161 340 89 282 113 b 178 332 199 209 178 266 b 240 502 178 398 199 454 b 415 574 282 550 340 574 b 593 501 490 574 550 550 b 658 332 637 453 658 397 b 593 161 658 266 637 209 b 415 89 550 113 490 89 z m 379 671 b 144 562 278 664 200 628 b 61 331 89 496 61 419 b 154 88 61 237 92 156 b 415 -14 216 20 303 -14 b 674 87 524 -14 610 20 b 768 350 738 154 769 242 b 508 874 766 575 680 750 l 567 951 l 504 994 l 442 911 b 271 971 393 936 336 956 l 246 878 b 376 831 300 865 343 849 l 329 765 l 390 725 l 442 792 b 639 574 545 730 611 657 b 379 671 572 646 486 678 z "},"ñ":{"ha":844,"x_min":0,"x_max":0,"o":"m 228 878 l 301 844 b 379 885 315 884 341 898 b 420 867 385 884 398 878 b 460 847 442 856 455 849 b 560 853 495 834 528 836 b 624 943 592 869 613 900 l 549 975 b 472 939 535 939 509 927 b 433 956 467 940 453 946 b 393 974 412 967 399 973 b 288 966 354 987 319 984 b 226 879 257 948 237 919 z m 104 688 l 104 1 l 217 1 l 217 369 b 276 528 217 432 236 485 b 428 593 315 570 366 592 b 581 536 493 593 544 574 b 636 379 618 498 636 446 l 636 1 l 750 1 l 750 381 b 666 613 750 479 722 556 b 449 699 610 670 538 699 b 214 579 350 699 272 659 l 208 689 l 104 689 z "},"ò":{"ha":826,"x_min":0,"x_max":0,"o":"m 386 800 l 490 800 l 490 807 l 388 981 l 247 981 l 247 976 z m 61 342 b 160 87 61 238 94 153 b 413 -12 225 21 310 -12 b 667 87 516 -12 601 21 b 765 342 732 153 765 238 b 665 598 765 445 732 531 b 413 699 599 665 514 699 b 160 598 311 699 227 665 b 61 342 94 531 61 445 z m 651 342 b 585 164 651 269 629 210 b 413 94 540 118 483 94 b 241 164 342 94 285 118 b 175 342 197 210 175 269 b 242 523 175 415 197 475 b 414 594 287 571 344 594 b 585 522 482 594 539 570 b 653 342 630 474 653 414 z "},"ó":{"ha":825,"x_min":0,"x_max":0,"o":"m 349 794 l 451 794 l 589 968 l 589 972 l 450 972 l 349 801 z m 764 342 b 665 87 764 238 731 153 b 413 -12 600 21 515 -12 b 160 87 310 -12 225 21 b 61 342 94 153 61 238 b 160 598 61 445 94 531 b 413 699 227 665 311 699 b 665 598 514 699 599 665 b 765 342 732 531 765 445 z m 175 342 b 242 164 175 269 197 210 b 414 94 286 118 344 94 b 586 164 484 94 542 118 b 653 342 631 210 653 269 b 585 522 653 414 630 474 b 415 594 539 570 483 594 b 244 523 346 594 289 571 b 176 342 199 475 176 415 z "},"ô":{"ha":825,"x_min":0,"x_max":0,"o":"m 381 982 l 179 796 l 179 786 l 297 786 l 417 896 l 536 786 l 654 786 l 654 796 l 453 982 z m 764 342 b 665 87 764 238 731 153 b 413 -12 600 21 515 -12 b 160 87 310 -12 225 21 b 61 342 94 153 61 238 b 160 598 61 445 94 531 b 413 699 227 665 311 699 b 665 598 514 699 599 665 b 765 342 732 531 765 445 z m 175 342 b 242 164 175 269 197 210 b 414 94 286 118 344 94 b 586 164 484 94 542 118 b 653 342 631 210 653 269 b 585 522 653 414 630 474 b 415 594 539 570 483 594 b 244 523 346 594 289 571 b 176 342 199 475 176 415 z "},"õ":{"ha":825,"x_min":0,"x_max":0,"o":"m 221 871 l 294 838 b 379 879 310 879 338 893 b 417 862 384 878 397 872 b 457 843 438 851 451 845 b 556 847 491 829 524 831 b 619 940 588 864 609 895 l 543 972 b 468 933 530 934 505 921 b 427 951 463 934 449 940 b 386 968 405 961 392 967 b 281 960 347 981 312 978 b 219 872 250 942 230 913 z m 61 343 b 160 88 61 239 94 154 b 413 -11 225 22 310 -11 b 667 88 516 -11 601 22 b 765 343 732 154 765 239 b 665 599 765 447 732 532 b 413 700 599 666 514 700 b 160 599 311 700 227 666 b 61 343 94 532 61 447 z m 651 343 b 585 165 651 271 629 212 b 413 96 540 119 483 96 b 241 165 342 96 285 119 b 175 343 197 212 175 271 b 242 524 175 416 197 477 b 414 596 287 572 344 596 b 585 524 482 596 539 572 b 653 343 630 475 653 415 z "},"ö":{"ha":825,"x_min":0,"x_max":0,"o":"m 196 896 b 233 831 196 865 208 844 b 308 831 258 819 283 819 b 344 896 332 844 344 865 b 322 951 344 919 337 937 b 270 971 306 964 289 971 b 219 951 251 971 234 964 b 196 896 203 937 196 919 z m 488 894 b 524 831 488 864 500 843 b 599 831 549 819 574 819 b 636 896 624 844 636 865 b 599 960 636 926 624 948 b 524 960 574 973 549 973 b 488 894 500 947 488 925 z m 764 340 b 665 85 764 237 731 152 b 413 -14 600 19 515 -14 b 160 85 310 -14 225 19 b 61 340 94 152 61 237 b 160 597 61 444 94 529 b 413 697 227 664 311 697 b 665 597 514 697 599 664 b 765 340 732 529 765 444 z m 175 340 b 242 163 175 268 197 209 b 414 93 286 116 344 93 b 586 163 484 93 542 116 b 653 340 631 209 653 268 b 585 521 653 413 630 473 b 415 593 539 569 483 593 b 244 522 346 593 289 569 b 176 340 199 474 176 413 z "},"÷":{"ha":783,"x_min":0,"x_max":0,"o":"m 319 688 b 357 623 319 657 332 635 b 431 623 382 610 407 610 b 468 688 456 635 468 657 b 445 742 468 711 460 729 b 394 763 430 756 413 763 b 342 742 375 763 358 756 b 319 688 327 729 319 711 z m 97 401 l 97 514 l 686 514 l 686 401 z m 319 221 b 357 156 319 190 332 169 b 431 156 382 144 407 144 b 468 221 456 169 468 190 b 445 276 468 244 460 262 b 394 296 430 289 413 296 b 342 276 375 296 358 289 b 319 221 327 262 319 244 z "},"ø":{"ha":825,"x_min":0,"x_max":0,"o":"m 193 58 l 110 -82 l 219 -82 l 275 13 b 413 -12 317 -4 363 -12 b 667 87 516 -12 601 21 b 765 342 732 153 765 238 b 638 622 765 461 723 555 l 717 757 l 606 757 l 554 669 b 413 699 511 689 463 699 b 160 598 311 699 227 665 b 61 342 94 531 61 445 b 193 58 61 219 105 124 z m 500 576 l 251 158 b 175 343 200 204 175 265 b 242 524 175 416 197 477 b 414 596 287 572 344 596 b 503 578 444 596 474 590 z m 336 110 l 582 524 b 654 343 630 475 654 415 b 588 165 654 271 632 212 b 415 96 543 119 486 96 b 336 110 385 96 358 100 z "},"ù":{"ha":846,"x_min":0,"x_max":0,"o":"m 256 969 l 394 789 l 499 789 l 499 796 l 394 974 l 256 974 z m 636 0 l 742 0 l 742 686 l 628 686 l 628 318 b 569 160 628 255 608 202 b 417 94 529 117 479 95 b 264 151 352 94 301 113 b 208 308 227 189 208 242 l 208 686 l 94 686 l 94 307 b 177 74 94 209 122 131 b 393 -11 232 17 304 -11 b 632 110 494 -9 574 31 l 638 0 z "},"ú":{"ha":844,"x_min":0,"x_max":0,"o":"m 356 796 l 356 789 l 460 789 l 599 969 l 599 974 l 458 974 z m 740 686 l 740 0 l 635 0 l 629 110 b 392 -11 573 31 494 -9 b 177 74 304 -11 232 17 b 94 307 122 131 94 209 l 94 686 l 208 686 l 208 308 b 264 151 208 242 227 189 b 417 96 301 113 352 95 b 569 162 479 97 529 119 b 628 321 608 205 628 258 l 628 689 l 742 689 z "},"û":{"ha":846,"x_min":0,"x_max":0,"o":"m 193 792 l 193 783 l 310 783 l 426 890 l 543 783 l 660 783 l 660 792 l 463 975 l 390 975 z m 636 0 l 742 0 l 742 686 l 628 686 l 628 318 b 569 160 628 255 608 202 b 417 94 529 117 479 95 b 264 151 352 94 301 113 b 208 308 227 189 208 242 l 208 686 l 94 686 l 94 307 b 177 74 94 209 122 131 b 393 -11 232 17 304 -11 b 632 110 494 -9 574 31 l 638 0 z "},"ü":{"ha":844,"x_min":0,"x_max":0,"o":"m 193 907 b 231 843 193 876 206 855 b 305 844 256 831 280 831 b 342 908 329 856 342 878 b 304 973 342 939 329 960 b 230 972 279 985 254 985 b 193 907 205 959 193 938 z m 511 907 b 549 842 511 876 524 855 b 623 842 574 830 598 830 b 660 907 647 855 660 876 b 637 962 660 930 652 948 b 585 982 622 975 604 982 b 534 962 566 982 549 975 b 511 907 519 948 511 930 z m 740 685 l 740 -3 l 635 -3 l 629 108 b 392 -12 573 30 494 -11 b 177 73 304 -12 232 16 b 94 306 122 130 94 207 l 94 685 l 208 685 l 208 307 b 264 149 208 240 227 188 b 417 93 301 111 352 92 b 569 159 479 94 529 116 b 628 318 608 202 628 255 l 628 686 l 742 686 z "},"ý":{"ha":765,"x_min":0,"x_max":0,"o":"m 311 803 l 311 796 l 413 796 l 549 969 l 549 974 l 411 974 z m 606 686 l 731 686 l 297 -324 l 174 -324 l 317 10 l 42 686 l 171 686 l 306 329 l 379 133 l 454 328 z "},"þ":{"ha":885,"x_min":0,"x_max":0,"o":"m 106 -286 l 218 -286 l 218 129 b 328 22 245 82 281 46 b 475 -15 374 -3 423 -15 b 725 78 577 -15 660 16 b 822 342 790 141 822 229 b 726 601 822 452 790 538 b 481 697 663 663 581 695 b 326 658 426 697 375 684 b 217 553 278 632 242 597 l 217 969 l 104 969 l 104 -287 z m 467 94 b 296 165 399 94 342 118 b 226 340 250 213 226 271 b 295 516 226 411 249 469 b 467 586 341 563 398 586 b 640 522 536 586 594 565 b 708 342 685 480 708 419 b 640 159 708 263 685 202 b 467 94 594 116 536 94 z "},"ÿ":{"ha":765,"x_min":0,"x_max":0,"o":"m 168 907 b 204 844 168 877 180 856 b 276 844 228 831 252 831 b 313 907 300 856 313 877 b 276 971 313 938 300 959 b 204 971 252 983 228 983 b 168 907 180 959 168 938 z m 481 907 b 517 844 481 877 493 856 b 589 844 541 831 565 831 b 625 907 613 856 625 877 b 589 971 625 938 613 959 b 517 971 565 983 541 983 b 481 907 493 959 481 938 z m 606 686 l 731 686 l 297 -324 l 174 -324 l 317 10 l 42 686 l 171 686 l 306 329 l 379 133 l 454 328 z "},"Ā":{"ha":1056,"x_min":0,"x_max":0,"o":"m 460 972 l 24 0 l 156 0 l 250 214 l 806 214 l 901 0 l 1032 0 l 596 972 z m 758 325 l 297 325 l 528 850 z m 289 1183 l 289 1085 l 753 1085 l 753 1183 z "},"ā":{"ha":885,"x_min":0,"x_max":0,"o":"m 671 0 l 781 0 l 781 686 l 669 686 l 668 561 b 563 662 644 605 609 638 b 414 697 516 685 467 697 b 162 602 313 698 229 666 b 61 343 95 538 61 451 b 161 81 61 234 94 147 b 413 -17 228 16 312 -17 b 557 19 463 -17 511 -5 b 665 122 603 42 639 77 l 668 -3 z m 419 590 b 540 563 465 590 505 581 b 621 490 575 544 602 520 b 661 392 639 461 653 428 b 661 285 669 357 669 321 b 621 188 653 250 639 217 b 540 115 602 158 575 134 b 418 88 504 97 463 88 b 243 157 349 87 290 111 b 172 339 196 203 172 264 b 243 520 172 414 196 474 b 418 589 290 566 349 589 z m 213 954 l 213 856 l 676 856 l 676 954 z "},"Ă":{"ha":1056,"x_min":0,"x_max":0,"o":"m 717 1254 l 624 1254 b 599 1184 624 1226 616 1203 b 526 1156 583 1165 559 1156 b 451 1183 492 1156 467 1165 b 426 1254 434 1202 426 1225 l 333 1254 b 383 1117 331 1196 347 1150 b 524 1068 419 1084 466 1068 b 663 1117 580 1068 626 1084 b 713 1254 699 1150 715 1196 z m 460 972 l 24 0 l 156 0 l 250 214 l 806 214 l 901 0 l 1032 0 l 596 972 z m 758 325 l 297 325 l 528 850 z "},"ă":{"ha":885,"x_min":0,"x_max":0,"o":"m 635 978 l 542 978 b 517 908 542 950 534 927 b 444 879 501 889 477 879 b 369 907 410 879 385 888 b 344 978 353 925 344 949 l 251 978 b 301 841 249 919 265 874 b 442 792 338 808 384 792 b 582 841 499 792 546 808 b 632 978 618 874 635 919 z m 671 0 l 781 0 l 781 686 l 669 686 l 668 561 b 563 662 644 605 609 638 b 414 697 516 685 467 697 b 162 602 313 698 229 666 b 61 343 95 538 61 451 b 161 81 61 234 94 147 b 413 -17 228 16 312 -17 b 557 19 463 -17 511 -5 b 665 122 603 42 639 77 l 668 -3 z m 419 590 b 540 563 465 590 505 581 b 621 490 575 544 602 520 b 661 392 639 461 653 428 b 661 285 669 357 669 321 b 621 188 653 250 639 217 b 540 115 602 158 575 134 b 418 88 504 97 463 88 b 243 157 349 87 290 111 b 172 339 196 203 172 264 b 243 520 172 414 196 474 b 418 589 290 566 349 589 z "},"Ą":{"ha":1057,"x_min":0,"x_max":0,"o":"m 1033 -1 l 596 972 l 460 972 l 24 0 l 154 0 l 249 214 l 808 214 l 879 60 b 791 24 844 54 815 42 b 742 -37 767 6 751 -14 b 735 -107 734 -59 731 -83 b 763 -172 738 -131 748 -153 b 826 -217 777 -192 798 -207 b 919 -228 853 -228 884 -231 b 1075 -136 994 -219 1046 -189 l 1013 -93 b 913 -146 986 -126 952 -144 b 836 -117 876 -148 851 -138 b 836 -50 821 -97 821 -74 b 915 -4 851 -26 877 -11 b 1033 -4 945 0 984 0 z m 760 324 l 297 324 l 528 849 z "},"ą":{"ha":885,"x_min":0,"x_max":0,"o":"m 781 -53 l 781 686 l 669 686 l 668 561 b 563 662 644 605 609 638 b 414 697 516 685 467 697 b 162 602 313 698 229 666 b 61 343 95 538 61 451 b 161 81 61 234 94 147 b 413 -17 228 16 312 -17 b 557 19 463 -17 511 -5 b 665 122 603 42 639 77 l 671 -1 b 561 -72 619 -16 582 -40 b 538 -169 540 -105 532 -137 b 593 -251 544 -204 563 -231 b 707 -279 624 -271 662 -280 b 803 -253 741 -278 773 -270 b 871 -186 832 -237 855 -215 l 808 -143 b 706 -196 781 -178 747 -196 b 653 -182 684 -196 667 -191 b 628 -147 639 -173 631 -161 b 664 -76 620 -118 632 -94 b 779 -56 695 -58 734 -51 z m 421 590 b 542 563 466 590 506 581 b 622 490 577 544 604 520 b 663 392 641 461 654 428 b 663 285 671 357 671 321 b 622 188 654 250 641 217 b 541 115 604 158 577 134 b 419 88 505 97 465 88 b 244 157 350 87 292 111 b 174 339 197 203 174 264 b 244 520 174 414 197 474 b 419 589 292 566 350 589 z "},"Ć":{"ha":983,"x_min":0,"x_max":0,"o":"m 497 1092 l 497 1085 l 600 1085 l 736 1260 l 736 1264 l 599 1264 z m 853 213 l 938 129 b 576 -17 840 32 720 -17 b 202 127 414 -17 290 31 b 69 479 115 223 70 340 b 122 725 69 568 86 650 b 294 912 158 800 216 862 b 576 986 373 961 467 986 b 932 840 715 986 834 938 l 849 763 b 576 871 775 835 685 871 b 290 757 452 871 357 833 b 190 481 222 681 189 589 b 292 208 192 373 226 282 b 576 97 357 134 452 97 b 854 210 685 97 777 135 z "},"ć":{"ha":718,"x_min":0,"x_max":0,"o":"m 336 819 l 336 813 l 428 813 l 549 969 l 549 972 l 428 972 z m 600 168 l 676 92 b 419 -12 606 22 520 -12 b 164 83 318 -12 232 19 b 61 343 95 146 61 233 b 163 603 61 453 95 540 b 419 697 231 666 317 697 b 668 594 516 697 599 663 l 596 519 b 422 589 549 566 491 589 b 245 522 351 589 292 566 b 175 340 198 477 175 416 b 245 158 175 263 198 202 b 419 92 292 114 350 92 b 599 163 492 92 551 115 z "},"Ĉ":{"ha":986,"x_min":0,"x_max":0,"o":"m 532 1275 l 335 1092 l 335 1083 l 451 1083 l 567 1190 l 685 1083 l 801 1083 l 801 1092 l 604 1275 z m 939 129 l 854 213 b 578 100 779 138 687 100 b 293 210 454 100 359 137 b 192 482 227 284 194 375 b 291 758 191 590 224 682 b 578 872 358 834 454 872 b 850 764 686 872 777 836 l 933 842 b 578 988 834 939 716 988 b 296 913 469 988 375 963 b 124 726 217 864 160 801 b 71 481 88 651 70 569 b 203 128 72 342 116 224 b 578 -15 291 33 416 -15 b 939 129 721 -15 842 33 z "},"ĉ":{"ha":717,"x_min":0,"x_max":0,"o":"m 375 989 l 185 811 l 185 803 l 299 803 l 410 907 l 522 803 l 635 803 l 635 811 l 444 989 z m 676 92 l 600 168 b 421 96 553 120 493 96 b 247 162 351 96 293 118 b 176 343 200 206 176 266 b 247 523 176 418 200 478 b 422 590 293 568 352 590 b 596 521 491 590 549 567 l 668 596 b 419 699 599 664 516 699 b 163 604 316 699 230 667 b 61 343 95 541 61 454 b 164 83 61 233 95 146 b 419 -12 232 19 318 -12 b 675 93 519 -12 605 23 z "},"Ċ":{"ha":983,"x_min":0,"x_max":0,"o":"m 500 1161 b 537 1097 500 1131 512 1109 b 610 1098 561 1085 586 1085 b 646 1163 634 1110 646 1132 b 610 1226 646 1193 634 1214 b 537 1226 586 1238 561 1238 b 500 1161 512 1213 500 1192 z m 853 213 l 938 129 b 576 -17 840 32 720 -17 b 202 127 414 -17 290 31 b 69 479 115 223 70 340 b 122 725 69 568 86 650 b 294 912 158 800 216 862 b 576 986 373 961 467 986 b 932 840 715 986 834 938 l 849 763 b 576 871 775 835 685 871 b 290 757 452 871 357 833 b 190 481 222 681 189 589 b 292 208 192 373 226 282 b 576 97 357 134 452 97 b 854 210 685 97 777 135 z "},"ċ":{"ha":718,"x_min":0,"x_max":0,"o":"m 343 901 b 365 849 343 879 350 862 b 414 831 380 837 396 831 b 463 849 431 831 448 837 b 485 901 477 862 485 879 b 463 953 485 924 477 941 b 414 972 448 966 431 972 b 365 953 396 972 380 966 b 343 901 350 941 343 924 z m 600 168 l 676 92 b 419 -12 606 22 520 -12 b 164 83 318 -12 232 19 b 61 343 95 146 61 233 b 163 603 61 453 95 540 b 419 697 231 666 317 697 b 668 594 516 697 599 663 l 596 521 b 422 589 548 566 490 589 b 245 522 351 589 292 566 b 175 340 198 477 175 416 b 245 158 175 263 198 202 b 419 92 292 114 350 92 b 599 163 492 92 551 115 z "},"Č":{"ha":986,"x_min":0,"x_max":0,"o":"m 336 1253 l 529 1079 l 600 1079 l 794 1253 l 794 1263 l 683 1263 l 565 1157 l 451 1263 l 336 1263 z m 939 129 l 854 213 b 578 100 779 138 687 100 b 293 210 454 100 359 137 b 192 482 227 284 194 375 b 291 758 191 590 224 682 b 578 872 358 834 454 872 b 850 764 686 872 777 836 l 933 842 b 578 988 834 939 716 988 b 296 913 469 988 375 963 b 124 726 217 864 160 801 b 71 481 88 651 70 569 b 203 128 72 342 116 224 b 578 -15 291 33 416 -15 b 939 129 721 -15 842 33 z "},"č":{"ha":717,"x_min":0,"x_max":0,"o":"m 189 964 l 372 793 l 440 793 l 628 964 l 628 974 l 521 974 l 407 869 l 297 974 l 189 974 z m 676 92 l 600 168 b 421 96 553 120 493 96 b 247 162 351 96 293 118 b 176 343 200 206 176 266 b 247 523 176 418 200 478 b 422 590 293 568 352 590 b 596 521 491 590 549 567 l 668 596 b 419 699 599 664 516 699 b 163 604 316 699 230 667 b 61 343 95 541 61 454 b 164 83 61 233 95 146 b 419 -12 232 19 318 -12 b 675 93 519 -12 605 23 z "},"Ď":{"ha":1042,"x_min":0,"x_max":0,"o":"m 224 1250 l 417 1072 l 486 1072 l 681 1250 l 681 1260 l 569 1260 l 451 1153 l 338 1260 l 224 1260 z m 129 972 l 129 0 l 483 0 b 703 42 565 0 638 14 b 858 156 768 71 819 109 b 946 315 897 204 926 257 b 972 497 965 372 974 433 b 940 674 971 559 960 618 b 851 825 919 729 889 780 b 698 933 812 870 761 906 b 483 974 634 960 563 974 l 129 974 z m 483 121 l 250 121 l 250 857 l 483 857 b 753 751 600 857 690 822 b 850 499 816 681 848 597 b 816 318 852 434 841 374 b 693 178 791 263 750 216 b 483 121 636 140 566 121 z "},"ď":{"ha":883,"x_min":0,"x_max":0,"o":"m 900 972 l 840 732 l 928 732 l 1013 972 z m 778 972 l 665 972 l 665 561 b 558 663 642 606 606 640 b 408 699 510 687 460 699 b 160 605 307 699 225 667 b 63 343 95 542 63 455 b 160 83 63 233 95 146 b 410 -12 226 19 309 -12 b 558 23 463 -12 512 -1 b 667 126 603 47 640 81 l 672 1 l 779 1 l 779 974 z m 417 593 b 591 524 486 593 544 570 b 661 346 638 477 661 418 b 592 165 661 272 638 212 b 418 96 545 119 488 96 b 245 163 349 96 291 118 b 176 344 199 207 176 268 b 245 527 176 422 199 483 b 418 593 291 571 349 593 z "},"Đ":{"ha":1050,"x_min":0,"x_max":0,"o":"m 49 540 l 49 436 l 138 436 l 138 0 l 492 0 b 711 42 573 0 646 14 b 867 156 776 71 828 109 b 954 315 906 204 935 257 b 981 497 974 372 982 433 b 948 674 980 559 969 618 b 859 825 927 729 897 780 b 706 933 821 870 770 906 b 492 974 643 960 571 974 l 138 974 l 138 542 l 49 542 z m 492 121 l 258 121 l 258 438 l 438 438 l 438 542 l 258 542 l 258 857 l 492 857 b 761 751 608 857 698 822 b 858 499 824 681 856 597 b 824 318 860 434 849 374 b 701 178 800 263 759 216 b 492 121 644 140 574 121 z "},"đ":{"ha":883,"x_min":0,"x_max":0,"o":"m 778 972 l 665 972 l 665 878 l 518 878 l 518 794 l 665 794 l 665 561 b 558 663 642 606 606 640 b 408 699 510 687 460 699 b 160 605 307 699 225 667 b 63 343 95 542 63 455 b 160 83 63 233 95 146 b 410 -12 226 19 309 -12 b 558 23 463 -12 512 -1 b 667 126 603 47 640 81 l 672 1 l 779 1 l 779 796 l 875 796 l 875 879 l 779 879 l 779 974 z m 417 593 b 591 524 486 593 544 570 b 661 346 638 477 661 418 b 592 165 661 272 638 212 b 418 96 545 119 488 96 b 245 163 349 96 291 118 b 176 344 199 207 176 268 b 245 527 176 422 199 483 b 418 593 291 571 349 593 z "},"Ē":{"ha":904,"x_min":0,"x_max":0,"o":"m 129 0 l 835 0 l 835 115 l 249 115 l 249 444 l 789 444 l 789 557 l 249 557 l 249 861 l 813 861 l 813 972 l 129 972 z m 249 1189 l 249 1090 l 713 1090 l 713 1189 z "},"ē":{"ha":814,"x_min":0,"x_max":0,"o":"m 200 969 l 200 876 l 633 876 l 633 969 z m 719 110 l 643 179 b 548 116 621 152 589 131 b 425 93 507 101 466 93 b 257 149 358 93 302 112 b 179 299 212 187 186 237 l 760 299 b 681 598 773 429 747 529 b 417 701 616 667 528 701 b 161 601 313 701 228 668 b 61 346 94 535 61 450 b 161 85 61 238 94 151 b 422 -12 228 20 315 -12 b 588 19 479 -12 534 -2 b 718 110 641 40 685 70 z m 651 394 l 179 394 b 260 544 188 458 215 508 b 419 599 304 581 357 599 b 585 545 488 599 543 581 b 651 393 626 509 649 459 z "},"Ĕ":{"ha":904,"x_min":0,"x_max":0,"o":"m 685 1253 l 590 1253 b 566 1184 590 1225 582 1202 b 493 1157 550 1166 525 1157 b 419 1184 460 1157 435 1166 b 394 1253 403 1202 394 1225 l 300 1253 b 350 1120 297 1196 314 1152 b 492 1072 386 1088 433 1072 b 633 1120 549 1072 596 1088 b 683 1253 669 1152 686 1196 z m 129 0 l 835 0 l 835 115 l 249 115 l 249 444 l 789 444 l 789 557 l 249 557 l 249 861 l 813 861 l 813 972 l 129 972 z "},"ĕ":{"ha":814,"x_min":0,"x_max":0,"o":"m 610 976 l 515 978 b 491 908 515 950 507 927 b 418 881 475 890 450 881 b 344 908 385 881 360 890 b 319 976 328 926 319 949 l 226 976 b 278 844 225 920 242 876 b 419 796 314 812 361 796 b 560 844 477 796 524 812 b 610 976 596 876 613 920 z m 719 108 l 643 178 b 548 115 621 151 589 130 b 425 92 507 99 466 92 b 257 148 358 92 302 110 b 179 297 212 185 186 235 l 760 297 b 681 598 773 429 747 529 b 417 701 616 667 528 701 b 161 601 313 701 228 668 b 61 346 94 535 61 450 b 161 84 61 237 94 149 b 422 -14 228 19 315 -14 b 588 17 479 -14 534 -3 b 718 108 641 38 685 69 z m 651 393 l 179 393 b 260 544 188 458 215 508 b 419 599 304 581 357 599 b 585 545 488 599 543 581 b 651 393 626 509 649 459 z "},"Ė":{"ha":904,"x_min":0,"x_max":0,"o":"m 414 1151 b 452 1088 414 1121 427 1100 b 528 1088 478 1075 503 1075 b 567 1151 554 1100 567 1121 b 528 1215 567 1182 554 1203 b 452 1215 503 1227 478 1227 b 414 1151 427 1203 414 1182 z m 129 0 l 835 0 l 835 115 l 249 115 l 249 444 l 789 444 l 789 557 l 249 557 l 249 861 l 813 861 l 813 972 l 129 972 z "},"ė":{"ha":813,"x_min":0,"x_max":0,"o":"m 344 915 b 368 863 344 893 352 876 b 420 844 384 851 401 844 b 472 863 439 844 456 851 b 496 915 488 876 496 893 b 472 967 496 938 488 955 b 420 986 456 980 439 986 b 368 967 401 986 384 980 b 344 915 352 955 344 938 z m 758 299 l 178 299 b 256 148 184 236 210 185 b 424 92 301 110 357 92 b 547 115 464 92 505 99 b 642 178 588 130 619 151 l 718 108 b 588 17 685 69 641 38 b 422 -14 534 -3 479 -14 b 161 84 315 -14 228 19 b 61 344 94 149 61 236 b 161 600 61 448 94 533 b 415 700 228 667 313 700 b 680 597 526 700 615 666 b 758 296 745 528 771 427 z m 179 392 l 651 392 b 585 544 649 457 626 508 b 419 597 543 579 488 597 b 260 543 357 597 304 579 b 179 393 215 507 188 457 z "},"Ę":{"ha":906,"x_min":0,"x_max":0,"o":"m 835 0 l 835 114 l 249 114 l 249 446 l 790 446 l 790 557 l 249 557 l 249 858 l 814 858 l 814 972 l 129 972 l 129 0 l 633 0 b 569 -63 602 -16 580 -37 b 560 -140 557 -90 554 -115 b 615 -216 566 -172 584 -197 b 725 -242 645 -235 681 -244 b 828 -211 761 -240 795 -230 b 901 -137 860 -193 885 -168 l 836 -94 b 726 -147 808 -130 772 -147 b 656 -104 688 -147 664 -133 b 694 -32 648 -79 661 -55 b 839 1 727 -9 775 2 z "},"ę":{"ha":814,"x_min":0,"x_max":0,"o":"m 765 -114 l 703 -71 b 597 -122 675 -105 640 -122 b 522 -82 560 -122 535 -109 b 523 -28 514 -63 514 -46 b 568 11 532 -11 547 2 b 717 110 630 33 680 66 l 640 179 b 545 116 618 152 586 131 b 422 93 504 101 463 93 b 254 149 356 93 300 112 b 176 299 209 187 183 237 l 757 299 b 678 598 770 429 744 529 b 414 701 613 667 525 701 b 158 601 310 701 225 668 b 58 346 92 535 58 450 b 157 91 58 240 91 155 b 415 -10 223 27 309 -7 b 446 -7 425 -10 435 -9 b 435 -131 418 -46 414 -87 b 492 -190 445 -156 464 -176 b 592 -208 521 -204 554 -210 b 690 -180 626 -206 659 -197 b 761 -111 722 -163 745 -140 z m 647 397 l 175 397 b 256 547 184 461 211 511 b 415 601 300 583 353 601 b 581 548 484 601 539 584 b 647 396 622 512 644 462 z "},"Ě":{"ha":904,"x_min":0,"x_max":0,"o":"m 242 1243 l 439 1067 l 510 1067 l 710 1243 l 710 1253 l 594 1253 l 475 1146 l 358 1253 l 242 1253 z m 129 0 l 835 0 l 835 115 l 249 115 l 249 444 l 789 444 l 789 557 l 249 557 l 249 861 l 813 861 l 813 972 l 129 972 z "},"ě":{"ha":814,"x_min":0,"x_max":0,"o":"m 185 964 l 383 788 l 456 788 l 656 964 l 656 974 l 540 974 l 419 868 l 303 974 l 185 974 z m 719 110 l 643 179 b 548 116 621 152 589 131 b 425 93 507 101 466 93 b 257 149 358 93 302 112 b 179 299 212 187 186 237 l 760 299 b 681 598 773 429 747 529 b 417 701 616 667 528 701 b 161 601 313 701 228 668 b 61 346 94 535 61 450 b 161 85 61 238 94 151 b 422 -12 228 20 315 -12 b 588 19 479 -12 534 -2 b 718 110 641 40 685 70 z m 651 394 l 179 394 b 260 544 188 458 215 508 b 419 599 304 581 357 599 b 585 545 488 599 543 581 b 651 393 626 509 649 459 z "},"Ĝ":{"ha":1031,"x_min":0,"x_max":0,"o":"m 519 1274 l 322 1090 l 322 1082 l 439 1082 l 554 1189 l 669 1082 l 786 1082 l 786 1090 l 590 1274 z m 950 149 l 950 533 l 538 533 l 538 424 l 836 424 l 836 196 b 575 99 761 131 674 99 b 288 209 450 99 354 135 b 189 479 222 283 189 373 b 292 763 189 591 223 686 b 576 879 361 841 456 879 b 728 850 627 879 678 869 b 860 767 779 831 823 803 l 935 846 b 578 992 837 943 718 992 b 208 847 423 992 300 943 b 72 478 117 750 71 627 b 103 290 72 411 83 348 b 195 132 124 231 155 178 b 355 22 235 86 289 49 b 579 -18 421 -5 496 -18 b 956 147 727 -18 853 37 z "},"ĝ":{"ha":849,"x_min":0,"x_max":0,"o":"m 390 990 l 193 813 l 193 804 l 311 804 l 425 908 l 542 804 l 658 804 l 658 813 l 463 990 z m 696 585 l 774 676 l 693 740 l 619 651 b 425 703 570 686 506 703 b 172 613 329 703 244 673 b 63 363 99 552 63 469 b 162 114 63 257 96 174 b 425 24 228 54 316 24 b 597 -19 494 24 551 9 b 665 -142 642 -48 665 -89 b 594 -260 665 -194 641 -233 b 424 -300 546 -287 489 -300 b 252 -251 356 -299 299 -283 b 183 -117 205 -219 182 -174 l 71 -117 b 166 -331 69 -207 101 -279 b 422 -410 231 -384 317 -410 b 675 -339 520 -410 605 -386 b 781 -142 745 -292 781 -226 b 733 -5 781 -90 765 -44 b 588 82 701 34 652 63 b 734 189 651 102 700 138 b 785 361 768 240 785 297 b 696 583 785 443 755 517 z m 671 363 b 601 195 671 296 648 240 b 424 128 555 150 496 128 b 245 189 351 128 292 148 b 175 363 198 230 175 288 b 249 535 175 438 200 495 b 425 596 299 576 357 596 b 601 534 494 596 553 575 b 674 361 650 493 674 435 z "},"Ğ":{"ha":1035,"x_min":0,"x_max":0,"o":"m 767 1261 l 671 1261 b 646 1194 671 1234 663 1212 b 571 1168 629 1177 604 1168 b 495 1196 537 1169 511 1178 b 471 1263 479 1213 471 1236 l 376 1263 b 427 1133 374 1207 391 1164 b 569 1086 464 1102 511 1086 b 712 1133 628 1086 675 1102 b 763 1264 748 1165 765 1208 z m 860 769 l 935 849 b 578 994 837 946 718 994 b 208 849 423 994 300 946 b 72 481 117 753 71 630 b 103 292 72 414 83 351 b 195 135 124 234 155 181 b 355 25 235 88 289 52 b 579 -15 421 -2 496 -15 b 956 150 727 -15 853 40 l 956 535 l 543 535 l 543 425 l 842 425 l 842 197 b 581 100 767 132 680 100 b 294 210 456 100 360 137 b 194 481 228 284 194 374 b 298 765 194 593 229 687 b 582 881 367 842 462 881 b 734 851 633 881 684 871 b 865 768 784 832 828 804 z "},"ğ":{"ha":849,"x_min":0,"x_max":0,"o":"m 619 986 l 526 986 b 502 917 526 958 518 935 b 429 889 486 898 462 889 b 355 917 396 889 371 898 b 331 986 339 935 331 958 l 238 986 b 289 850 236 928 253 882 b 429 801 325 818 372 801 b 568 851 486 801 532 818 b 618 986 604 884 621 929 z m 696 585 l 774 676 l 693 740 l 619 651 b 425 703 570 686 506 703 b 172 613 329 703 244 673 b 63 363 99 552 63 469 b 162 114 63 257 96 174 b 425 24 228 54 316 24 b 597 -19 494 24 551 9 b 665 -142 642 -48 665 -89 b 594 -260 665 -194 641 -233 b 424 -300 546 -287 489 -300 b 252 -251 356 -299 299 -283 b 183 -117 205 -219 182 -174 l 71 -117 b 166 -331 69 -207 101 -279 b 422 -410 231 -384 317 -410 b 675 -339 520 -410 605 -386 b 781 -142 745 -292 781 -226 b 733 -5 781 -90 765 -44 b 588 82 701 34 652 63 b 734 189 651 102 700 138 b 785 361 768 240 785 297 b 696 583 785 443 755 517 z m 175 363 b 249 535 175 438 200 495 b 425 596 299 576 357 596 b 601 534 494 596 553 575 b 674 361 650 493 674 435 b 604 194 674 294 650 239 b 426 126 558 149 499 126 b 248 188 354 126 295 147 b 178 361 201 228 178 286 z "},"Ġ":{"ha":1033,"x_min":0,"x_max":0,"o":"m 497 1157 b 521 1105 497 1135 505 1117 b 573 1086 537 1092 554 1086 b 625 1105 592 1086 609 1092 b 649 1157 641 1117 649 1135 b 625 1209 649 1179 641 1197 b 573 1228 609 1222 592 1228 b 521 1209 554 1228 537 1222 b 497 1157 505 1197 497 1179 z m 933 844 l 858 765 b 728 849 822 801 779 829 b 576 879 678 869 627 879 b 292 763 456 879 361 841 b 190 479 223 686 189 591 b 290 208 190 372 223 281 b 576 97 356 134 451 97 b 838 194 675 97 763 130 l 838 421 l 539 421 l 539 531 l 951 531 l 951 146 b 575 -19 849 36 723 -19 b 351 21 492 -19 417 -6 b 191 131 284 48 231 84 b 99 288 151 177 120 229 b 68 476 78 347 68 410 b 206 845 68 625 114 748 b 575 990 297 942 420 990 b 932 844 714 990 833 942 z "},"ġ":{"ha":850,"x_min":0,"x_max":0,"o":"m 363 914 b 401 850 363 883 375 862 b 479 850 427 838 453 838 b 518 914 505 862 518 883 b 479 977 518 944 505 965 b 401 977 453 990 427 990 b 363 914 375 965 363 944 z m 624 653 l 697 740 l 778 676 l 700 586 b 785 365 756 522 785 449 b 736 192 785 301 769 244 b 592 85 704 141 656 105 b 737 -2 656 66 705 37 b 785 -139 769 -41 785 -87 b 679 -336 785 -223 750 -289 b 426 -407 609 -383 525 -407 b 169 -328 320 -407 234 -381 b 72 -115 103 -276 71 -205 l 182 -115 b 253 -251 181 -172 205 -217 b 424 -301 301 -284 358 -301 b 593 -258 488 -301 545 -287 b 665 -137 641 -230 665 -189 b 597 -15 665 -85 642 -44 b 425 28 551 13 494 28 b 162 118 316 28 228 58 b 63 367 96 178 63 261 b 172 617 62 473 99 556 b 426 707 244 677 329 707 b 621 656 507 707 572 690 z m 425 601 b 249 540 357 601 299 581 b 175 367 200 500 175 442 b 245 194 175 293 198 235 b 425 133 292 154 352 133 b 603 201 497 133 556 156 b 672 367 649 246 672 301 b 600 540 672 441 648 498 b 425 601 552 581 494 601 z "},"Ģ":{"ha":1035,"x_min":0,"x_max":0,"o":"m 860 767 l 935 846 b 578 992 837 943 718 992 b 208 847 423 992 300 943 b 72 478 117 750 71 627 b 103 290 72 411 83 348 b 195 132 124 231 155 178 b 355 22 235 86 289 49 b 579 -18 421 -5 496 -18 b 956 147 727 -18 853 37 l 956 532 l 543 532 l 543 422 l 842 422 l 842 194 b 581 97 767 130 680 97 b 294 208 456 97 360 134 b 194 478 228 281 194 371 b 298 762 194 590 229 684 b 582 878 367 839 462 878 b 734 849 633 878 684 868 b 865 765 784 829 828 801 z m 569 -242 l 529 -343 l 606 -343 b 644 -252 616 -323 628 -292 b 667 -181 659 -212 667 -188 b 630 -116 667 -150 654 -128 b 556 -115 605 -103 581 -103 b 518 -179 531 -127 518 -149 b 571 -240 518 -213 536 -234 z "},"ģ":{"ha":849,"x_min":0,"x_max":0,"o":"m 464 936 l 504 1039 l 428 1039 b 390 948 418 1019 405 988 b 367 876 374 908 367 884 b 404 811 367 846 379 824 b 478 810 429 798 454 798 b 515 874 503 822 515 843 b 463 935 515 908 498 928 z m 774 675 l 693 739 l 619 650 b 425 701 570 684 506 701 b 172 611 329 701 244 671 b 63 361 99 551 63 468 b 162 113 63 256 96 173 b 425 22 228 52 316 22 b 597 -21 494 22 551 8 b 665 -143 642 -50 665 -90 b 594 -261 665 -195 641 -234 b 424 -301 546 -288 489 -301 b 252 -252 356 -300 299 -284 b 183 -118 205 -220 182 -175 l 71 -118 b 166 -333 69 -209 101 -280 b 422 -411 231 -385 317 -411 b 675 -340 520 -411 605 -387 b 781 -143 745 -293 781 -227 b 733 -6 781 -91 765 -46 b 588 81 701 33 652 62 b 734 188 651 101 700 137 b 785 360 768 238 785 296 b 696 582 785 441 755 515 l 774 674 z m 175 361 b 249 534 175 436 200 494 b 425 594 299 574 357 594 b 601 533 494 594 553 574 b 674 360 650 491 674 434 b 604 192 674 293 650 237 b 426 125 558 147 499 125 b 248 186 354 125 295 145 b 178 360 201 227 178 285 z "},"Ĥ":{"ha":1061,"x_min":0,"x_max":0,"o":"m 497 1265 l 300 1081 l 300 1071 l 417 1071 l 533 1179 l 650 1071 l 767 1071 l 767 1081 l 569 1265 z m 129 972 l 129 0 l 253 0 l 253 419 l 808 419 l 808 0 l 932 0 l 932 972 l 808 972 l 808 533 l 253 533 l 253 972 z "},"ĥ":{"ha":828,"x_min":0,"x_max":0,"o":"m 383 1253 l 189 1072 l 189 1064 l 303 1064 l 417 1169 l 532 1064 l 647 1064 l 647 1072 l 453 1253 z m 104 972 l 104 0 l 218 0 l 218 364 b 277 523 218 427 238 480 b 429 588 316 566 367 588 b 572 533 491 588 539 569 b 621 376 604 496 621 444 l 621 -1 l 733 -1 l 733 378 b 661 610 733 476 709 553 b 449 694 613 666 542 694 b 217 572 346 693 269 652 l 217 971 l 104 971 z "},"Ħ":{"ha":1078,"x_min":0,"x_max":0,"o":"m 817 0 l 940 0 l 940 731 l 1039 731 l 1039 814 l 940 814 l 940 972 l 817 972 l 817 814 l 261 814 l 261 972 l 138 972 l 138 814 l 40 814 l 40 731 l 138 731 l 138 0 l 261 0 l 261 419 l 817 419 z m 817 533 l 261 533 l 261 731 l 817 731 z "},"ħ":{"ha":828,"x_min":0,"x_max":0,"o":"m 17 872 l 17 789 l 104 789 l 104 0 l 218 0 l 218 364 b 277 523 218 427 238 480 b 429 588 316 566 367 588 b 572 533 491 588 539 569 b 621 376 604 496 621 444 l 621 -1 l 733 -1 l 733 378 b 661 610 733 476 709 553 b 449 694 613 666 542 694 b 217 572 346 693 269 652 l 217 788 l 382 788 l 382 871 l 217 871 l 217 971 l 104 971 l 104 871 l 17 871 z "},"Ĩ":{"ha":381,"x_min":0,"x_max":0,"o":"m 0 1117 l 69 1083 b 149 1124 85 1124 112 1138 b 183 1106 152 1123 164 1117 b 221 1086 203 1094 215 1088 b 317 1092 255 1073 287 1075 b 376 1185 346 1108 366 1139 l 304 1217 b 232 1181 291 1179 267 1167 b 194 1198 227 1181 215 1187 b 157 1215 174 1209 162 1214 b 57 1208 120 1229 87 1227 b -3 1119 27 1190 7 1160 z m 129 3 l 251 3 l 251 975 l 129 975 z "},"ĩ":{"ha":326,"x_min":0,"x_max":0,"o":"m 1 890 l 63 858 b 131 896 75 895 97 908 b 161 878 133 895 144 889 b 194 860 179 868 190 862 b 278 864 224 847 252 848 b 332 951 305 880 323 909 l 269 982 b 206 946 259 945 238 933 b 174 962 202 947 191 952 b 140 979 156 972 145 977 b 54 972 109 991 80 989 b 3 889 28 954 11 927 z m 106 675 l 106 -1 l 224 -1 l 224 675 z "},"Ī":{"ha":381,"x_min":0,"x_max":0,"o":"m 8 1178 l 8 1082 l 372 1082 l 372 1178 z m 129 0 l 251 0 l 251 972 l 129 972 z "},"ī":{"ha":326,"x_min":0,"x_max":0,"o":"m 1 967 l 1 871 l 325 871 l 325 967 z m 104 676 l 104 0 l 222 0 l 222 676 z "},"Ĭ":{"ha":381,"x_min":0,"x_max":0,"o":"m 381 1246 l 292 1246 b 200 1160 292 1188 261 1160 b 108 1247 139 1160 108 1189 l 18 1247 b 63 1120 14 1193 29 1150 b 199 1075 97 1090 142 1075 b 333 1119 254 1075 299 1090 b 379 1246 368 1148 383 1190 z m 135 0 l 257 0 l 257 972 l 135 972 z "},"ĭ":{"ha":326,"x_min":0,"x_max":0,"o":"m 333 972 l 251 972 b 230 906 251 945 244 923 b 165 879 216 888 194 879 b 99 906 136 879 114 888 b 78 972 85 923 78 945 l -4 972 b 41 844 -6 918 9 875 b 165 797 73 813 114 797 b 290 844 216 797 258 813 b 335 972 322 875 337 918 z m 107 676 l 107 0 l 225 0 l 225 676 z "},"Į":{"ha":383,"x_min":0,"x_max":0,"o":"m 389 -137 l 325 -93 b 222 -142 300 -125 266 -142 b 172 -129 203 -143 186 -138 b 144 -94 158 -120 149 -108 b 165 -27 136 -69 143 -46 b 264 0 186 -8 219 1 l 264 972 l 142 972 l 142 33 b 67 -32 106 19 81 -2 b 56 -121 53 -62 49 -91 b 113 -201 63 -154 82 -181 b 225 -229 143 -221 181 -230 b 389 -136 303 -225 357 -194 z "},"į":{"ha":328,"x_min":0,"x_max":0,"o":"m 96 896 b 133 829 96 864 108 842 b 208 828 158 816 183 816 b 246 894 233 841 246 863 b 208 961 246 926 233 948 b 133 962 183 974 158 974 b 96 896 108 949 96 927 z m 113 689 l 226 689 l 226 0 b 128 -39 181 1 148 -12 b 125 -118 107 -66 106 -92 b 194 -145 141 -137 164 -147 b 274 -107 224 -144 250 -131 l 336 -149 b 191 -229 306 -200 258 -227 b 53 -160 124 -231 78 -208 b 24 -93 36 -141 27 -119 b 43 -17 22 -67 28 -42 b 113 36 58 7 81 25 l 113 692 z "},"İ":{"ha":381,"x_min":0,"x_max":0,"o":"m 117 1151 b 154 1085 117 1120 129 1098 b 229 1084 179 1072 204 1072 b 267 1150 254 1097 267 1119 b 229 1217 267 1181 254 1204 b 154 1217 204 1230 179 1230 b 117 1151 129 1205 117 1183 z m 251 0 l 129 0 l 129 972 l 251 972 z "},"ı":{"ha":326,"x_min":0,"x_max":0,"o":"m 222 676 l 104 676 l 104 0 l 222 0 z "},"Ĳ":{"ha":1335,"x_min":0,"x_max":0,"o":"m 1217 389 l 1217 972 l 757 972 l 757 861 l 1097 861 l 1097 389 b 1021 176 1097 300 1072 229 b 815 96 970 122 901 96 b 609 174 729 96 660 122 b 532 383 558 225 532 295 l 413 383 b 525 91 413 261 450 164 b 815 -18 600 18 697 -18 b 1109 94 938 -18 1035 19 b 1217 389 1183 168 1219 267 z m 129 0 l 250 0 l 250 972 l 129 972 z "},"ĳ":{"ha":644,"x_min":0,"x_max":0,"o":"m 410 900 b 447 833 410 869 422 846 b 522 833 472 820 497 820 b 560 899 547 845 560 867 b 522 965 560 930 547 952 b 447 966 497 978 472 978 b 410 900 422 953 410 931 z m 428 688 l 540 688 l 540 -90 b 494 -278 541 -173 526 -235 b 338 -342 463 -320 411 -342 b 201 -303 290 -342 245 -329 l 239 -211 b 332 -235 270 -227 301 -235 b 408 -198 371 -234 396 -222 b 426 -90 420 -174 426 -138 l 426 688 z m 88 896 b 125 829 88 864 100 842 b 200 828 150 816 175 816 b 238 894 225 841 238 863 b 200 961 238 926 225 948 b 125 962 175 974 150 974 b 88 896 100 949 88 927 z m 104 689 l 218 689 l 218 0 l 104 0 z "},"Ĵ":{"ha":957,"x_min":0,"x_max":0,"o":"m 325 1085 l 325 1076 l 442 1076 l 558 1183 l 675 1076 l 792 1076 l 792 1085 l 594 1269 l 522 1269 z m 838 389 l 838 972 l 378 972 l 378 860 l 715 860 l 715 389 b 640 177 715 300 690 229 b 435 99 590 125 522 99 b 229 175 349 99 280 124 b 153 383 178 226 153 295 l 33 383 b 146 91 33 261 71 164 b 436 -18 221 18 318 -18 b 730 93 557 -18 655 19 b 842 388 804 167 842 265 z "},"ĵ":{"ha":321,"x_min":0,"x_max":0,"o":"m -35 796 l -35 788 l 67 788 l 163 894 l 260 788 l 360 788 l 360 796 l 193 982 l 132 982 z m 217 -90 l 217 688 l 104 688 l 104 -90 b 86 -198 104 -138 98 -174 b 10 -235 74 -222 49 -234 b -83 -211 -21 -237 -52 -229 l -121 -303 b 15 -342 -77 -329 -32 -342 b 172 -277 88 -342 141 -320 b 218 -89 204 -234 219 -171 z "},"Ķ":{"ha":869,"x_min":0,"x_max":0,"o":"m 126 972 l 126 1 l 250 1 l 250 457 l 715 0 l 869 0 l 869 8 l 365 504 l 828 965 l 828 972 l 676 972 l 250 543 l 250 972 z m 446 -222 l 406 -324 l 482 -324 b 522 -235 493 -305 506 -276 b 544 -162 537 -195 544 -171 b 507 -98 544 -132 532 -110 b 433 -97 482 -85 457 -85 b 396 -161 408 -109 396 -131 b 449 -224 396 -196 413 -217 z "},"ķ":{"ha":689,"x_min":0,"x_max":0,"o":"m 217 972 l 104 972 l 104 0 l 217 0 l 217 324 l 540 0 l 679 0 l 679 8 l 324 363 l 640 679 l 640 686 l 499 686 l 217 397 z m 353 -218 l 315 -315 l 388 -315 b 424 -228 398 -296 410 -267 b 446 -160 439 -190 446 -167 b 410 -99 446 -131 434 -111 b 340 -98 387 -87 363 -86 b 304 -158 316 -109 304 -130 b 354 -218 304 -192 321 -212 z "},"ĸ":{"ha":689,"x_min":0,"x_max":0,"o":"m 217 686 l 104 686 l 104 0 l 217 0 l 217 324 l 540 0 l 679 0 l 679 8 l 324 363 l 640 679 l 640 686 l 499 686 l 217 397 z "},"Ĺ":{"ha":804,"x_min":0,"x_max":0,"o":"m 156 1088 l 156 1081 l 258 1081 l 393 1254 l 393 1258 l 257 1258 z m 129 972 l 253 972 l 253 115 l 779 115 l 779 0 l 129 0 z "},"ĺ":{"ha":339,"x_min":0,"x_max":0,"o":"m 113 1076 l 113 1069 l 211 1069 l 339 1235 l 339 1239 l 208 1239 z m 113 972 l 226 972 l 226 0 l 113 0 z "},"Ļ":{"ha":804,"x_min":0,"x_max":0,"o":"m 253 972 l 129 972 l 129 0 l 779 0 l 779 115 l 253 115 z m 449 -233 l 408 -335 l 485 -335 b 524 -244 496 -315 509 -285 b 547 -172 540 -204 547 -180 b 510 -108 547 -142 535 -120 b 435 -107 485 -95 460 -95 b 399 -171 411 -119 399 -140 b 451 -232 399 -205 416 -225 z "},"ļ":{"ha":339,"x_min":0,"x_max":0,"o":"m 226 972 l 113 972 l 113 0 l 226 0 z m 147 -226 l 108 -326 l 182 -326 b 221 -239 193 -307 206 -278 b 243 -169 236 -200 243 -177 b 228 -124 243 -152 238 -137 b 191 -101 218 -112 205 -104 b 149 -100 177 -97 163 -97 b 113 -122 135 -103 123 -110 b 97 -167 102 -134 97 -149 b 147 -228 97 -201 114 -221 z "},"Ľ":{"ha":808,"x_min":0,"x_max":0,"o":"m 253 972 l 129 972 l 129 0 l 779 0 l 779 115 l 253 115 z m 575 967 l 515 721 l 604 721 l 693 967 z "},"ľ":{"ha":331,"x_min":0,"x_max":0,"o":"m 347 974 l 288 728 l 374 728 l 460 974 z m 226 972 l 113 972 l 113 0 l 226 0 z "},"Ŀ":{"ha":807,"x_min":0,"x_max":0,"o":"m 253 972 l 129 972 l 129 0 l 779 0 l 779 115 l 253 115 z m 442 425 b 481 356 442 393 455 370 b 558 356 506 343 532 343 b 597 425 584 370 597 393 b 558 494 597 457 584 480 b 481 494 532 507 506 507 b 442 425 455 480 442 457 z "},"ŀ":{"ha":483,"x_min":0,"x_max":0,"o":"m 226 972 l 113 972 l 113 0 l 226 0 z m 332 419 b 371 351 332 387 345 364 b 449 351 397 337 423 337 b 488 419 475 364 488 387 b 449 488 488 452 475 475 b 371 488 423 502 397 502 b 332 419 345 475 332 452 z "},"Ł":{"ha":817,"x_min":0,"x_max":0,"o":"m 139 383 l 139 0 l 789 0 l 789 115 l 263 115 l 263 440 l 418 510 l 418 611 l 263 540 l 263 972 l 139 972 l 139 483 l 36 438 l 36 339 z "},"ł":{"ha":381,"x_min":0,"x_max":0,"o":"m 244 972 l 131 972 l 131 483 l 36 442 l 36 349 l 131 389 l 131 0 l 244 0 l 244 440 l 350 486 l 350 582 l 244 535 z "},"Ń":{"ha":1058,"x_min":0,"x_max":0,"o":"m 453 1081 l 453 1074 l 556 1074 l 693 1251 l 693 1254 l 554 1254 z m 254 0 l 129 0 l 129 972 l 214 972 l 807 236 l 807 972 l 929 972 l 929 0 l 846 0 l 254 732 z "},"ń":{"ha":836,"x_min":0,"x_max":0,"o":"m 350 806 l 350 800 l 447 800 l 579 968 l 579 972 l 447 972 z m 217 0 l 104 0 l 104 686 l 208 686 l 214 576 b 449 699 271 656 350 697 b 665 613 537 699 609 670 b 749 381 721 556 749 479 l 749 1 l 635 1 l 635 379 b 579 537 635 446 616 498 b 426 593 542 575 491 594 b 274 527 364 592 314 570 b 215 368 235 484 215 431 l 215 0 z "},"Ņ":{"ha":1058,"x_min":0,"x_max":0,"o":"m 129 972 l 129 0 l 254 0 l 254 732 l 846 0 l 929 0 l 929 972 l 807 972 l 807 236 l 214 972 z m 524 -229 l 483 -331 l 560 -331 b 599 -240 571 -311 584 -281 b 622 -168 615 -200 622 -175 b 585 -103 622 -137 610 -116 b 510 -103 560 -91 535 -91 b 474 -167 486 -115 474 -136 b 526 -228 474 -201 491 -221 z "},"ņ":{"ha":842,"x_min":0,"x_max":0,"o":"m 633 0 l 747 0 l 747 379 b 663 612 747 477 719 555 b 446 697 607 669 535 697 b 211 578 348 697 269 657 l 206 688 l 101 688 l 101 1 l 214 1 l 214 369 b 273 528 214 432 234 485 b 425 593 312 570 363 592 b 578 536 490 593 541 574 b 633 379 615 498 633 446 l 633 1 z m 407 -215 l 369 -311 l 442 -311 b 478 -226 452 -293 464 -264 b 500 -158 493 -188 500 -166 b 465 -99 500 -131 488 -111 b 394 -98 441 -87 418 -86 b 360 -158 371 -109 360 -130 b 408 -215 360 -190 376 -209 z "},"Ň":{"ha":1058,"x_min":0,"x_max":0,"o":"m 301 1250 l 497 1069 l 568 1069 l 765 1250 l 765 1260 l 653 1260 l 533 1153 l 418 1260 l 301 1260 z m 129 972 l 129 0 l 254 0 l 254 732 l 846 0 l 929 0 l 929 972 l 807 972 l 807 236 l 214 972 z "},"ň":{"ha":844,"x_min":0,"x_max":0,"o":"m 200 974 l 390 794 l 461 794 l 656 974 l 656 982 l 543 982 l 426 876 l 313 982 l 200 982 z m 104 686 l 104 0 l 217 0 l 217 368 b 276 526 217 431 236 484 b 428 592 315 569 366 591 b 581 535 493 592 544 573 b 636 378 618 497 636 444 l 636 0 l 750 0 l 750 379 b 666 612 750 477 722 555 b 449 697 610 669 538 697 b 214 578 350 697 272 657 l 208 688 l 104 688 z "},"ŉ":{"ha":844,"x_min":0,"x_max":0,"o":"m 208 686 l 104 686 l 104 0 l 217 0 l 217 368 b 276 526 217 431 236 484 b 428 592 315 569 366 591 b 581 535 493 592 544 573 b 636 378 618 497 636 444 l 636 0 l 750 0 l 750 379 b 666 612 750 477 722 555 b 449 697 610 669 538 697 b 214 578 350 697 272 657 l 208 688 z "},"Ŋ":{"ha":1058,"x_min":0,"x_max":0,"o":"m 929 -35 l 929 972 l 807 972 l 807 233 l 214 972 l 129 972 l 129 0 l 254 0 l 254 732 l 818 35 l 818 -35 b 799 -142 818 -83 812 -119 b 722 -179 787 -166 761 -178 b 632 -156 694 -180 663 -172 l 593 -247 b 726 -286 638 -273 683 -286 b 883 -222 800 -286 852 -265 b 929 -33 915 -178 930 -116 z "},"ŋ":{"ha":842,"x_min":0,"x_max":0,"o":"m 747 -33 l 747 379 b 663 612 747 477 719 555 b 446 697 607 669 535 697 b 211 578 348 697 269 657 l 206 688 l 101 688 l 101 1 l 214 1 l 214 369 b 273 528 214 432 234 485 b 425 593 312 570 363 592 b 578 536 490 593 541 574 b 633 379 615 498 633 446 l 633 -32 b 615 -140 633 -81 627 -117 b 540 -176 603 -163 578 -175 b 454 -153 514 -177 486 -169 l 417 -244 b 546 -283 460 -270 503 -283 b 703 -219 619 -283 671 -262 b 749 -31 734 -176 750 -113 z "},"Ō":{"ha":1124,"x_min":0,"x_max":0,"o":"m 329 1204 l 329 1106 l 793 1106 l 793 1204 z m 564 989 b 203 844 414 989 294 941 b 68 483 113 748 68 628 b 99 297 68 418 78 355 b 190 137 120 238 150 184 b 345 23 229 89 281 51 b 563 -19 409 -5 482 -19 b 779 23 643 -19 715 -5 b 934 137 843 51 895 89 b 1024 297 973 184 1003 238 b 1056 483 1045 356 1056 419 b 927 839 1056 621 1014 740 b 564 989 841 938 719 988 z m 935 482 b 839 210 935 376 903 286 b 564 96 775 134 683 96 b 289 210 444 96 353 134 b 190 483 225 286 192 377 b 288 764 188 594 221 688 b 565 878 354 840 447 878 b 773 818 646 877 715 857 b 899 673 831 779 873 731 b 936 483 925 615 937 552 z "},"ō":{"ha":826,"x_min":0,"x_max":0,"o":"m 199 957 l 199 861 l 625 861 l 625 957 z m 61 342 b 160 87 61 238 94 153 b 413 -12 225 21 310 -12 b 667 87 516 -12 601 21 b 765 342 732 153 765 238 b 665 598 765 445 732 531 b 413 699 599 665 514 699 b 160 598 311 699 227 665 b 61 342 94 531 61 445 z m 651 342 b 585 164 651 269 629 210 b 413 94 540 118 483 94 b 241 164 342 94 285 118 b 175 342 197 210 175 269 b 242 523 175 415 197 475 b 414 594 287 571 344 594 b 585 522 482 594 539 570 b 653 342 630 474 653 414 z "},"Ŏ":{"ha":1124,"x_min":0,"x_max":0,"o":"m 753 1261 l 658 1261 b 633 1196 658 1235 650 1213 b 560 1169 617 1178 592 1169 b 485 1195 526 1169 502 1178 b 461 1261 469 1212 461 1234 l 367 1261 b 417 1131 364 1206 381 1162 b 560 1085 454 1100 501 1085 b 702 1132 618 1085 666 1100 b 753 1263 739 1163 756 1207 z m 564 990 b 203 846 414 990 294 942 b 68 485 113 750 68 629 b 99 298 68 419 78 357 b 190 138 120 239 150 186 b 345 24 229 91 281 53 b 563 -18 409 -4 482 -18 b 779 24 643 -18 715 -4 b 934 138 843 53 895 91 b 1024 299 973 186 1003 239 b 1056 485 1045 358 1056 420 b 927 840 1056 623 1014 741 b 564 990 841 939 719 989 z m 935 483 b 839 211 935 378 903 287 b 564 97 775 135 683 97 b 289 211 444 97 353 135 b 190 485 225 287 192 378 b 288 765 188 596 221 689 b 565 879 354 841 447 879 b 773 819 646 878 715 858 b 899 674 831 781 873 732 b 936 485 925 616 937 553 z "},"ŏ":{"ha":826,"x_min":0,"x_max":0,"o":"m 603 975 l 510 975 b 486 906 510 947 502 924 b 414 879 470 888 446 879 b 340 906 381 879 356 888 b 315 975 323 924 315 947 l 224 975 b 273 841 221 918 237 873 b 413 793 309 809 355 793 b 553 840 470 792 517 808 b 603 974 589 872 606 916 z m 61 340 b 160 85 61 237 94 152 b 413 -14 225 19 310 -14 b 667 85 516 -14 601 19 b 765 340 732 152 765 237 b 665 597 765 444 732 529 b 413 697 599 664 514 697 b 160 597 311 697 227 664 b 61 340 94 529 61 444 z m 651 340 b 585 163 651 268 629 209 b 413 93 540 116 483 93 b 241 163 342 93 285 116 b 175 340 197 209 175 268 b 242 522 175 413 197 474 b 414 593 287 569 344 593 b 585 521 482 593 539 569 b 653 340 630 473 653 413 z "},"Ő":{"ha":1124,"x_min":0,"x_max":0,"o":"m 388 1088 l 486 1088 l 621 1254 l 494 1254 z m 701 1254 l 594 1086 l 692 1086 l 829 1254 z m 68 483 b 99 297 68 418 78 355 b 190 137 120 238 150 184 b 345 23 229 89 281 51 b 563 -19 409 -5 482 -19 b 779 23 643 -19 715 -5 b 934 137 843 51 895 89 b 1024 297 973 184 1003 238 b 1056 483 1045 356 1056 419 b 927 839 1056 621 1014 740 b 564 989 841 938 719 988 b 203 844 414 989 294 941 b 68 483 113 748 68 628 z m 935 482 b 839 210 935 376 903 286 b 564 96 775 134 683 96 b 289 210 444 96 353 134 b 190 483 225 286 192 377 b 288 764 188 594 221 688 b 565 878 354 840 447 878 b 773 818 646 877 715 857 b 899 673 831 779 873 731 b 936 483 925 615 937 552 z "},"ő":{"ha":825,"x_min":0,"x_max":0,"o":"m 344 965 l 240 815 l 336 815 l 467 963 l 467 965 z m 546 964 l 442 815 l 535 815 l 668 963 l 668 964 z m 764 342 b 665 87 764 238 731 153 b 413 -12 600 21 515 -12 b 160 87 310 -12 225 21 b 61 342 94 153 61 238 b 160 598 61 445 94 531 b 413 699 227 665 311 699 b 665 598 514 699 599 665 b 765 342 732 531 765 445 z m 175 342 b 242 164 175 269 197 210 b 414 94 286 118 344 94 b 586 164 484 94 542 118 b 653 342 631 210 653 269 b 585 522 653 414 630 474 b 415 594 539 570 483 594 b 244 523 346 594 289 571 b 176 342 199 475 176 415 z "},"Œ":{"ha":1371,"x_min":0,"x_max":0,"o":"m 688 0 l 1296 0 l 1296 119 l 799 119 l 799 431 l 1260 431 l 1260 546 l 799 546 l 799 854 l 1285 854 l 1285 972 l 689 972 b 563 985 639 981 597 985 b 290 917 456 985 365 962 b 123 738 214 871 159 812 b 69 488 87 665 69 581 b 198 128 69 344 112 224 b 563 -15 284 33 405 -15 b 688 -1 602 -15 644 -11 z m 688 864 l 688 107 b 565 90 651 96 611 90 b 291 207 448 90 356 129 b 192 486 226 285 193 378 b 288 770 192 600 224 695 b 563 883 353 846 444 883 b 688 865 610 883 651 877 z "},"œ":{"ha":1383,"x_min":0,"x_max":0,"o":"m 1289 110 l 1213 179 b 1119 116 1190 152 1159 131 b 997 93 1078 101 1038 93 b 831 149 931 93 875 112 b 756 299 787 186 762 236 b 1328 300 831 300 1021 300 b 1251 599 1341 431 1315 530 b 989 701 1188 667 1100 701 b 815 653 924 701 866 685 b 703 525 763 620 726 578 b 588 655 677 581 638 624 b 413 701 537 686 478 701 b 160 600 311 701 227 668 b 61 343 94 532 61 447 b 160 88 61 239 94 154 b 413 -11 225 22 310 -11 b 700 163 547 -11 643 47 b 816 34 725 108 764 65 b 994 -12 868 3 928 -12 b 1158 19 1051 -12 1106 -2 b 1288 110 1211 40 1254 70 z m 1221 394 l 754 394 b 834 544 763 458 790 508 b 992 599 878 581 931 599 b 1156 545 1060 599 1115 581 b 1221 393 1196 509 1218 459 z m 175 340 b 242 522 175 413 197 474 b 414 593 287 569 344 593 b 584 521 482 593 539 569 b 651 340 629 473 651 413 b 585 163 651 268 629 209 b 414 93 541 116 484 93 b 242 163 344 93 286 116 b 176 340 198 209 176 268 z "},"Ŕ":{"ha":992,"x_min":0,"x_max":0,"o":"m 400 1090 l 400 1083 l 503 1083 l 639 1258 l 639 1263 l 501 1263 z m 622 360 l 943 0 l 794 0 l 483 349 l 253 349 l 253 0 l 129 0 l 129 972 l 574 972 b 817 881 677 972 759 942 b 907 663 876 821 906 748 b 837 458 908 583 884 515 b 624 361 789 402 718 369 z m 254 858 l 254 464 l 569 464 b 726 519 639 464 691 482 b 781 661 762 555 780 603 b 728 799 781 714 764 760 b 576 858 693 839 642 858 l 256 858 z "},"ŕ":{"ha":593,"x_min":0,"x_max":0,"o":"m 271 811 l 271 806 l 367 806 l 494 968 l 494 972 l 365 972 z m 104 686 l 210 686 l 218 583 b 429 697 259 659 329 697 b 590 646 490 698 544 681 l 539 549 b 419 586 503 574 463 586 b 276 531 363 586 315 568 b 218 383 238 494 218 444 l 218 1 l 104 1 l 104 688 z "},"Ŗ":{"ha":990,"x_min":0,"x_max":0,"o":"m 129 972 l 129 0 l 253 0 l 253 349 l 483 349 l 794 0 l 943 0 l 622 360 b 835 457 717 368 788 400 b 906 661 883 513 906 581 b 817 880 906 746 876 819 b 572 971 759 941 677 971 l 128 971 z m 567 461 l 251 461 l 251 856 l 572 856 b 724 797 638 856 689 836 b 776 658 760 757 777 711 b 724 516 776 600 759 553 b 567 461 688 479 636 461 z m 494 -231 l 454 -332 l 531 -332 b 570 -242 542 -312 555 -282 b 593 -169 585 -201 593 -177 b 556 -105 593 -139 581 -117 b 482 -104 532 -92 507 -92 b 444 -168 457 -116 444 -137 b 497 -229 444 -202 462 -223 z "},"ŗ":{"ha":594,"x_min":0,"x_max":0,"o":"m 210 686 l 104 686 l 104 0 l 218 0 l 218 382 b 276 530 218 443 238 492 b 419 588 315 567 363 587 b 539 550 463 588 503 575 l 590 647 b 431 699 544 683 491 700 b 219 585 331 699 260 661 l 211 688 z m 143 -221 l 106 -317 l 176 -317 b 213 -232 187 -298 199 -270 b 235 -164 228 -194 235 -171 b 199 -103 235 -135 223 -115 b 129 -102 176 -91 152 -91 b 94 -162 106 -114 94 -134 b 143 -221 94 -195 111 -214 z "},"Ř":{"ha":990,"x_min":0,"x_max":0,"o":"m 238 1253 l 435 1072 l 507 1072 l 706 1253 l 706 1261 l 592 1261 l 472 1154 l 356 1261 l 238 1261 z m 129 972 l 129 0 l 253 0 l 253 349 l 483 349 l 794 0 l 943 0 l 622 360 b 835 457 717 368 788 400 b 906 661 883 513 906 581 b 817 880 906 746 876 819 b 572 971 759 941 677 971 l 128 971 z m 567 461 l 251 461 l 251 856 l 572 856 b 724 797 638 856 689 836 b 776 658 760 757 777 711 b 724 516 776 600 759 553 b 567 461 688 479 636 461 z "},"ř":{"ha":594,"x_min":0,"x_max":0,"o":"m 378 790 l 564 967 l 564 975 l 457 975 l 344 871 l 236 975 l 126 975 l 126 967 l 310 790 z m 104 686 l 104 0 l 218 0 l 218 382 b 276 530 218 443 238 492 b 419 588 315 567 363 587 b 539 550 463 588 503 575 l 590 647 b 431 699 544 683 491 700 b 219 585 331 699 260 661 l 211 688 l 106 688 z "},"Ś":{"ha":924,"x_min":0,"x_max":0,"o":"m 399 1093 l 399 1086 l 503 1086 l 642 1265 l 642 1269 l 501 1269 z m 832 817 l 732 764 b 465 886 683 844 594 884 b 288 844 397 886 337 872 b 213 719 238 816 213 774 b 231 655 213 694 219 673 b 291 610 244 637 264 622 b 371 584 318 599 345 590 b 474 564 397 578 431 571 b 590 543 521 556 559 550 b 692 511 620 537 654 526 b 781 460 730 496 759 479 b 837 384 803 441 822 416 b 860 272 852 352 860 315 b 825 136 860 220 848 175 b 731 46 802 97 771 67 b 606 -1 692 25 650 9 b 464 -17 561 -12 514 -17 b 215 38 370 -17 287 1 b 53 207 142 74 88 130 l 158 261 b 282 138 183 207 225 166 b 465 94 339 109 400 94 b 588 108 510 94 551 99 b 690 164 626 118 659 136 b 735 272 720 192 735 228 b 713 347 735 301 728 326 b 649 399 699 369 678 386 b 564 430 621 412 593 422 b 457 451 535 438 500 445 b 345 472 413 459 375 466 b 247 503 315 479 282 489 b 163 551 212 517 184 533 b 109 622 141 569 123 592 b 88 722 95 651 88 684 b 120 850 87 770 97 813 b 210 936 143 887 173 916 b 330 982 248 956 288 972 b 460 997 372 992 415 997 b 676 959 542 997 614 984 b 828 819 737 934 788 887 z "},"ś":{"ha":693,"x_min":0,"x_max":0,"o":"m 279 811 l 279 806 l 375 806 l 503 971 l 503 974 l 374 974 z m 611 610 l 546 535 b 351 601 496 579 431 601 b 228 576 301 602 260 594 b 182 501 197 559 181 534 b 229 432 183 470 199 447 b 353 400 260 417 301 406 b 419 390 380 396 402 393 b 484 376 437 388 459 383 b 547 352 509 370 531 362 b 596 317 564 342 580 331 b 631 263 612 303 623 285 b 642 190 639 241 643 217 b 558 38 641 125 613 74 b 354 -17 504 1 436 -17 b 47 114 219 -17 117 27 l 113 193 b 357 86 170 122 251 86 b 476 110 401 85 441 93 b 531 190 512 126 530 153 b 484 265 531 225 516 250 b 346 300 452 281 406 293 b 246 318 307 305 274 311 b 161 350 218 325 190 336 b 94 408 132 364 110 383 b 71 497 79 432 71 462 b 114 614 71 544 85 582 b 217 681 143 645 177 668 b 349 699 258 694 301 700 b 610 607 455 699 542 668 z "},"Ŝ":{"ha":922,"x_min":0,"x_max":0,"o":"m 240 1096 l 240 1088 l 358 1088 l 478 1197 l 597 1088 l 715 1088 l 715 1096 l 514 1283 l 442 1283 z m 731 764 l 831 817 b 678 957 791 884 740 931 b 463 996 617 983 545 996 b 333 981 418 996 375 991 b 213 935 291 970 251 955 b 123 849 176 914 146 886 b 90 721 100 812 89 769 b 112 620 90 683 97 649 b 165 549 126 591 144 567 b 250 502 187 531 215 516 b 348 472 285 489 318 478 b 460 451 378 465 415 458 b 566 431 501 445 537 438 b 652 400 595 423 624 413 b 715 349 680 387 701 370 b 736 274 729 327 736 302 b 711 185 736 239 728 210 b 644 130 694 161 672 142 b 558 103 617 117 588 108 b 465 94 529 97 498 94 b 282 137 400 94 339 109 b 158 260 225 165 183 206 l 53 206 b 215 35 88 129 142 72 b 464 -19 288 -1 371 -19 b 604 -4 513 -19 560 -14 b 730 43 649 6 691 22 b 824 133 769 64 801 94 b 860 269 848 172 860 218 b 837 381 860 312 852 349 b 781 458 822 413 803 439 b 692 508 759 477 730 494 b 590 540 654 523 620 534 b 474 561 559 547 521 554 b 371 581 431 569 397 575 b 291 608 345 587 318 596 b 231 652 264 619 244 634 b 213 717 219 670 213 692 b 288 841 213 771 238 813 b 465 883 338 869 397 883 b 732 761 594 881 683 841 z "},"ŝ":{"ha":693,"x_min":0,"x_max":0,"o":"m 321 976 l 129 799 l 129 790 l 244 790 l 356 893 l 468 790 l 581 790 l 581 799 l 390 976 z m 546 535 l 611 610 b 350 701 544 671 456 701 b 219 683 303 702 259 696 b 115 617 178 670 144 648 b 72 500 87 585 72 546 b 95 410 72 465 80 435 b 161 353 110 386 132 367 b 246 321 190 339 218 328 b 346 303 274 313 307 307 b 484 268 406 295 452 284 b 531 193 516 252 531 227 b 477 111 530 155 512 128 b 357 86 442 94 402 86 b 113 192 251 86 170 121 l 47 113 b 354 -18 117 25 219 -18 b 558 36 436 -18 504 0 b 642 189 613 72 641 123 b 624 274 643 221 637 250 b 578 332 611 299 596 318 b 508 367 561 346 538 358 b 433 388 479 377 453 384 b 353 399 412 391 385 395 b 182 500 240 412 183 445 b 228 575 181 532 197 557 b 351 600 260 593 301 601 b 544 533 431 600 495 578 z "},"Ş":{"ha":921,"x_min":0,"x_max":0,"o":"m 497 -81 l 514 -18 b 758 63 611 -11 693 16 b 858 269 824 109 857 178 b 835 381 858 312 851 349 b 780 458 820 413 802 439 b 690 508 758 477 728 494 b 588 540 652 523 618 534 b 472 561 558 547 519 554 b 369 581 430 569 395 575 b 290 608 344 587 317 596 b 230 652 262 619 242 634 b 211 717 217 670 211 692 b 286 841 211 771 236 813 b 464 883 336 869 395 883 b 731 761 593 881 681 841 l 831 814 b 678 954 791 881 740 928 b 463 993 617 980 545 993 b 333 978 418 993 375 988 b 213 932 291 968 251 952 b 123 846 176 912 146 883 b 90 718 100 809 89 766 b 112 617 90 680 97 647 b 165 547 126 588 144 565 b 250 499 187 528 215 513 b 348 469 285 486 318 476 b 460 449 378 462 415 455 b 566 428 501 442 537 435 b 652 397 595 420 624 410 b 715 346 680 384 701 367 b 736 271 729 325 736 300 b 711 183 736 237 728 207 b 644 127 694 158 672 140 b 558 100 617 115 588 106 b 465 92 529 94 498 92 b 282 134 400 92 339 106 b 158 257 225 162 183 203 l 53 203 b 202 40 86 131 136 76 b 429 -19 268 4 344 -16 l 397 -131 l 421 -149 b 519 -151 460 -135 493 -135 b 547 -214 546 -166 556 -187 b 469 -258 539 -244 513 -258 b 365 -210 423 -258 388 -242 l 310 -258 b 468 -339 341 -310 394 -337 b 575 -312 508 -340 544 -331 b 636 -229 606 -293 627 -265 b 615 -126 644 -190 638 -156 b 499 -82 593 -96 554 -81 z "},"ş":{"ha":694,"x_min":0,"x_max":0,"o":"m 382 -71 l 397 -15 b 573 47 469 -9 527 12 b 643 190 619 82 642 130 b 625 276 644 223 638 251 b 580 333 612 300 597 319 b 510 369 563 347 539 359 b 434 389 480 378 455 385 b 354 400 413 393 387 396 b 183 501 241 413 184 447 b 230 576 182 534 198 559 b 353 601 262 594 303 602 b 546 535 432 601 497 579 l 611 610 b 350 701 544 671 456 701 b 219 683 303 702 259 696 b 115 617 178 670 144 648 b 72 500 87 585 72 546 b 95 410 72 465 80 435 b 161 353 110 386 132 367 b 246 321 190 339 218 328 b 346 303 274 313 307 307 b 484 268 406 295 452 284 b 531 193 516 252 531 227 b 477 111 530 155 512 128 b 357 86 442 94 402 86 b 113 193 251 86 170 122 l 47 114 b 322 -17 110 33 202 -10 l 290 -117 l 313 -133 b 406 -133 350 -120 381 -120 b 431 -189 431 -146 439 -165 b 357 -229 422 -216 398 -229 b 260 -186 314 -231 282 -217 l 207 -229 b 358 -303 237 -276 287 -301 b 459 -278 395 -304 429 -296 b 517 -203 489 -261 508 -236 b 498 -110 525 -168 519 -137 b 383 -72 477 -83 439 -70 z "},"Š":{"ha":922,"x_min":0,"x_max":0,"o":"m 239 1271 l 439 1083 l 513 1083 l 715 1271 l 715 1279 l 600 1279 l 476 1168 l 357 1279 l 239 1279 z m 731 764 l 831 817 b 678 957 791 884 740 931 b 463 996 617 983 545 996 b 333 981 418 996 375 991 b 213 935 291 970 251 955 b 123 849 176 914 146 886 b 90 721 100 812 89 769 b 112 620 90 683 97 649 b 165 549 126 591 144 567 b 250 502 187 531 215 516 b 348 472 285 489 318 478 b 460 451 378 465 415 458 b 566 431 501 445 537 438 b 652 400 595 423 624 413 b 715 349 680 387 701 370 b 736 274 729 327 736 302 b 711 185 736 239 728 210 b 644 130 694 161 672 142 b 558 103 617 117 588 108 b 465 94 529 97 498 94 b 282 137 400 94 339 109 b 158 260 225 165 183 206 l 53 206 b 215 35 88 129 142 72 b 464 -19 288 -1 371 -19 b 604 -4 513 -19 560 -14 b 730 43 649 6 691 22 b 824 133 769 64 801 94 b 860 269 848 172 860 218 b 837 381 860 312 852 349 b 781 458 822 413 803 439 b 692 508 759 477 730 494 b 590 540 654 523 620 534 b 474 561 559 547 521 554 b 371 581 431 569 397 575 b 291 608 345 587 318 596 b 231 652 264 619 244 634 b 213 717 219 670 213 692 b 288 841 213 771 238 813 b 465 883 338 869 397 883 b 732 761 594 881 683 841 z "},"š":{"ha":693,"x_min":0,"x_max":0,"o":"m 388 792 l 578 967 l 578 975 l 468 975 l 356 871 l 244 975 l 133 975 l 133 967 l 319 792 z m 49 114 l 114 193 b 358 86 171 122 253 86 b 478 110 403 85 443 93 b 532 190 513 126 531 153 b 485 265 533 225 517 250 b 347 300 453 281 407 293 b 247 318 308 305 275 311 b 163 350 219 325 191 336 b 96 408 134 364 112 383 b 72 497 80 432 72 462 b 115 614 72 544 87 582 b 219 681 144 645 178 668 b 350 699 259 694 303 700 b 611 607 456 699 544 668 l 546 532 b 351 599 496 576 431 599 b 228 574 301 600 260 591 b 182 499 197 556 181 531 b 229 429 183 467 199 444 b 353 397 260 414 301 404 b 419 388 380 394 402 390 b 484 374 437 385 459 380 b 547 349 509 367 531 359 b 596 314 564 340 580 328 b 631 260 612 300 623 282 b 642 188 639 239 643 214 b 558 35 641 122 613 71 b 354 -19 504 -1 436 -19 b 47 111 219 -19 117 24 z "},"Ţ":{"ha":838,"x_min":0,"x_max":0,"o":"m 358 1 l 326 -106 l 350 -124 b 447 -126 388 -110 420 -110 b 475 -189 474 -141 483 -162 b 426 -218 469 -208 453 -218 b 361 -229 412 -231 390 -235 b 294 -186 332 -224 310 -209 l 240 -235 b 322 -302 259 -266 286 -289 b 431 -314 357 -316 394 -319 b 515 -279 462 -309 490 -298 b 563 -206 539 -261 555 -236 b 544 -102 572 -166 566 -131 b 426 -60 522 -73 483 -59 l 442 0 l 479 0 l 479 861 l 813 861 l 813 971 l 25 971 l 25 861 l 358 861 z "},"ţ":{"ha":553,"x_min":0,"x_max":0,"o":"m 183 874 l 183 685 l 46 685 l 46 588 l 183 588 l 183 258 b 210 92 183 189 192 134 b 301 7 227 51 258 23 l 267 -115 l 286 -133 b 385 -133 326 -120 359 -120 b 413 -189 412 -146 421 -165 b 331 -232 405 -218 378 -232 b 232 -186 288 -230 255 -215 l 178 -232 b 249 -290 194 -257 217 -276 b 347 -307 280 -303 313 -309 b 446 -279 384 -306 417 -297 b 501 -204 475 -262 493 -237 b 481 -107 511 -166 504 -134 b 363 -69 457 -80 418 -68 l 379 -8 b 401 -10 384 -9 391 -10 b 535 24 444 -9 488 2 l 501 118 b 406 94 467 102 435 94 b 317 135 361 94 332 108 b 296 258 303 162 296 203 l 296 588 l 510 588 l 510 685 l 297 685 l 297 886 z "},"Ť":{"ha":838,"x_min":0,"x_max":0,"o":"m 185 1250 l 385 1064 l 458 1064 l 661 1250 l 661 1260 l 546 1260 l 422 1149 l 303 1260 l 185 1260 z m 357 860 l 357 0 l 481 0 l 481 860 l 813 860 l 813 971 l 25 971 l 25 860 z "},"ť":{"ha":603,"x_min":0,"x_max":0,"o":"m 281 886 l 168 874 l 168 685 l 46 685 l 46 588 l 168 588 l 168 225 b 385 -10 168 66 240 -12 b 519 24 428 -9 473 2 l 485 119 b 389 94 451 103 419 94 b 304 128 349 94 321 106 b 279 225 288 150 279 182 l 279 588 l 432 588 l 432 685 l 279 685 l 279 886 z m 551 883 l 493 653 l 578 653 l 660 883 z "},"Ŧ":{"ha":849,"x_min":0,"x_max":0,"o":"m 197 511 l 197 418 l 363 418 l 363 0 l 486 0 l 486 418 l 656 418 l 656 511 l 486 511 l 486 860 l 818 860 l 818 971 l 31 971 l 31 860 l 363 860 l 363 511 z "},"ŧ":{"ha":551,"x_min":0,"x_max":0,"o":"m 78 425 l 78 342 l 183 342 l 183 225 b 400 -10 183 66 256 -12 b 533 24 443 -9 487 2 l 500 119 b 404 94 467 103 435 94 b 296 225 332 94 296 138 l 296 342 l 456 342 l 456 425 l 296 425 l 296 588 l 510 588 l 510 685 l 297 685 l 297 886 l 183 874 l 183 685 l 46 685 l 46 588 l 183 588 l 183 425 z "},"Ũ":{"ha":1029,"x_min":0,"x_max":0,"o":"m 331 1118 l 404 1085 b 485 1125 419 1125 446 1139 b 523 1108 489 1124 502 1118 b 563 1089 544 1097 557 1091 b 662 1094 597 1076 630 1078 b 725 1188 694 1111 715 1142 l 649 1218 b 574 1182 636 1180 611 1168 b 535 1199 569 1183 556 1188 b 496 1217 515 1209 501 1215 b 390 1209 457 1230 422 1227 b 328 1121 359 1191 338 1162 z m 910 975 l 788 975 l 788 392 b 710 176 788 300 762 228 b 517 99 659 125 594 99 b 319 175 438 99 372 124 b 240 390 267 226 240 298 l 240 974 l 118 974 l 118 390 b 234 90 118 261 157 161 b 517 -15 311 20 406 -15 b 798 91 629 -15 722 20 b 911 390 873 162 911 262 l 911 974 z "},"ũ":{"ha":844,"x_min":0,"x_max":0,"o":"m 232 883 l 306 850 b 386 890 320 889 347 902 b 425 872 391 889 404 883 b 464 853 446 861 459 855 b 563 858 498 840 531 841 b 626 947 595 874 616 904 l 550 979 b 475 943 537 943 512 931 b 437 960 470 944 458 950 b 397 978 416 970 403 976 b 293 972 359 992 325 990 b 231 885 262 953 241 925 z m 636 1 l 742 1 l 742 688 l 628 688 l 628 319 b 569 161 628 256 608 204 b 417 96 529 119 479 97 b 264 153 352 96 301 115 b 208 310 227 191 208 243 l 208 688 l 94 688 l 94 308 b 177 76 94 210 122 133 b 393 -10 232 19 304 -10 b 632 111 494 -8 574 32 l 638 1 z "},"Ū":{"ha":1029,"x_min":0,"x_max":0,"o":"m 294 1182 l 294 1085 l 744 1085 l 744 1182 z m 910 972 l 788 972 l 788 389 b 710 174 788 297 762 225 b 517 96 659 122 594 96 b 319 172 438 96 372 121 b 240 388 267 223 240 295 l 240 971 l 118 971 l 118 388 b 234 88 118 258 157 158 b 517 -18 311 17 406 -18 b 798 88 629 -18 722 17 b 911 388 873 159 911 259 l 911 971 z "},"ū":{"ha":846,"x_min":0,"x_max":0,"o":"m 210 972 l 210 881 l 633 881 l 633 972 z m 636 0 l 742 0 l 742 686 l 628 686 l 628 318 b 569 160 628 255 608 202 b 417 94 529 117 479 95 b 264 151 352 94 301 113 b 208 308 227 189 208 242 l 208 686 l 94 686 l 94 307 b 177 74 94 209 122 131 b 393 -11 232 17 304 -11 b 632 110 494 -9 574 31 l 638 0 z "},"Ŭ":{"ha":1029,"x_min":0,"x_max":0,"o":"m 714 1253 l 619 1253 b 595 1183 619 1225 611 1202 b 522 1154 579 1164 555 1154 b 448 1183 489 1154 464 1164 b 424 1253 432 1202 424 1225 l 331 1253 b 382 1116 329 1194 346 1149 b 522 1067 418 1083 465 1067 b 663 1116 580 1067 626 1083 b 713 1253 699 1149 715 1194 z m 910 972 l 788 972 l 788 389 b 710 174 788 297 762 225 b 517 96 659 122 594 96 b 319 172 438 96 372 121 b 240 388 267 223 240 295 l 240 971 l 118 971 l 118 388 b 234 88 118 258 157 158 b 517 -18 311 17 406 -18 b 798 88 629 -18 722 17 b 911 388 873 159 911 259 l 911 971 z "},"ŭ":{"ha":846,"x_min":0,"x_max":0,"o":"m 617 968 l 525 968 b 501 901 525 941 517 919 b 429 874 486 883 462 874 b 356 901 397 874 372 883 b 332 968 340 919 332 941 l 240 968 b 290 837 238 913 254 869 b 428 789 325 805 371 789 b 565 836 483 789 529 805 b 615 967 601 868 618 911 z m 636 -1 l 742 -1 l 742 685 l 628 685 l 628 317 b 569 158 628 254 608 201 b 417 93 529 116 479 94 b 264 150 352 93 301 112 b 208 307 227 188 208 240 l 208 685 l 94 685 l 94 306 b 177 73 94 207 122 130 b 393 -12 232 16 304 -12 b 632 108 494 -11 574 30 l 638 -1 z "},"Ů":{"ha":1029,"x_min":0,"x_max":0,"o":"m 351 1154 b 397 1054 351 1112 367 1078 b 511 1018 428 1030 466 1018 b 624 1054 556 1018 593 1030 b 671 1153 655 1078 671 1111 b 624 1252 671 1195 655 1228 b 511 1288 592 1276 555 1288 b 399 1251 468 1288 430 1275 b 351 1153 367 1227 351 1194 z m 510 1222 b 581 1188 543 1222 567 1211 b 582 1119 596 1164 596 1141 b 510 1085 568 1096 544 1085 b 440 1119 477 1085 454 1096 b 440 1188 426 1141 426 1164 b 511 1222 454 1211 478 1222 z m 910 971 l 788 971 l 788 388 b 710 172 788 296 762 224 b 517 94 659 120 594 94 b 319 171 438 94 372 120 b 240 386 267 222 240 294 l 240 969 l 118 969 l 118 386 b 234 86 118 256 157 156 b 517 -19 311 16 406 -19 b 798 87 629 -19 722 16 b 911 386 873 158 911 257 l 911 969 z "},"ů":{"ha":846,"x_min":0,"x_max":0,"o":"m 269 889 b 313 791 269 847 284 815 b 422 756 342 767 379 756 b 533 791 466 756 503 767 b 578 889 563 815 578 847 b 531 988 578 931 562 963 b 422 1024 500 1012 464 1024 b 314 988 381 1024 344 1012 b 268 889 283 963 268 931 z m 419 958 b 490 925 452 958 475 947 b 491 858 504 903 504 880 b 421 824 478 835 454 824 b 353 858 389 824 367 835 b 353 925 340 880 340 903 b 421 958 367 947 389 958 z m 636 0 l 742 0 l 742 686 l 628 686 l 628 318 b 569 160 628 255 608 202 b 417 94 529 117 479 95 b 264 151 352 94 301 113 b 208 308 227 189 208 242 l 208 686 l 94 686 l 94 307 b 177 74 94 209 122 131 b 393 -11 232 17 304 -11 b 632 110 494 -9 574 31 l 638 0 z "},"Ű":{"ha":1031,"x_min":0,"x_max":0,"o":"m 451 1242 l 344 1074 l 440 1074 l 575 1242 z m 656 1240 l 550 1074 l 644 1074 l 781 1240 z m 790 972 l 913 972 l 913 389 b 799 90 913 260 875 160 b 518 -17 724 19 630 -17 b 322 26 447 -17 381 -2 b 176 164 263 55 214 101 b 118 389 137 227 118 302 l 118 972 l 240 972 l 240 389 b 319 172 240 295 267 223 b 517 96 372 121 438 96 b 710 173 594 96 659 122 b 788 388 762 224 788 296 l 788 971 z "},"ű":{"ha":844,"x_min":0,"x_max":0,"o":"m 347 974 l 247 815 l 339 815 l 467 971 l 467 974 z m 543 974 l 442 814 l 533 814 l 663 971 l 663 974 z m 740 686 l 740 0 l 635 0 l 629 110 b 392 -11 573 31 494 -9 b 177 74 304 -11 232 17 b 94 307 122 131 94 209 l 94 686 l 208 686 l 208 308 b 264 151 208 242 227 189 b 417 96 301 113 352 95 b 569 162 479 97 529 119 b 628 321 608 205 628 258 l 628 689 l 742 689 z "},"Ų":{"ha":1031,"x_min":0,"x_max":0,"o":"m 910 972 l 788 972 l 788 389 b 710 174 788 297 762 225 b 517 96 659 122 594 96 b 319 172 438 96 372 121 b 240 388 267 223 240 295 l 240 971 l 118 971 l 118 388 b 238 84 118 256 158 155 b 533 -17 318 13 417 -20 b 544 -167 506 -66 510 -116 b 704 -231 576 -214 629 -235 b 808 -201 741 -229 776 -219 b 879 -131 840 -184 863 -160 l 811 -83 b 700 -142 782 -120 745 -140 b 619 -103 661 -144 634 -131 b 617 -40 608 -83 608 -62 b 669 8 627 -18 644 -2 b 845 146 743 35 801 81 b 911 389 889 211 911 292 l 911 972 z "},"ų":{"ha":846,"x_min":0,"x_max":0,"o":"m 742 -68 l 742 686 l 628 686 l 628 318 b 569 160 628 255 608 202 b 417 94 529 117 479 95 b 264 151 352 94 301 113 b 208 308 227 189 208 242 l 208 686 l 94 686 l 94 307 b 177 74 94 209 122 131 b 393 -11 232 17 304 -11 b 633 110 495 -9 575 31 l 639 -17 b 526 -85 585 -26 548 -49 b 511 -192 505 -122 500 -157 b 573 -265 521 -222 542 -247 b 682 -290 604 -283 640 -291 b 843 -199 758 -287 812 -256 l 781 -154 b 679 -208 754 -188 720 -206 b 626 -197 659 -209 641 -205 b 597 -164 612 -188 602 -177 b 626 -92 587 -135 597 -111 b 743 -69 656 -73 695 -66 z "},"Ŵ":{"ha":1500,"x_min":0,"x_max":0,"o":"m 507 1090 l 507 1081 l 631 1081 l 750 1189 l 872 1081 l 996 1081 l 996 1090 l 789 1275 l 714 1275 z m 38 972 l 385 -1 l 499 -1 l 638 386 l 750 736 l 864 386 l 1003 -1 l 1118 -1 l 1464 972 l 1326 972 l 1061 168 l 789 972 l 711 972 l 442 168 l 174 972 z "},"ŵ":{"ha":1165,"x_min":0,"x_max":0,"o":"m 349 804 l 349 796 l 467 796 l 583 901 l 700 796 l 817 796 l 817 804 l 619 982 l 547 982 z m 43 686 l 286 -1 l 415 -1 l 508 254 l 583 504 l 657 254 l 750 -1 l 881 -1 l 1121 686 l 996 686 l 811 121 l 629 686 l 536 686 l 354 121 l 169 686 z "},"Ŷ":{"ha":944,"x_min":0,"x_max":0,"o":"m 235 1089 l 235 1081 l 354 1081 l 471 1186 l 588 1081 l 707 1081 l 707 1089 l 507 1268 l 435 1268 z m 408 394 l 408 0 l 533 0 l 533 394 l 917 968 l 917 972 l 769 972 l 471 511 l 179 972 l 32 972 l 32 968 z "},"ŷ":{"ha":765,"x_min":0,"x_max":0,"o":"m 151 803 l 151 794 l 268 794 l 382 899 l 496 794 l 614 794 l 614 803 l 418 982 l 347 982 z m 317 10 l 174 -324 l 297 -324 l 731 686 l 606 686 l 454 328 l 379 133 l 306 329 l 171 686 l 42 686 z "},"Ÿ":{"ha":944,"x_min":0,"x_max":0,"o":"m 393 1143 b 371 1195 393 1165 386 1183 b 323 1214 356 1208 340 1214 b 275 1195 306 1214 290 1208 b 253 1143 260 1183 253 1165 b 288 1082 253 1114 265 1094 b 358 1082 312 1070 335 1070 b 393 1143 381 1094 393 1114 z m 696 1143 b 674 1195 696 1165 688 1183 b 626 1214 659 1208 643 1214 b 578 1195 609 1214 593 1208 b 556 1143 563 1183 556 1165 b 591 1082 556 1114 567 1094 b 661 1082 615 1070 638 1070 b 696 1143 684 1094 696 1114 z m 533 394 l 533 0 l 408 0 l 408 394 l 32 968 l 32 972 l 179 972 l 471 511 l 769 972 l 917 972 l 917 968 z "},"Ź":{"ha":843,"x_min":0,"x_max":0,"o":"m 346 1089 l 346 1082 l 450 1082 l 589 1261 l 589 1265 l 449 1265 z m 71 858 l 71 972 l 789 972 l 789 919 l 218 119 l 789 119 l 789 0 l 42 0 l 42 65 l 603 858 z "},"ź":{"ha":654,"x_min":0,"x_max":0,"o":"m 258 804 l 358 804 l 492 968 l 492 972 l 357 972 l 258 811 z m 67 582 l 67 686 l 599 686 l 599 635 l 218 110 l 599 110 l 599 0 l 43 0 l 43 44 l 432 582 z "},"Ż":{"ha":843,"x_min":0,"x_max":0,"o":"m 360 1160 b 397 1094 360 1128 372 1106 b 472 1094 422 1081 447 1081 b 510 1160 497 1106 510 1128 b 472 1226 510 1191 497 1213 b 397 1226 447 1238 422 1238 b 360 1160 372 1213 360 1191 z m 71 858 l 71 972 l 789 972 l 789 919 l 218 119 l 789 119 l 789 0 l 42 0 l 42 65 l 603 858 z "},"ż":{"ha":654,"x_min":0,"x_max":0,"o":"m 419 899 b 382 965 419 930 407 952 b 307 965 357 977 332 977 b 269 899 282 952 269 930 b 307 833 269 867 282 845 b 382 833 332 820 357 820 b 419 899 407 845 419 867 z m 599 686 l 67 686 l 67 582 l 432 582 l 43 44 l 43 0 l 599 0 l 599 110 l 218 110 l 599 635 z "},"Ž":{"ha":843,"x_min":0,"x_max":0,"o":"m 192 1263 l 396 1076 l 469 1076 l 675 1263 l 675 1272 l 558 1272 l 433 1161 l 313 1272 l 192 1272 z m 71 972 l 71 860 l 607 860 l 42 65 l 42 0 l 789 0 l 789 117 l 213 117 l 789 919 l 789 972 z "},"ž":{"ha":654,"x_min":0,"x_max":0,"o":"m 381 785 l 574 963 l 574 971 l 463 971 l 346 867 l 235 971 l 121 971 l 121 963 l 311 785 z m 67 686 l 67 582 l 432 582 l 43 44 l 43 0 l 599 0 l 599 110 l 213 110 l 599 635 l 599 686 z "},"ſ":{"ha":425,"x_min":0,"x_max":0,"o":"m 179 0 l 293 0 l 293 732 b 414 881 293 831 333 881 b 519 846 445 881 481 869 l 567 931 b 411 981 518 964 466 981 b 242 915 339 981 282 959 b 181 732 201 872 181 811 l 181 678 l 46 678 l 46 578 l 181 578 l 181 -1 z "},"ƒ":{"ha":622,"x_min":0,"x_max":0,"o":"m 211 579 l 211 -1 b 100 -154 211 -103 174 -154 b 8 -121 69 -154 38 -143 l -37 -204 b 106 -253 11 -237 58 -253 b 269 -187 177 -253 231 -231 b 325 -3 306 -144 325 -82 l 325 578 l 540 578 l 540 678 l 325 678 l 325 732 b 446 881 325 831 365 881 b 551 846 477 881 513 869 l 599 931 b 443 981 550 964 498 981 b 274 915 371 981 314 959 b 213 732 233 872 213 811 l 213 678 l 78 678 l 78 578 l 213 578 z "},"Ǻ":{"ha":1056,"x_min":0,"x_max":0,"o":"m 463 1193 l 463 1188 l 572 1188 l 719 1307 l 719 1311 l 571 1311 z m 610 939 l 1032 0 l 897 0 l 801 214 l 253 214 l 158 0 l 24 0 l 444 938 b 376 1039 399 957 376 991 b 421 1126 376 1076 391 1105 b 525 1158 450 1148 485 1158 b 631 1126 566 1158 601 1147 b 675 1038 660 1104 675 1075 b 608 936 675 990 653 956 z m 524 1092 b 458 1063 492 1092 470 1082 b 458 1004 445 1043 445 1024 b 524 975 470 985 492 975 b 592 1004 556 975 579 985 b 591 1063 605 1024 604 1043 b 524 1092 578 1082 555 1092 z m 526 838 l 301 326 l 750 326 z "},"ǻ":{"ha":883,"x_min":0,"x_max":0,"o":"m 386 1024 l 386 1019 l 488 1019 l 621 1150 l 621 1153 l 486 1153 z m 293 863 b 335 952 293 900 307 930 b 438 985 364 974 398 985 b 539 952 476 985 510 974 b 582 863 568 930 582 900 b 540 772 582 824 568 793 b 438 739 513 750 478 739 b 334 772 396 739 361 750 b 293 861 307 793 293 823 z m 436 922 b 372 892 406 922 384 912 b 372 830 360 871 360 851 b 436 799 384 809 406 799 b 501 830 467 799 488 809 b 500 892 513 851 513 871 b 435 922 487 912 465 922 z m 779 -1 l 669 -1 l 667 124 b 558 20 641 78 605 44 b 413 -15 512 -3 463 -15 b 161 81 312 -16 228 16 b 61 343 94 147 61 234 b 162 602 61 451 95 538 b 414 699 229 666 313 699 b 562 663 467 699 516 687 b 667 563 608 640 643 606 l 668 688 l 779 688 l 779 1 z m 421 594 b 246 526 351 594 293 572 b 175 344 199 480 175 419 b 246 163 175 269 199 209 b 421 93 293 116 351 93 b 542 121 466 93 506 102 b 622 193 577 139 604 163 b 663 291 641 223 654 255 b 663 398 671 327 671 362 b 622 496 654 434 641 466 b 541 568 604 525 577 550 b 419 596 505 587 465 596 z "},"Ǽ":{"ha":1279,"x_min":0,"x_max":0,"o":"m 643 1089 l 643 1082 l 747 1082 l 886 1263 l 886 1267 l 747 1267 z m 118 0 l -24 0 l 579 972 l 1192 972 l 1192 857 l 731 857 l 731 544 l 1169 544 l 1169 431 l 731 431 l 731 118 l 1204 118 l 1204 0 l 615 0 l 615 278 l 286 278 z m 617 839 l 354 388 l 615 388 l 615 742 z "},"ǽ":{"ha":1408,"x_min":0,"x_max":0,"o":"m 647 813 l 647 806 l 744 806 l 875 975 l 875 978 l 743 978 z m 671 561 l 672 686 l 761 686 l 761 568 b 1022 701 820 657 907 701 b 1160 675 1070 701 1116 693 b 1274 599 1203 657 1241 632 b 1344 472 1306 566 1330 524 b 1353 300 1359 420 1362 363 l 771 300 b 849 149 777 237 803 187 b 1018 93 895 112 951 93 b 1141 116 1059 93 1100 101 b 1236 179 1182 131 1214 152 l 1311 110 b 1182 19 1279 71 1236 41 b 1017 -12 1128 -2 1073 -12 b 760 117 899 -12 813 31 l 757 0 l 668 0 l 668 125 b 559 22 642 80 606 45 b 413 -14 512 -2 463 -14 b 161 83 312 -15 228 17 b 61 344 94 148 61 235 b 162 603 61 453 95 539 b 414 700 229 668 313 700 b 565 665 468 700 518 688 b 669 564 611 641 646 607 z m 771 397 l 1244 397 b 1178 549 1242 463 1219 514 b 1013 603 1136 585 1081 603 b 852 549 950 603 897 585 b 771 399 807 513 780 463 z m 421 597 b 246 528 351 597 293 574 b 175 347 199 483 175 422 b 246 165 175 272 199 212 b 421 96 293 119 351 96 b 544 124 467 96 508 105 b 626 196 581 142 608 166 b 667 294 645 225 659 258 b 667 401 676 329 676 365 b 626 499 659 436 645 469 b 544 571 608 528 581 552 b 421 599 508 589 467 599 z "},"Ǿ":{"ha":1125,"x_min":0,"x_max":0,"o":"m 508 1096 l 508 1090 l 613 1090 l 751 1269 l 751 1274 l 613 1274 z m 268 68 l 167 -106 l 286 -106 l 358 18 b 564 -19 420 -7 489 -19 b 781 23 644 -19 717 -5 b 935 137 844 51 896 89 b 1026 297 975 184 1005 238 b 1057 483 1047 356 1057 419 b 1008 716 1057 566 1041 643 b 868 894 976 789 929 848 l 967 1060 l 844 1060 l 779 946 b 564 990 714 975 643 990 b 347 948 483 990 411 976 b 192 834 283 920 231 882 b 101 673 152 786 122 733 b 69 485 80 613 69 550 b 120 248 69 400 86 322 b 268 69 154 174 203 115 z m 719 847 l 329 175 b 227 310 285 210 251 255 b 192 483 203 364 192 422 b 286 762 190 592 221 684 b 565 878 351 839 444 878 b 719 847 622 878 673 868 z m 418 121 l 808 792 b 936 483 894 718 936 615 b 840 211 936 378 904 287 b 565 97 776 135 685 97 b 418 121 512 97 463 105 z "},"ǿ":{"ha":825,"x_min":0,"x_max":0,"o":"m 360 813 l 360 807 l 454 807 l 579 969 l 579 972 l 453 972 z m 219 -82 l 110 -82 l 193 58 b 61 342 105 124 61 219 b 160 598 61 445 94 531 b 413 699 227 665 311 699 b 556 671 463 699 511 689 l 607 758 l 718 758 l 639 624 b 765 342 723 554 765 460 b 667 87 765 238 732 153 b 414 -12 601 21 517 -12 b 276 11 365 -12 319 -5 l 221 -83 z m 253 157 l 501 575 b 414 593 473 587 444 593 b 242 522 344 593 287 569 b 175 340 197 474 175 413 b 253 156 175 262 201 200 z m 581 519 l 335 106 b 415 92 357 96 384 92 b 588 161 486 92 543 115 b 654 339 632 207 654 267 b 582 519 654 411 630 471 z "},"Ș":{"ha":922,"x_min":0,"x_max":0,"o":"m 731 764 l 831 817 b 678 957 791 884 740 931 b 463 996 617 983 545 996 b 333 981 418 996 375 991 b 213 935 291 970 251 955 b 123 849 176 914 146 886 b 90 721 100 812 89 769 b 112 620 90 683 97 649 b 165 549 126 591 144 567 b 250 502 187 531 215 516 b 348 472 285 489 318 478 b 460 451 378 465 415 458 b 566 431 501 445 537 438 b 652 400 595 423 624 413 b 715 349 680 387 701 370 b 736 274 729 327 736 302 b 711 185 736 239 728 210 b 644 130 694 161 672 142 b 558 103 617 117 588 108 b 465 94 529 97 498 94 b 282 137 400 94 339 109 b 158 260 225 165 183 206 l 53 206 b 215 35 88 129 142 72 b 464 -19 288 -1 371 -19 b 604 -4 513 -19 560 -14 b 730 43 649 6 691 22 b 824 133 769 64 801 94 b 860 269 848 172 860 218 b 837 381 860 312 852 349 b 781 458 822 413 803 439 b 692 508 759 477 730 494 b 590 540 654 523 620 534 b 474 561 559 547 521 554 b 371 581 431 569 397 575 b 291 608 345 587 318 596 b 231 652 264 619 244 634 b 213 717 219 670 213 692 b 288 841 213 771 238 813 b 465 883 338 869 397 883 b 732 761 594 881 683 841 z m 469 -254 l 433 -378 l 508 -378 b 535 -298 516 -356 525 -330 l 560 -225 b 568 -194 565 -208 568 -198 b 531 -131 568 -165 556 -144 b 458 -130 507 -119 482 -118 b 421 -193 433 -141 421 -162 b 468 -253 421 -225 437 -245 z "},"ș":{"ha":693,"x_min":0,"x_max":0,"o":"m 546 535 l 611 610 b 350 701 544 671 456 701 b 219 683 303 702 259 696 b 115 617 178 670 144 648 b 72 500 87 585 72 546 b 95 410 72 465 80 435 b 161 353 110 386 132 367 b 246 321 190 339 218 328 b 346 303 274 313 307 307 b 484 268 406 295 452 284 b 531 193 516 252 531 227 b 477 111 530 155 512 128 b 357 86 442 94 402 86 b 113 192 251 86 170 121 l 47 113 b 354 -18 117 25 219 -18 b 558 36 436 -18 504 0 b 642 189 613 72 641 123 b 624 274 643 221 637 250 b 578 332 611 299 596 318 b 508 367 561 346 538 358 b 433 388 479 377 453 384 b 353 399 412 391 385 395 b 182 500 240 412 183 445 b 228 575 181 532 197 557 b 351 600 260 593 301 601 b 544 533 431 600 495 578 z m 342 -244 l 308 -362 l 379 -362 b 404 -288 386 -342 394 -317 b 428 -219 414 -259 422 -236 b 436 -189 433 -203 436 -193 b 401 -128 436 -160 425 -140 b 332 -127 378 -116 355 -116 b 297 -187 309 -139 297 -159 b 342 -246 297 -219 312 -238 z "},"Ț":{"ha":838,"x_min":0,"x_max":0,"o":"m 357 860 l 357 0 l 481 0 l 481 860 l 813 860 l 813 971 l 25 971 l 25 860 z m 394 -251 l 358 -375 l 433 -375 b 460 -295 441 -354 450 -327 l 485 -222 b 493 -192 490 -206 493 -195 b 456 -127 493 -161 481 -140 b 383 -126 432 -115 407 -114 b 346 -189 358 -137 346 -158 b 393 -250 346 -222 362 -243 z "},"ț":{"ha":553,"x_min":0,"x_max":0,"o":"m 297 886 l 183 874 l 183 685 l 46 685 l 46 588 l 183 588 l 183 225 b 400 -10 183 66 256 -12 b 533 24 443 -9 487 2 l 500 119 b 404 94 467 103 435 94 b 296 225 332 94 296 138 l 296 588 l 510 588 l 510 685 l 297 685 z m 326 -243 l 292 -361 l 364 -361 b 389 -287 370 -341 379 -316 b 413 -218 399 -258 407 -235 b 421 -187 418 -201 421 -191 b 386 -128 421 -160 409 -140 b 317 -127 363 -116 340 -116 b 282 -187 294 -139 282 -159 b 326 -246 282 -219 297 -238 z "},"ȷ":{"ha":322,"x_min":0,"x_max":0,"o":"m 217 688 l 104 688 l 104 -90 b 86 -198 104 -138 98 -174 b 10 -235 74 -222 49 -234 b -83 -211 -21 -237 -52 -229 l -121 -303 b 15 -342 -77 -329 -32 -342 b 172 -277 88 -342 141 -320 b 218 -89 204 -234 219 -171 l 218 689 z "},"ˆ":{"ha":588,"x_min":0,"x_max":0,"o":"m 242 982 l 42 796 l 42 786 l 160 786 l 278 896 l 397 786 l 515 786 l 515 796 l 315 982 z "},"ˇ":{"ha":561,"x_min":0,"x_max":0,"o":"m 38 964 l 239 776 l 311 776 l 514 964 l 514 974 l 399 974 l 275 861 l 156 974 l 38 974 z "},"˘":{"ha":485,"x_min":0,"x_max":0,"o":"m 426 972 l 332 972 b 308 901 332 944 324 920 b 235 872 291 882 267 872 b 160 901 201 872 177 882 b 136 971 144 920 136 943 l 44 971 b 94 833 42 913 58 867 b 235 783 131 800 177 783 b 375 831 292 782 339 798 b 425 968 411 864 428 910 z "},"˙":{"ha":281,"x_min":0,"x_max":0,"o":"m 50 910 b 88 843 50 878 63 856 b 163 842 113 830 138 830 b 200 908 188 855 200 877 b 163 975 200 940 188 962 b 88 976 138 988 113 988 b 50 910 63 963 50 941 z "},"˚":{"ha":500,"x_min":0,"x_max":0,"o":"m 65 846 b 112 735 65 799 81 762 b 228 696 143 709 181 696 b 345 736 274 696 313 709 b 393 847 377 763 393 800 b 344 956 393 894 377 930 b 229 996 311 983 273 996 b 115 956 185 996 147 982 b 67 846 83 929 67 892 z m 229 922 b 303 884 263 922 288 909 b 303 808 318 859 318 833 b 229 769 289 782 264 769 b 157 808 195 769 171 782 b 157 884 143 833 143 859 b 229 922 171 909 195 922 z "},"˛":{"ha":546,"x_min":0,"x_max":0,"o":"m 336 -81 l 315 -25 b 210 -26 276 -19 241 -20 b 140 -55 179 -32 156 -41 b 99 -102 123 -68 110 -84 b 84 -156 89 -120 84 -138 b 90 -207 84 -174 87 -191 b 151 -280 100 -237 121 -262 b 260 -306 182 -298 218 -306 b 421 -212 336 -302 389 -271 l 357 -169 b 256 -222 330 -203 296 -220 b 175 -176 214 -224 187 -209 b 210 -97 164 -144 175 -117 b 335 -79 244 -76 286 -70 z "},"˜":{"ha":497,"x_min":0,"x_max":0,"o":"m 42 915 l 115 882 b 196 924 130 924 157 938 b 234 906 200 923 213 917 b 274 888 255 896 268 889 b 373 892 308 874 341 875 b 436 986 405 909 426 941 l 360 1018 b 285 981 347 979 322 967 b 246 999 280 981 267 988 b 206 1018 225 1010 211 1016 b 101 1010 167 1032 132 1029 b 39 919 70 991 49 961 z "},"˝":{"ha":540,"x_min":0,"x_max":0,"o":"m 31 800 l 132 800 l 272 971 l 272 974 l 142 974 z m 244 799 l 344 799 l 486 971 l 486 974 l 356 974 z "},"̦":{"ha":0,"x_min":0,"x_max":0,"o":"m 310 -249 l 274 -375 l 350 -375 b 378 -293 357 -353 367 -325 b 403 -219 389 -261 397 -236 b 411 -189 408 -203 411 -193 b 374 -124 411 -158 399 -137 b 299 -122 349 -111 324 -110 b 263 -186 275 -134 263 -156 b 311 -249 263 -219 279 -240 z "},"Δ":{"ha":963,"x_min":0,"x_max":0,"o":"m 943 0 l 507 972 l 425 972 l -11 0 z m 465 836 l 788 100 l 144 100 z "},"Ω":{"ha":1135,"x_min":0,"x_max":0,"o":"m 117 106 l 117 0 l 464 0 l 464 108 b 264 250 378 131 311 178 b 193 490 217 322 193 402 b 291 763 193 597 226 688 b 568 876 356 839 449 876 b 845 763 688 876 780 839 b 943 490 910 688 943 597 b 872 250 943 402 919 322 b 672 107 825 178 758 130 l 672 -1 l 1019 -1 l 1019 104 l 849 104 b 1008 269 919 147 972 202 b 1063 493 1044 337 1063 412 b 928 847 1063 633 1018 751 b 567 990 838 942 718 990 b 301 922 466 990 377 967 b 130 741 225 876 168 816 b 72 493 91 666 72 584 b 126 269 72 412 90 337 b 286 106 163 202 216 147 z "},"μ":{"ha":843,"x_min":0,"x_max":0,"o":"m 115 -307 l 233 -307 l 233 86 b 439 -29 265 9 333 -29 b 559 0 481 -29 521 -19 b 646 85 597 19 626 48 l 656 0 l 763 0 l 763 672 l 643 672 l 643 300 b 584 131 643 226 623 169 b 442 72 545 92 497 72 b 296 129 386 72 338 91 b 233 283 254 167 233 219 l 233 674 l 115 674 l 115 -306 z "},"π":{"ha":946,"x_min":0,"x_max":0,"o":"m 199 0 l 311 0 l 311 588 l 628 588 l 628 206 b 690 28 627 125 647 66 b 879 -4 732 -9 795 -20 l 872 86 b 768 104 822 78 788 84 b 739 206 749 125 739 158 l 739 586 l 900 586 l 900 685 l 39 685 l 39 586 l 197 586 l 197 -1 z "},"Ẁ":{"ha":1500,"x_min":0,"x_max":0,"o":"m 572 1257 l 707 1081 l 810 1081 l 810 1088 l 708 1260 l 572 1260 z m 38 972 l 385 -1 l 499 -1 l 638 386 l 750 736 l 864 386 l 1003 -1 l 1118 -1 l 1464 972 l 1326 972 l 1061 168 l 789 972 l 711 972 l 442 168 l 174 972 z "},"ẁ":{"ha":1165,"x_min":0,"x_max":0,"o":"m 421 968 l 549 804 l 644 804 l 644 811 l 550 972 l 421 972 z m 43 686 l 286 -1 l 415 -1 l 508 254 l 583 504 l 657 254 l 750 -1 l 881 -1 l 1121 686 l 996 686 l 811 121 l 629 686 l 536 686 l 354 121 l 169 686 z "},"Ẃ":{"ha":1500,"x_min":0,"x_max":0,"o":"m 690 1089 l 690 1083 l 790 1083 l 921 1249 l 921 1253 l 789 1253 z m 499 -1 l 385 -1 l 38 972 l 174 972 l 442 168 l 711 972 l 789 972 l 1061 168 l 1326 972 l 1464 972 l 1118 -1 l 1003 -1 l 864 386 l 750 736 l 638 386 z "},"ẃ":{"ha":1165,"x_min":0,"x_max":0,"o":"m 521 813 l 521 807 l 617 807 l 742 968 l 742 972 l 614 972 z m 415 -1 l 286 -1 l 43 686 l 169 686 l 354 121 l 536 686 l 629 686 l 811 121 l 996 686 l 1121 686 l 881 -1 l 750 -1 l 657 254 l 583 504 l 508 254 z "},"Ẅ":{"ha":1500,"x_min":0,"x_max":0,"o":"m 515 1169 b 552 1106 515 1140 528 1119 b 626 1106 577 1094 601 1094 b 664 1168 651 1118 664 1138 b 649 1213 664 1186 659 1201 b 611 1236 638 1226 626 1233 b 567 1236 596 1239 582 1239 b 531 1214 553 1233 541 1226 b 515 1169 520 1202 515 1187 z m 835 1169 b 858 1117 835 1147 842 1130 b 909 1099 873 1105 890 1099 b 960 1117 928 1099 945 1105 b 983 1169 976 1130 983 1147 b 960 1222 983 1192 976 1209 b 909 1240 945 1234 928 1240 b 858 1222 890 1240 873 1234 b 835 1169 842 1209 835 1192 z m 499 0 l 385 0 l 38 974 l 174 974 l 442 169 l 711 974 l 789 974 l 1061 169 l 1326 974 l 1464 974 l 1118 0 l 1003 0 l 864 388 l 750 738 l 638 388 z "},"ẅ":{"ha":1165,"x_min":0,"x_max":0,"o":"m 367 911 b 401 851 367 882 378 862 b 471 851 425 839 448 839 b 506 911 494 862 506 882 b 484 963 506 933 498 951 b 436 982 470 976 454 982 b 388 963 419 982 403 976 b 367 911 374 951 367 933 z m 665 910 b 699 851 665 882 677 862 b 768 851 722 839 745 839 b 803 911 791 862 803 882 b 789 956 803 929 798 944 b 754 977 780 968 768 975 b 713 976 740 979 727 979 b 679 954 700 974 688 966 b 665 910 670 942 665 927 z m 415 -3 l 286 -3 l 43 685 l 169 685 l 354 119 l 536 685 l 629 685 l 811 119 l 996 685 l 1121 685 l 881 -3 l 750 -3 l 657 253 l 583 503 l 508 253 z "},"Ỳ":{"ha":944,"x_min":0,"x_max":0,"o":"m 304 1249 l 436 1079 l 535 1079 l 535 1086 l 438 1251 l 304 1251 z m 408 394 l 408 0 l 533 0 l 533 394 l 917 968 l 917 972 l 769 972 l 471 511 l 179 972 l 32 972 l 32 968 z "},"ỳ":{"ha":765,"x_min":0,"x_max":0,"o":"m 225 969 l 356 810 l 454 810 l 454 817 l 358 972 l 225 972 z m 731 686 l 606 686 l 454 328 l 379 133 l 306 329 l 171 686 l 42 686 l 317 10 l 174 -324 l 297 -324 z "},"–":{"ha":836,"x_min":0,"x_max":0,"o":"m 100 449 l 100 342 l 736 342 l 736 449 z "},"—":{"ha":978,"x_min":0,"x_max":0,"o":"m 100 449 l 100 342 l 878 342 l 878 449 z "},"‘":{"ha":326,"x_min":0,"x_max":0,"o":"m 261 974 l 168 974 l 75 708 l 197 708 z "},"’":{"ha":319,"x_min":0,"x_max":0,"o":"m 78 703 l 172 703 l 265 974 l 143 974 z "},"‚":{"ha":336,"x_min":0,"x_max":0,"o":"m 53 -160 l 146 -160 l 239 110 l 117 110 z "},"“":{"ha":528,"x_min":0,"x_max":0,"o":"m 260 969 l 167 969 l 72 701 l 194 701 z m 463 969 l 368 969 l 274 701 l 396 701 z "},"”":{"ha":524,"x_min":0,"x_max":0,"o":"m 81 710 l 175 710 l 268 974 l 146 974 z m 283 710 l 376 710 l 469 974 l 347 974 z "},"„":{"ha":538,"x_min":0,"x_max":0,"o":"m 51 -160 l 146 -160 l 239 110 l 117 110 z m 254 -160 l 347 -160 l 440 110 l 318 110 z "},"†":{"ha":789,"x_min":0,"x_max":0,"o":"m 742 600 l 742 704 l 456 704 l 456 972 l 335 972 l 335 704 l 47 704 l 47 600 l 335 600 l 335 -174 l 456 -174 l 456 600 z "},"‡":{"ha":851,"x_min":0,"x_max":0,"o":"m 774 601 l 774 706 l 486 706 l 486 972 l 365 972 l 365 706 l 78 706 l 78 601 l 365 601 l 365 250 l 78 250 l 78 146 l 365 146 l 365 -179 l 486 -179 l 486 146 l 774 146 l 774 250 l 486 250 l 486 601 z "},"•":{"ha":549,"x_min":0,"x_max":0,"o":"m 275 238 b 384 279 319 238 355 251 b 428 389 413 307 428 344 b 384 500 428 434 413 471 b 275 543 355 529 319 543 b 163 501 230 543 192 529 b 119 390 134 472 119 436 b 163 281 119 345 134 308 b 275 239 192 253 230 239 z "},"…":{"ha":879,"x_min":0,"x_max":0,"o":"m 90 63 b 128 -4 90 31 103 9 b 203 -5 153 -17 178 -17 b 240 61 228 8 240 30 b 203 128 240 93 228 115 b 128 128 178 141 153 141 b 90 63 103 116 90 94 z m 365 63 b 403 -4 365 31 378 9 b 478 -5 428 -17 453 -17 b 515 61 503 8 515 30 b 478 128 515 93 503 115 b 403 128 453 141 428 141 b 365 63 378 116 365 94 z m 639 63 b 676 -4 639 31 651 9 b 751 -5 701 -17 726 -17 b 789 61 776 8 789 30 b 751 128 789 93 776 115 b 676 128 726 141 701 141 b 639 63 651 116 639 94 z "},"‰":{"ha":1542,"x_min":0,"x_max":0,"o":"m 283 985 b 176 961 244 985 208 977 b 106 901 145 945 121 925 b 70 819 90 876 78 849 b 70 728 62 789 62 759 b 106 647 78 698 90 671 b 176 586 121 622 145 602 b 283 563 208 570 244 563 b 424 606 339 563 386 577 b 494 712 462 635 485 671 b 494 835 503 753 503 794 b 424 941 485 877 462 912 b 283 985 386 970 339 985 z m 779 975 l 150 0 l 282 0 l 910 975 z m 283 894 b 361 869 314 894 340 886 b 400 810 382 853 395 833 b 400 740 405 787 405 763 b 362 679 395 716 383 696 b 285 654 341 663 315 654 b 175 715 233 654 196 674 b 174 835 154 755 153 795 b 282 894 195 875 231 894 z m 781 413 b 640 369 725 413 678 398 b 570 263 602 340 579 304 b 570 140 561 222 561 181 b 640 34 579 98 602 63 b 779 -10 677 5 724 -10 b 919 34 835 -10 881 5 b 990 140 957 63 981 98 b 990 263 998 181 998 222 b 919 369 981 304 957 340 b 779 413 881 398 835 413 z m 1289 413 b 1149 369 1233 413 1187 398 b 1078 263 1111 340 1087 304 b 1078 140 1070 222 1070 181 b 1148 34 1087 98 1110 63 b 1288 -10 1185 5 1232 -10 b 1428 34 1343 -10 1390 5 b 1498 140 1466 63 1489 98 b 1498 263 1507 181 1507 222 b 1428 369 1489 304 1466 340 b 1288 413 1390 398 1343 413 z m 778 324 b 855 299 808 324 834 315 b 894 238 876 282 889 262 b 894 166 899 213 899 190 b 856 106 890 142 877 122 b 778 81 834 89 808 81 b 670 142 727 81 691 101 b 670 263 649 182 649 223 b 778 324 691 303 727 324 z m 1288 324 b 1396 263 1338 324 1375 303 b 1397 142 1417 223 1417 182 b 1289 81 1376 101 1340 81 b 1181 142 1238 81 1202 101 b 1181 263 1160 182 1160 223 b 1289 324 1202 303 1238 324 z "},"‹":{"ha":439,"x_min":0,"x_max":0,"o":"m 61 414 l 253 107 l 375 107 l 185 414 l 375 719 l 253 719 z "},"›":{"ha":442,"x_min":0,"x_max":0,"o":"m 257 413 l 67 106 l 189 106 l 381 413 l 189 718 l 67 718 z "},"⁄":{"ha":213,"x_min":0,"x_max":0,"o":"m -211 -4 l -104 -4 l 422 979 l 315 979 z "},"⁰":{"ha":540,"x_min":0,"x_max":0,"o":"m 57 919 l 57 846 b 88 723 57 799 67 758 b 167 647 109 688 135 663 b 270 624 199 631 234 624 b 373 647 307 624 341 631 b 452 723 405 663 431 688 b 483 846 473 758 483 799 l 483 919 b 460 1028 483 960 475 997 b 399 1101 444 1060 424 1084 b 315 1137 374 1117 346 1129 b 224 1138 285 1145 254 1145 b 142 1102 194 1130 167 1118 b 81 1030 117 1086 96 1062 b 57 921 65 998 57 962 z m 146 846 l 146 921 b 171 1010 146 956 154 986 b 232 1055 188 1034 208 1049 b 303 1055 256 1061 280 1061 b 364 1010 327 1049 347 1034 b 389 921 381 986 389 956 l 389 846 b 351 745 389 803 376 770 b 267 709 325 721 297 709 b 184 746 237 709 209 722 b 146 846 159 770 146 803 z "},"⁴":{"ha":508,"x_min":0,"x_max":0,"o":"m 396 1135 l 274 1135 l 35 810 l 39 735 l 306 735 l 306 635 l 396 635 l 396 735 l 456 735 l 456 817 l 396 817 z m 306 817 l 135 817 l 306 1047 z "},"⁵":{"ha":503,"x_min":0,"x_max":0,"o":"m 251 953 l 153 953 l 153 1053 l 425 1053 l 425 1133 l 65 1133 l 65 872 l 251 872 b 363 788 325 872 363 844 b 251 704 363 732 325 704 b 143 774 179 704 143 727 l 54 774 b 113 658 55 720 75 681 b 254 622 150 634 198 622 b 401 665 315 622 364 637 b 456 786 437 694 456 734 b 403 908 456 839 439 879 b 253 950 367 936 317 950 z "},"⁶":{"ha":521,"x_min":0,"x_max":0,"o":"m 156 901 l 156 976 b 264 1058 156 1031 192 1058 b 372 1001 331 1058 368 1039 l 463 1001 b 403 1104 461 1047 441 1081 b 263 1139 366 1127 319 1139 b 123 1098 208 1139 161 1125 b 65 976 84 1071 65 1030 l 65 783 b 125 663 65 731 85 690 b 268 621 165 635 213 621 b 410 660 323 621 370 634 b 471 781 451 687 471 727 b 413 903 471 838 451 879 b 268 940 374 928 325 940 b 154 900 219 940 181 927 z m 268 699 b 188 719 237 699 210 705 b 154 781 165 732 154 753 b 188 842 154 807 166 828 b 268 863 211 856 238 863 b 347 842 299 863 325 856 b 379 779 368 828 379 807 b 347 717 379 751 368 731 b 268 697 325 704 299 697 z "},"⁷":{"ha":440,"x_min":0,"x_max":0,"o":"m 40 1133 l 40 1051 l 296 1051 l 75 633 l 179 633 l 417 1094 l 411 1133 z "},"⁸":{"ha":533,"x_min":0,"x_max":0,"o":"m 53 767 b 115 650 53 713 74 674 b 265 614 157 626 207 614 b 416 649 324 613 374 625 b 479 765 458 673 479 712 b 453 840 479 792 470 817 b 385 886 435 862 413 878 b 468 996 440 907 468 944 b 408 1105 468 1045 448 1081 b 265 1140 367 1128 320 1140 b 124 1104 211 1140 163 1128 b 64 996 84 1080 64 1044 b 150 888 64 944 93 908 b 82 842 122 879 100 864 b 56 768 64 821 56 796 z m 376 996 b 346 942 376 972 366 954 b 268 925 325 931 300 925 b 190 942 237 925 211 931 b 160 996 170 954 160 972 b 192 1048 159 1019 170 1036 b 268 1065 215 1059 240 1065 b 343 1048 296 1065 321 1059 b 376 994 365 1036 376 1019 z m 386 768 b 350 712 386 744 374 725 b 268 692 326 698 299 692 b 186 712 238 692 210 698 b 150 767 162 725 150 744 b 185 826 150 793 162 812 b 268 846 209 839 237 846 b 351 824 300 846 327 839 b 386 765 374 810 386 790 z "},"⁹":{"ha":524,"x_min":0,"x_max":0,"o":"m 456 785 l 456 979 b 396 1099 456 1032 436 1072 b 253 1140 356 1127 308 1140 b 110 1101 198 1140 151 1127 b 50 981 70 1074 50 1034 b 108 856 50 922 69 881 b 253 819 147 832 195 819 b 367 860 302 819 340 833 l 367 783 b 258 701 367 729 331 701 b 150 758 191 701 155 720 l 60 758 b 119 656 62 713 81 679 b 260 621 156 632 203 621 b 400 662 314 621 361 634 b 458 783 439 689 458 730 z m 254 1060 b 335 1040 286 1060 313 1053 b 368 978 357 1026 368 1006 b 334 917 368 951 357 931 b 254 896 311 903 285 896 b 176 917 224 896 197 903 b 143 979 154 931 143 951 b 176 1040 143 1007 154 1027 b 254 1060 197 1053 224 1060 z "},"₀":{"ha":540,"x_min":0,"x_max":0,"o":"m 57 169 l 57 96 b 88 -27 57 49 67 8 b 167 -102 109 -62 135 -87 b 270 -125 199 -117 234 -125 b 373 -102 307 -125 341 -117 b 452 -27 405 -87 431 -62 b 483 96 473 8 483 49 l 483 169 b 452 292 483 217 473 257 b 373 367 431 326 405 351 b 270 390 341 382 307 390 b 167 367 234 390 199 383 b 88 292 135 352 109 327 b 57 169 67 258 57 217 z m 146 94 l 146 168 b 171 257 146 203 154 233 b 232 302 188 281 208 296 b 303 302 256 308 280 308 b 364 257 327 296 347 281 b 389 168 381 233 389 203 l 389 94 b 351 -6 389 52 376 18 b 267 -42 325 -31 297 -43 b 184 -6 237 -42 209 -30 b 146 94 159 19 146 52 z "},"₁":{"ha":356,"x_min":0,"x_max":0,"o":"m 51 -39 l 51 -119 l 319 -119 l 319 -39 l 231 -39 l 231 382 l 64 342 l 64 261 l 139 279 l 139 -39 z "},"₂":{"ha":504,"x_min":0,"x_max":0,"o":"m 57 239 l 147 239 b 250 311 148 287 182 311 b 356 236 320 311 356 286 b 235 154 356 188 315 161 b 106 113 183 150 140 137 b 54 4 71 90 54 53 l 54 -117 l 442 -117 l 442 -26 l 147 -26 l 147 3 b 264 82 147 49 186 75 b 325 91 288 84 308 87 b 382 112 342 95 361 102 b 431 158 403 122 420 137 b 449 236 443 180 449 206 b 393 355 449 291 430 330 b 251 392 356 379 309 392 b 116 355 199 392 153 379 b 60 239 78 330 60 292 z "},"₃":{"ha":508,"x_min":0,"x_max":0,"o":"m 144 26 l 50 26 b 108 -89 51 -25 70 -64 b 247 -126 146 -114 193 -126 b 394 -89 305 -126 353 -114 b 454 32 434 -64 454 -24 b 431 98 454 55 447 77 b 368 140 416 119 395 133 b 422 178 390 147 408 159 b 442 244 435 197 442 219 b 385 353 442 292 423 328 b 249 390 347 378 301 390 b 115 353 197 390 152 378 b 58 242 77 329 58 292 l 140 242 b 249 314 145 290 181 314 b 326 292 283 314 309 307 b 351 246 343 278 351 263 b 247 179 350 201 316 179 l 176 179 l 176 106 l 253 106 b 333 83 289 106 316 98 b 360 33 351 69 360 52 b 326 -24 360 6 349 -12 b 250 -40 304 -35 279 -40 b 143 31 183 -40 148 -17 z "},"₄":{"ha":507,"x_min":0,"x_max":0,"o":"m 396 382 l 274 382 l 35 57 l 39 -19 l 306 -19 l 306 -119 l 396 -119 l 396 -19 l 454 -19 l 454 63 l 396 63 z m 306 63 l 135 63 l 306 294 z "},"₅":{"ha":503,"x_min":0,"x_max":0,"o":"m 251 201 l 153 201 l 153 303 l 425 303 l 425 383 l 65 383 l 65 121 l 251 121 b 363 36 325 121 363 93 b 251 -46 363 -19 325 -46 b 143 24 179 -46 143 -23 l 54 24 b 113 -93 55 -30 75 -69 b 254 -129 150 -117 198 -129 b 401 -85 315 -129 364 -115 b 456 35 437 -56 456 -16 b 403 158 456 88 439 129 b 253 200 367 186 317 200 z "},"₆":{"ha":521,"x_min":0,"x_max":0,"o":"m 156 153 l 156 228 b 264 310 156 282 192 310 b 372 253 331 310 368 291 l 463 253 b 403 356 461 298 441 332 b 263 390 366 379 319 390 b 123 349 208 390 161 377 b 65 228 84 322 65 281 l 65 35 b 125 -86 65 -18 85 -58 b 268 -128 165 -114 213 -128 b 410 -88 323 -128 370 -115 b 471 32 451 -62 471 -22 b 413 155 471 89 451 130 b 268 192 374 179 325 192 b 154 151 219 192 181 178 z m 268 -50 b 188 -30 237 -50 210 -43 b 154 32 165 -16 154 4 b 188 93 154 59 166 79 b 268 114 211 107 238 114 b 347 93 299 114 325 107 b 379 31 368 79 379 58 b 347 -31 379 3 368 -18 b 268 -51 325 -45 299 -51 z "},"₇":{"ha":438,"x_min":0,"x_max":0,"o":"m 39 382 l 39 300 l 294 300 l 74 -119 l 178 -119 l 415 343 l 410 382 z "},"₈":{"ha":535,"x_min":0,"x_max":0,"o":"m 54 25 b 117 -92 54 -29 75 -68 b 267 -128 158 -116 208 -128 b 418 -92 326 -128 376 -116 b 481 25 460 -68 481 -29 b 454 99 481 52 472 77 b 386 146 437 122 414 138 b 469 254 442 166 469 202 b 409 363 469 303 449 340 b 267 399 369 387 321 399 b 125 363 212 399 165 387 b 65 254 85 338 65 302 b 151 144 65 201 94 165 b 82 99 123 136 100 121 b 56 25 64 78 56 53 z m 376 251 b 346 198 376 227 366 209 b 268 181 325 186 300 181 b 190 198 237 181 211 186 b 160 251 170 209 160 227 b 192 305 159 275 169 293 b 268 322 214 316 239 322 b 343 305 296 322 321 316 b 376 251 365 293 376 275 z m 386 25 b 350 -30 386 2 374 -16 b 268 -50 326 -43 299 -50 b 186 -30 238 -50 210 -43 b 150 25 162 -16 150 2 b 185 85 150 52 162 72 b 268 106 209 99 237 106 b 351 84 300 106 327 98 b 386 25 374 70 386 50 z "},"₉":{"ha":519,"x_min":0,"x_max":0,"o":"m 456 35 l 456 228 b 396 349 456 281 436 321 b 253 390 356 376 308 390 b 110 351 198 390 151 377 b 50 231 70 324 50 284 b 108 108 50 173 69 132 b 253 71 147 83 195 71 b 367 111 302 71 340 84 l 367 36 b 258 -46 367 -19 331 -46 b 150 11 191 -46 155 -27 l 60 11 b 119 -92 62 -34 81 -69 b 260 -126 156 -115 203 -126 b 399 -85 314 -126 361 -113 b 457 36 438 -58 457 -18 z m 253 313 b 333 292 284 313 311 306 b 367 231 356 279 367 258 b 333 169 367 204 355 183 b 253 149 310 156 283 149 b 174 169 222 149 196 156 b 142 232 153 183 142 204 b 174 294 142 260 153 280 b 253 314 196 307 222 314 z "},"€":{"ha":851,"x_min":0,"x_max":0,"o":"m 800 11 l 767 125 b 631 100 722 108 677 100 b 279 349 437 100 320 183 l 567 349 l 588 444 l 257 444 b 256 481 256 451 256 463 b 257 521 256 499 256 513 l 608 521 l 632 618 l 281 618 b 631 871 326 787 443 871 b 738 857 668 871 703 866 l 772 964 b 628 986 722 979 674 986 b 306 885 494 986 386 952 b 151 618 225 817 174 728 l 58 618 l 58 521 l 138 521 b 136 478 137 512 136 497 b 138 440 136 456 137 444 l 60 440 l 60 344 l 151 344 b 305 76 175 230 227 140 b 629 -21 383 11 491 -21 b 800 7 688 -21 744 -12 z "},"ℓ":{"ha":557,"x_min":0,"x_max":0,"o":"m 282 204 l 282 336 b 510 725 418 460 494 590 b 357 993 533 904 482 993 b 188 940 275 993 219 975 b 140 761 156 905 140 845 l 140 299 b 54 257 114 284 86 270 l 74 193 l 142 226 b 232 19 142 121 172 52 b 463 17 292 -13 369 -14 l 463 113 b 333 119 411 100 368 103 b 282 204 299 135 282 163 z m 278 761 b 299 873 278 804 285 841 b 360 921 314 905 334 921 b 429 889 391 921 414 910 b 449 817 444 868 450 844 b 443 738 447 790 445 763 b 276 432 431 648 375 546 b 277 605 276 467 277 525 b 278 761 278 685 278 737 z "},"℗":{"ha":1150,"x_min":0,"x_max":0,"o":"m 575 992 b 208 847 420 992 298 943 b 74 485 119 750 74 629 b 208 124 74 341 119 221 b 575 -22 298 26 420 -22 b 942 124 731 -22 853 26 b 1076 485 1032 221 1076 341 b 942 847 1076 629 1032 750 b 575 992 853 943 731 992 z m 179 485 b 285 783 179 605 214 704 b 575 900 355 861 452 900 b 866 783 698 900 795 861 b 972 486 937 704 972 606 b 865 191 972 368 937 269 b 575 74 794 113 697 74 b 285 191 453 74 356 113 b 179 488 215 269 179 368 z m 640 382 l 499 382 l 499 215 l 401 215 l 401 738 l 642 738 b 729 718 674 738 703 731 b 789 667 755 705 775 688 b 819 597 803 645 813 622 b 820 521 826 571 826 546 b 791 451 814 496 804 473 b 731 400 778 430 757 413 b 639 381 704 387 673 381 z m 497 647 l 497 464 l 638 464 b 718 510 675 464 702 479 b 719 601 734 540 734 571 b 640 646 705 631 678 646 l 497 646 z "},"™":{"ha":1117,"x_min":0,"x_max":0,"o":"m 538 974 l 538 576 l 635 576 l 631 842 l 760 671 l 779 671 l 911 838 l 907 576 l 1004 576 l 1004 974 l 910 974 l 771 800 l 635 974 z m 235 892 l 235 576 l 329 576 l 329 892 l 476 892 l 476 972 l 89 972 l 89 892 z "},"℮":{"ha":892,"x_min":0,"x_max":0,"o":"m 772 144 l 721 185 b 457 56 661 99 573 56 b 261 129 380 56 315 80 l 261 365 l 819 365 b 803 577 826 447 821 517 b 724 717 786 637 760 683 b 603 790 689 750 648 775 b 456 814 559 806 509 814 b 190 706 348 814 259 778 b 85 401 120 634 85 533 b 190 99 85 272 120 171 b 457 -10 261 26 350 -10 b 636 25 525 -10 585 2 b 772 144 687 48 732 88 z m 654 689 l 654 431 l 261 431 l 261 685 b 456 749 310 727 375 749 b 654 689 537 749 603 729 z "},"⅓":{"ha":1056,"x_min":0,"x_max":0,"o":"m 68 561 l 68 482 l 336 482 l 336 561 l 247 561 l 247 982 l 81 942 l 81 861 l 156 879 l 156 561 z m 275 -4 l 803 979 l 697 979 l 172 -4 z m 694 147 l 601 147 b 660 31 602 94 622 56 b 799 -7 698 6 744 -7 b 945 31 856 -7 905 6 b 1006 151 985 56 1006 96 b 983 216 1006 174 998 195 b 919 258 967 237 946 251 b 974 297 943 265 961 278 b 993 364 987 317 993 339 b 936 472 993 411 974 447 b 800 510 898 497 853 510 b 666 473 748 510 703 497 b 610 361 628 448 610 411 l 690 361 b 799 433 695 409 731 433 b 876 412 833 433 859 426 b 903 365 894 397 903 382 b 800 299 903 321 869 299 l 728 299 l 728 224 l 806 224 b 886 201 842 224 869 216 b 913 151 904 187 913 170 b 803 78 913 102 876 78 b 696 147 736 78 700 101 z "},"⅔":{"ha":1165,"x_min":0,"x_max":0,"o":"m 68 832 l 158 832 b 261 904 159 880 194 904 b 367 829 331 904 367 879 b 335 769 367 801 356 781 b 242 746 313 757 282 750 b 117 704 192 742 150 728 b 68 596 84 680 68 644 l 68 475 l 449 475 l 449 564 l 160 564 l 160 594 b 274 674 160 641 198 667 b 322 680 293 675 309 678 b 371 693 335 682 351 687 b 417 719 390 700 406 708 b 448 763 429 729 439 744 b 461 829 457 782 461 804 b 406 948 461 884 443 923 b 264 985 369 972 321 985 b 128 948 211 985 166 972 b 72 832 91 923 72 885 z m 808 979 l 282 -4 l 386 -4 l 914 979 z m 838 224 l 914 224 b 994 201 950 224 977 216 b 1021 151 1012 187 1021 170 b 911 78 1021 102 984 78 b 804 147 844 78 809 101 l 710 147 b 768 31 711 94 730 56 b 907 -7 806 6 852 -7 b 1053 31 964 -7 1013 6 b 1114 151 1094 56 1114 96 b 1091 216 1114 174 1106 195 b 1028 258 1076 237 1055 251 b 1082 297 1051 265 1069 278 b 1101 364 1095 317 1101 339 b 1044 472 1101 411 1082 447 b 908 510 1006 497 961 510 b 774 473 856 510 812 497 b 718 361 737 448 718 411 l 800 361 b 908 433 805 409 841 433 b 985 412 943 433 968 426 b 1011 365 1003 397 1011 382 b 907 299 1010 321 975 299 l 836 299 l 836 224 z "},"⅛":{"ha":1090,"x_min":0,"x_max":0,"o":"m 68 561 l 68 482 l 336 482 l 336 561 l 247 561 l 247 982 l 81 942 l 81 861 l 156 879 l 156 561 z m 172 -4 l 275 -4 l 803 979 l 697 979 z m 611 142 b 674 25 611 88 632 49 b 824 -11 715 1 765 -11 b 975 25 883 -11 933 1 b 1038 142 1017 49 1038 88 b 1011 216 1038 169 1029 193 b 943 263 994 239 971 254 b 1026 371 999 283 1026 319 b 966 480 1026 420 1006 456 b 824 515 926 503 878 515 b 682 479 769 515 722 503 b 622 371 642 455 622 419 b 708 261 622 318 651 281 b 639 216 680 253 656 238 b 613 142 621 194 613 169 z m 933 368 b 903 315 933 344 923 326 b 825 297 882 303 856 297 b 747 315 794 297 768 303 b 717 368 727 326 717 344 b 749 422 716 392 726 410 b 825 439 771 433 796 439 b 900 422 853 439 878 433 b 933 368 922 410 933 392 z m 943 142 b 907 87 943 119 931 100 b 825 67 883 73 856 67 b 743 87 794 67 767 73 b 707 142 719 100 707 119 b 742 202 707 169 719 189 b 825 222 766 216 794 222 b 908 201 856 222 884 215 b 943 142 931 186 943 167 z "},"⅜":{"ha":1174,"x_min":0,"x_max":0,"o":"m 185 694 l 263 694 b 343 672 299 694 325 687 b 369 622 361 657 369 641 b 260 549 369 573 333 549 b 153 618 193 549 157 572 l 58 618 b 117 501 59 565 79 526 b 256 464 155 476 201 464 b 402 501 313 464 362 476 b 463 622 442 526 463 567 b 440 687 463 644 455 666 b 376 729 424 708 403 722 b 431 768 400 736 418 749 b 450 835 444 788 450 810 b 392 943 449 882 430 918 b 256 981 354 968 308 981 b 122 944 204 981 159 968 b 65 832 84 919 65 882 l 147 832 b 254 904 151 880 187 904 b 331 883 288 904 314 897 b 357 836 348 868 357 853 b 254 769 357 792 323 769 l 182 769 l 182 694 z m 788 979 l 263 -4 l 365 -4 l 893 979 z m 694 142 b 757 25 694 88 715 49 b 907 -11 799 1 849 -11 b 1058 25 966 -11 1017 1 b 1121 142 1100 49 1121 88 b 1094 216 1121 169 1112 193 b 1026 263 1077 239 1054 254 b 1110 371 1082 283 1110 319 b 1049 480 1110 420 1090 456 b 907 515 1009 503 962 515 b 765 479 852 515 805 503 b 706 371 725 455 706 419 b 792 261 706 318 734 281 b 722 216 763 253 740 238 b 696 142 705 194 696 169 z m 1017 368 b 986 315 1017 344 1006 326 b 908 297 966 303 940 297 b 831 315 877 297 851 303 b 800 368 810 326 800 344 b 832 422 799 392 810 410 b 908 439 854 433 880 439 b 983 422 936 439 961 433 b 1017 368 1006 410 1017 392 z m 1026 142 b 990 87 1026 119 1014 100 b 908 67 966 73 939 67 b 826 87 878 67 850 73 b 790 142 802 100 790 119 b 826 202 790 169 802 189 b 908 222 849 216 877 222 b 991 201 940 222 967 215 b 1026 142 1015 186 1026 167 z "},"⅝":{"ha":1176,"x_min":0,"x_max":0,"o":"m 265 -4 l 368 -4 l 896 979 l 790 979 z m 72 713 l 257 713 b 369 628 332 713 369 684 b 258 546 369 573 332 546 b 150 615 186 546 150 569 l 61 615 b 119 499 62 562 81 523 b 261 463 157 475 205 463 b 407 506 322 463 371 477 b 461 626 443 535 461 575 b 407 749 461 680 443 721 b 257 792 371 778 321 792 l 160 792 l 160 893 l 431 893 l 431 974 l 72 974 z m 697 142 b 760 25 697 88 718 49 b 910 -11 801 1 851 -11 b 1061 25 969 -11 1019 1 b 1124 142 1103 49 1124 88 b 1097 216 1124 169 1115 193 b 1029 263 1080 239 1057 254 b 1113 371 1085 283 1113 319 b 1052 480 1113 420 1092 456 b 910 515 1012 503 964 515 b 768 479 855 515 808 503 b 708 371 728 455 708 419 b 794 261 708 318 737 281 b 725 216 766 253 743 238 b 699 142 707 194 699 169 z m 1019 368 b 989 315 1019 344 1009 326 b 911 297 969 303 943 297 b 833 315 880 297 854 303 b 803 368 813 326 803 344 b 835 422 802 392 813 410 b 911 439 857 433 882 439 b 986 422 939 439 964 433 b 1019 368 1008 410 1019 392 z m 1029 142 b 993 87 1029 119 1017 100 b 911 67 969 73 942 67 b 829 87 881 67 853 73 b 793 142 805 100 793 119 b 828 202 793 169 805 189 b 911 222 852 216 880 222 b 994 201 943 222 970 215 b 1029 142 1017 186 1029 167 z "},"⅞":{"ha":1061,"x_min":0,"x_max":0,"o":"m 669 979 l 144 -4 l 247 -4 l 775 979 z m 310 892 l 89 472 l 193 472 l 431 933 l 425 974 l 54 974 l 54 892 z m 583 142 b 616 51 583 105 594 74 b 694 2 638 27 664 11 b 794 -11 724 -7 757 -11 b 946 25 854 -11 904 1 b 1008 142 988 49 1008 88 b 982 216 1008 169 1000 193 b 914 263 964 239 942 254 b 999 371 970 282 999 318 b 938 480 999 420 978 456 b 796 515 898 503 850 515 b 655 479 741 515 694 503 b 596 371 616 455 596 419 b 682 261 596 318 625 281 b 613 216 653 253 630 238 b 586 142 595 194 586 169 z m 907 368 b 875 315 906 344 895 326 b 797 297 855 303 829 297 b 718 315 765 297 738 303 b 688 368 698 326 688 344 b 722 422 688 392 699 410 b 797 439 744 433 769 439 b 873 422 825 439 850 433 b 907 368 896 410 907 392 z m 915 142 b 879 87 915 119 903 100 b 797 67 855 73 828 67 b 715 87 767 67 739 73 b 679 142 691 100 679 119 b 715 202 679 169 691 189 b 797 222 738 216 766 222 b 880 201 829 222 856 215 b 915 142 903 186 915 167 z "},"←":{"ha":872,"x_min":0,"x_max":0,"o":"m 49 488 l 357 179 l 417 235 l 225 433 l 790 433 l 790 539 l 225 539 l 419 735 l 357 794 z "},"↑":{"ha":708,"x_min":0,"x_max":0,"o":"m 356 864 l 47 556 l 103 494 l 301 686 l 301 122 l 407 122 l 407 686 l 604 493 l 663 554 z "},"→":{"ha":872,"x_min":0,"x_max":0,"o":"m 824 488 l 515 796 l 456 739 l 646 542 l 82 542 l 82 436 l 646 436 l 453 239 l 515 179 z "},"↓":{"ha":706,"x_min":0,"x_max":0,"o":"m 353 104 l 661 413 l 604 472 l 407 282 l 407 846 l 301 846 l 301 282 l 104 475 l 44 413 z "},"↖":{"ha":703,"x_min":0,"x_max":0,"o":"m 90 749 l 90 313 l 174 310 l 179 585 l 578 185 l 653 260 l 253 660 l 529 660 l 528 749 z "},"↗":{"ha":704,"x_min":0,"x_max":0,"o":"m 613 311 l 613 747 l 176 747 l 175 664 l 450 660 l 50 260 l 125 185 l 524 585 l 524 310 z "},"↘":{"ha":763,"x_min":0,"x_max":0,"o":"m 624 221 l 624 658 l 536 660 l 536 385 l 136 783 l 61 708 l 461 310 l 185 304 l 188 221 z "},"↙":{"ha":763,"x_min":0,"x_max":0,"o":"m 139 658 l 139 221 l 575 221 l 578 304 l 301 310 l 701 708 l 626 783 l 228 385 l 228 660 z "},"∂":{"ha":835,"x_min":0,"x_max":0,"o":"m 415 89 b 240 161 340 89 282 113 b 178 332 199 209 178 266 b 240 502 178 398 199 454 b 415 574 282 550 340 574 b 589 502 489 574 547 550 b 651 332 631 454 651 398 b 589 161 651 266 631 209 b 415 89 547 113 489 89 z m 379 671 b 144 562 278 664 200 628 b 61 331 89 496 61 419 b 154 88 61 237 92 156 b 415 -14 216 20 303 -14 b 674 87 524 -14 610 20 b 768 350 738 154 769 242 b 640 753 767 514 724 648 b 271 971 555 859 432 931 l 246 878 b 479 767 323 860 400 823 b 632 582 558 711 609 650 b 515 654 601 616 563 640 b 379 671 468 668 423 674 z "},"∆":{"ha":1083,"x_min":0,"x_max":0,"o":"m 1046 0 l 610 972 l 474 972 l 38 0 z m 221 111 l 542 842 l 861 111 z "},"∏":{"ha":953,"x_min":0,"x_max":0,"o":"m 703 -262 l 826 -262 l 826 972 l 126 972 l 126 -262 l 250 -262 l 250 858 l 703 858 z "},"∑":{"ha":813,"x_min":0,"x_max":0,"o":"m 226 119 l 499 507 l 258 858 l 731 858 l 731 972 l 74 972 l 74 919 l 361 510 l 53 65 l 53 0 l 739 0 l 739 119 z "},"−":{"ha":735,"x_min":0,"x_max":0,"o":"m 101 496 l 101 386 l 633 386 l 633 496 z "},"∕":{"ha":619,"x_min":0,"x_max":0,"o":"m -8 -4 l 99 -4 l 625 979 l 518 979 z "},"∙":{"ha":347,"x_min":0,"x_max":0,"o":"m 96 433 b 135 366 96 402 109 379 b 213 366 161 353 187 353 b 251 435 238 379 251 402 b 235 483 251 454 246 470 b 197 508 225 496 212 504 b 151 508 181 511 166 511 b 112 483 135 504 122 496 b 96 433 101 469 96 453 z "},"√":{"ha":856,"x_min":0,"x_max":0,"o":"m 510 0 l 838 969 l 758 992 l 467 135 l 257 607 l 26 504 l 60 425 l 182 478 l 413 0 z "},"∞":{"ha":1089,"x_min":0,"x_max":0,"o":"m 307 231 b 431 270 352 231 394 244 b 546 379 469 297 507 333 b 785 231 629 280 709 231 b 953 297 857 231 913 253 b 1013 450 994 340 1013 391 b 950 606 1013 510 992 562 b 776 671 908 649 850 671 b 546 521 708 671 631 621 b 314 671 464 621 387 671 b 142 606 241 671 183 649 b 79 450 100 562 79 510 b 138 297 78 391 98 340 b 307 231 178 253 235 231 z m 310 325 b 210 360 267 326 234 338 b 171 442 186 382 173 409 b 203 538 168 478 179 510 b 310 579 228 565 263 579 b 376 562 332 579 354 573 b 428 525 397 550 415 538 b 476 472 441 512 457 494 l 494 450 b 472 425 491 446 483 438 b 424 376 451 403 435 386 b 374 342 413 365 396 354 b 310 325 353 331 331 325 z m 782 325 b 762 327 775 325 769 326 b 743 331 755 328 749 330 b 725 339 738 333 731 335 b 708 348 719 343 713 346 b 692 359 704 350 698 354 b 676 371 685 364 680 368 b 661 385 673 374 668 378 b 647 400 655 392 650 397 l 632 415 l 618 429 l 619 429 l 599 450 l 617 469 b 667 524 640 495 656 514 b 715 560 677 535 693 547 b 782 579 738 573 760 579 b 884 542 825 579 859 567 b 922 453 909 517 921 487 b 886 364 922 419 910 389 b 782 325 862 339 827 326 z "},"∫":{"ha":649,"x_min":0,"x_max":0,"o":"m 256 733 l 256 -1 b 144 -154 256 -103 219 -154 b 53 -121 113 -154 82 -143 l 7 -204 b 150 -253 55 -237 103 -253 b 313 -187 221 -253 276 -231 b 369 -3 351 -144 369 -82 l 369 732 b 490 881 369 831 410 881 b 596 846 522 881 557 869 l 643 931 b 488 981 594 964 542 981 b 318 915 415 981 359 959 b 257 732 277 872 257 811 z "},"≈":{"ha":792,"x_min":0,"x_max":0,"o":"m 179 468 b 229 520 190 492 207 509 b 299 522 251 531 275 531 l 488 464 b 690 568 580 432 648 467 l 617 603 b 573 551 602 576 587 559 b 506 551 559 543 536 543 l 308 617 b 190 603 267 627 227 622 b 104 511 152 583 124 553 z m 179 219 b 228 272 189 244 206 261 b 297 274 250 282 273 283 l 486 215 b 690 319 579 184 647 219 l 617 354 b 572 302 602 327 587 310 b 504 303 557 294 535 294 l 307 368 b 189 354 265 378 226 374 b 104 263 152 335 124 304 z "},"≠":{"ha":769,"x_min":0,"x_max":0,"o":"m 96 343 l 96 236 l 232 236 l 189 164 l 244 132 l 307 236 l 671 236 l 671 343 l 369 343 l 482 529 l 671 529 l 671 636 l 544 636 l 588 707 l 533 738 l 472 636 l 96 636 l 96 529 l 408 529 l 296 343 z "},"≤":{"ha":626,"x_min":0,"x_max":0,"o":"m 442 850 l 106 603 l 106 565 l 440 310 l 506 382 l 232 583 l 503 776 z m 97 222 l 97 126 l 528 126 l 528 222 z "},"≥":{"ha":626,"x_min":0,"x_max":0,"o":"m 521 603 l 186 850 l 124 776 l 394 583 l 121 382 l 186 310 l 521 565 z m 531 126 l 531 222 l 99 222 l 99 126 z "},"◊":{"ha":793,"x_min":0,"x_max":0,"o":"m 442 10 l 744 489 l 442 967 l 349 967 l 50 489 l 349 10 z m 178 488 l 394 857 l 621 488 l 394 118 z "},"ﬁ":{"ha":819,"x_min":0,"x_max":0,"o":"m 535 950 l 497 860 b 414 882 470 875 443 882 b 293 733 333 882 293 832 l 293 679 l 501 679 l 501 581 l 293 581 l 293 1 l 179 1 l 179 581 l 44 581 l 44 679 l 179 679 l 179 733 b 240 917 179 812 200 873 b 410 983 281 961 338 983 b 533 951 452 983 494 973 z m 586 897 b 624 831 586 866 599 844 b 699 830 649 818 674 817 b 736 896 724 842 736 864 b 699 963 736 927 724 950 b 624 963 674 975 649 976 b 586 897 599 951 586 929 z m 604 690 l 718 690 l 718 1 l 604 1 z "},"ﬂ":{"ha":817,"x_min":0,"x_max":0,"o":"m 497 863 l 528 953 b 410 982 491 972 451 982 b 240 917 338 982 281 960 b 179 733 200 873 179 812 l 179 679 l 44 679 l 44 579 l 179 579 l 179 1 l 293 1 l 293 579 l 493 579 l 493 679 l 293 679 l 293 733 b 414 883 293 833 333 883 b 496 863 444 883 471 876 z m 704 972 l 590 972 l 590 0 l 704 0 z "}}}
